<svg xmlns="http://www.w3.org/2000/svg" width="368" height="368"><defs><style>.a,.b,.c,.e{fill:none}.a,.b,.c{stroke:#000;stroke-width:5px}.b,.c{stroke-linecap:round}.b{stroke-linejoin:round}.d{stroke:none}</style></defs><g transform="translate(-613 -415)"><g class="a" transform="translate(613 415)"><circle cx="184" cy="184" r="184" class="d"/><circle cx="184" cy="184" r="181.5" class="e"/></g><path d="M869.25 623.313s37.583-39.146 37.583-77.313S870 470 870 470s-9.708-11-14.875-22a66.921 66.921 0 01-5.792-22" class="a"/><circle cx="13" cy="13" r="13" transform="translate(894 531)"/><path d="M957 681.5s-13.062-19.937-23.5-31.25a107.877 107.877 0 00-19.5-17 89.086 89.086 0 00-30.75-9.25c-17.375-1.812-38.75 2-38.75 2a151.4 151.4 0 00-21.25 4.25c-11.562 3.188-17.643 9.286-41.107 6.893S775 639.25 769 636.25s-7.437-20-13.75-32-11.5-16-11.5-16-10.062-3.393-18-3.393-25.312 12.643-36.5 17.893a79.538 79.538 0 01-22 6.5 103.319 103.319 0 010-25.5c.747-5.978 20.017-38.815 26.893-41.25H714l1.5 10.5 10.25-2.25a35.514 35.514 0 004.75-17.25c.071-9.929-17.357-38.464 3.071-47.357 3.105-1.352 4.045-2.732 11.571-2.143s11.567 1.988 21.107 7.5l1.25 4.75s2.5 1.75 3.75 7.25 1.25 14.75 1.25 14.75h-5a20.236 20.236 0 011.5 9.25 63.541 63.541 0 01-2.75 10.75 27.66 27.66 0 019.25-1.5 73.265 73.265 0 0112.5 1.5s28.875 3.688 46.25 4.25 16.781-1.25 23-1.25c12.875 0 19.188 4.313 29.25 2.75a20.282 20.282 0 0014.25-9.25l2.689 23.25s-6.379-3.75-10.687-3.75a40.942 40.942 0 00-9.5 1.5 82.382 82.382 0 01-11.5 2.25c-6.812.875-15.75 1.25-15.75 1.25A145.253 145.253 0 00839.25 558a80.425 80.425 0 00-14 1.25 58.217 58.217 0 01-11 2.5c-6.75.938-13.107 3.25-11.5 13S790 595.143 801 601.5s36.714 12.5 44.75 24.5" class="a"/><path d="M769 636s5.875 16.375 19.75 23.5 36.536 7.071 36.536 7.071a203.105 203.105 0 0013.464 22.179c3.594 5.089 23.563 29 30.438 39 5.431 7.9-8.616-16.036-31.473-16.036S799 733 799 733h-14.286s-2.786-12-12.714-12c-2.057 0-19.02 6.423-27 9-10.062 3.25-25.714 4-25.714 4s117.83.673 135.464 0c34.375-1.312 32.75-19.25 23.75-51.5s7.464-33.429 15.643-25.929 14.143 20.857 31.143 24.571a93.963 93.963 0 0031.571 1.357" class="b"/><path d="M914 634.5a84.634 84.634 0 00-14 6 71.974 71.974 0 00-11.75 8.5l-16 9.75s-11.812 6.313-23.5 8a89.74 89.74 0 01-23 0" class="c"/><path d="M838 543.429s-9.991 13.223-19.429 16.286-15.571 5-19.714 4.143S778.75 537.5 778.75 537.5s9.2 13.481 8.25 24.75c-.584 6.953-6.7 13.109-10.5 14.25-4.513 1.357-13.028 1.462-20.5-2.75-7.839-4.418-14.582-13.407-17.75-15.75-6-4.437-10.964-9.143-23.75-4.25l-10 14a22.258 22.258 0 008 2.75 52.672 52.672 0 0011 0 50.262 50.262 0 0110.25 6c4.938 3.813 12.5 14.25 12.5 14.25" class="a"/><path d="M769.125 482.25l-4.937 13.375s-7.687 1-11.437 5.375-3.828 7.609-5.5 12.25-2.24 4.69-6.25 7.25c-3.56 2.273-9.884 2.486-10.734 3.063M745.75 537.5a25.681 25.681 0 009 3.5 20.335 20.335 0 0010.125-2.062" class="c"/><path d="M705.143 568.571s-14.714 2.75-18.286 34.571c0 0 3.536-21.938 4.429-34.571S689 553.714 689 553.714s1.146-4.607 7.1.857 15.145 2.732 15.145 2.732" class="b"/></g></svg>