<svg xmlns="http://www.w3.org/2000/svg" height="368" width="368"  stroke="#b69e4f" xmlns:v="https://vecta.io/nano"><g fill="none" stroke-width="5"><circle r="181.5" cy="184" cx="184"/><path d="M256.25 208.313s37.583-39.146 37.583-77.313S257 55 257 55s-9.708-11-14.875-22a66.92 66.92 0 0 1-5.792-22"/></g><circle r="13" cy="129" cx="294" fill="#b69e4f"/><g fill="none" stroke-width="5"><path d="M344 266.5s-13.062-19.937-23.5-31.25c-5.795-6.428-12.342-12.136-19.5-17-9.605-4.92-20.024-8.055-30.75-9.25-17.375-1.812-38.75 2-38.75 2a151.4 151.4 0 0 0-21.25 4.25c-11.562 3.188-17.643 9.286-41.107 6.893S162 224.25 156 221.25s-7.437-20-13.75-32-11.5-16-11.5-16-10.062-3.393-18-3.393-25.312 12.643-36.5 17.893a79.54 79.54 0 0 1-22 6.5 103.32 103.32 0 0 1 0-25.5c.747-5.978 20.017-38.815 26.893-41.25H101l1.5 10.5 10.25-2.25c3.03-5.25 4.665-11.19 4.75-17.25.07-9.93-17.357-38.464 3.07-47.357 3.105-1.352 4.045-2.732 11.57-2.143s11.567 1.988 21.107 7.5l1.25 4.75s2.5 1.75 3.75 7.25 1.25 14.75 1.25 14.75h-5c1.217 2.923 1.73 6.092 1.5 9.25a63.54 63.54 0 0 1-2.75 10.75 27.66 27.66 0 0 1 9.25-1.5c4.202.14 8.384.642 12.5 1.5 0 0 28.875 3.688 46.25 4.25s16.78-1.25 23-1.25c12.875 0 19.188 4.313 29.25 2.75a20.28 20.28 0 0 0 14.25-9.25l2.69 23.25s-6.38-3.75-10.687-3.75a40.94 40.94 0 0 0-9.5 1.5 82.38 82.38 0 0 1-11.5 2.25c-6.812.875-15.75 1.25-15.75 1.25-5.555-.74-11.148-1.157-16.75-1.25-4.694.007-9.38.426-14 1.25-3.577 1.187-7.26 2.025-11 2.5-6.75.938-13.107 3.25-11.5 13S177 180.143 188 186.5s36.714 12.5 44.75 24.5h0"/><g stroke-linecap="round"><path d="M156 221s5.875 16.375 19.75 23.5 36.536 7.07 36.536 7.07c4.01 7.672 8.508 15.08 13.464 22.18 3.594 5.09 23.563 29 30.438 39 5.43 7.9-8.616-16.036-31.473-16.036S186 318 186 318h-14.286s-2.786-12-12.714-12c-2.057 0-19.02 6.423-27 9-10.062 3.25-25.714 4-25.714 4H241.75c34.375-1.312 32.75-19.25 23.75-51.5s7.464-33.43 15.643-25.93 14.143 20.857 31.143 24.57c10.372 2.23 21.046 2.7 31.57 1.357" stroke-linejoin="round"/><path d="M301 219.5c-4.838 1.575-9.523 3.583-14 6-4.193 2.43-8.13 5.278-11.75 8.5l-16 9.75s-11.812 6.313-23.5 8a89.74 89.74 0 0 1-23 0"/></g><path d="M225 128.43s-9.99 13.223-19.43 16.286-15.57 5-19.714 4.143S165.75 122.5 165.75 122.5s9.2 13.48 8.25 24.75c-.584 6.953-6.7 13.11-10.5 14.25-4.513 1.357-13.028 1.462-20.5-2.75-7.84-4.418-14.582-13.407-17.75-15.75-6-4.437-10.964-9.143-23.75-4.25l-10 14a22.26 22.26 0 0 0 8 2.75 52.67 52.67 0 0 0 11 0 50.26 50.26 0 0 1 10.25 6c4.938 3.813 12.5 14.25 12.5 14.25"/><g stroke-linecap="round"><path d="M156.125 67.25l-4.937 13.375s-7.687 1-11.437 5.375-3.828 7.6-5.5 12.25-2.24 4.7-6.25 7.25c-3.56 2.273-9.884 2.486-10.734 3.063M132.75 122.5a25.68 25.68 0 0 0 9 3.5 20.33 20.33 0 0 0 10.125-2.062"/><path d="M92.143 153.57s-14.714 2.75-18.286 34.57c0 0 3.536-21.938 4.43-34.57S76 138.714 76 138.714s1.146-4.607 7.1.857 15.145 2.732 15.145 2.732" stroke-linejoin="round"/></g></g></svg>