<svg xmlns="http://www.w3.org/2000/svg" width="47" height="41.5" viewBox="0 0 47 41.5"><defs><style>.a{fill:#fff;}.b,.c{fill:none;}.b{stroke:#54534a;stroke-width:3px;}.c{stroke:#fff;stroke-width:5px;}.d,.e{stroke:none;}.e{fill:#54534a;}</style></defs><g transform="translate(0 1.499)"><g class="a" transform="translate(-2045 -890.999)"><path class="d" d="M 2090.499755859375 925.5 L 2046.499877929688 925.5 L 2046.499877929688 892.4999389648438 L 2058.000244140625 892.4993286132812 L 2070.307373046875 892.4998779296875 L 2070.307373046875 892.5015258789062 L 2090.499755859375 892.5001220703125 L 2090.499755859375 925.5 Z"/><path class="e" d="M 2088.999755859375 924 L 2088.999755859375 894.0001831054688 L 2070.3076171875 894.0015258789062 L 2070.3076171875 893.9998779296875 L 2058.00048828125 893.9993286132812 L 2047.999877929688 893.9998779296875 L 2047.999877929688 924 L 2088.999755859375 924 M 2091.999755859375 927.0009765625 L 2091.999755859375 927 L 2044.999877929688 927 L 2044.999877929688 891 L 2058.000244140625 890.9993286132812 L 2073.999755859375 891 L 2070.307373046875 891.0015258789062 L 2091.999755859375 891 L 2091.999755859375 927 L 2091.999755859375 927.0009765625 Z"/></g><line class="b" y2="10" transform="translate(9 30.001)"/><line class="b" y2="10" transform="translate(39 30.001)"/><path class="c" d="M0,0H20" transform="translate(14 1.001)"/><line class="b" x2="13" y2="8" transform="translate(12 1.001)"/></g></svg>