<svg xmlns="http://www.w3.org/2000/svg"><defs><font horiz-adv-x="866"><font-face alphabetic="0" ascent="1050" descent="-350" panose-1="0 0 7 0 0 0 0 0 0 0"/><glyph glyph-name="space" horiz-adv-x="268" unicode="&#x20;"/><glyph d="M324 710 223 227H104L173 710H324ZM92-7T72 12 52 60Q52 100 82 128T154 157Q187 157 206 139T226 90Q226 50 196 22T125-7Q92-7 72 12Z" glyph-name="exclam" horiz-adv-x="354" unicode="&#x21;"/><glyph d="M247 798 197 586H102L126 798H247ZM416 798 367 586H271L296 798H416Z" glyph-name="quotedbl" horiz-adv-x="364" unicode="&#x26;&#x71;&#x75;&#x6f;&#x74;&#x3b;"/><glyph d="M712 449 652 295H779L757 170H603L537 0H404L470 170H288L222 0H89L155 170H5L27 295H204L264 449H115L137 574H313L378 740H511L446 574H628L693 740H826L761 574H889L867 449H712ZM579 449H397L337 295H519L579 449Z" glyph-name="numbersign" horiz-adv-x="887" unicode="&#x23;"/><glyph d="M446 511Q448 540 435 561T395 591L362 402Q424 386 462 371T527 324 555 240Q555 220 551 201 542 149 508 104T417 29 290-6L276-87H211L225-5Q137 2 85 45T33 161Q33 177 36 195H186Q183 160 198 137T245 107L279 299Q217 315 179 330T114 377 86 462Q86 483 90 502 105 589 177 644T352 707L366 788H430L416 707Q502 699 550 656T598 536Q598 520 597 511H446ZM236 504T236 494Q236 468 253 451T301 421L332 595Q294 590 269 568T237 509Q236 504 236 494ZM406 200T406 210Q406 235 389 252T341 281L310 107Q349 114 374 137T405 195Q406 200 406 210Z" glyph-name="dollar" horiz-adv-x="654" unicode="&#x24;"/><glyph d="M95 625T147 667 269 710Q330 710 366 678T403 587Q403 576 399 550 386 475 335 432T213 389Q152 389 116 422T79 514Q79 531 82 550 95 625 147 667ZM719 700 203 0H66L582 700H719ZM198 626T184 550Q182 541 182 524 182 473 227 473 253 473 271 492T297 550Q299 559 299 575 299 626 254 626 198 626 184 550ZM401 226T453 268 575 310Q635 310 671 278T708 188Q708 177 704 151 691 75 640 33T518-10Q457-10 421 22T385 115Q385 132 388 151 401 226 453 268ZM533 227T515 208 489 151Q487 142 487 126 487 74 532 74 558 74 576 93T602 151Q604 160 604 175 604 227 559 227 533 227 515 208Z" glyph-name="percent" horiz-adv-x="765" unicode="&#x25;"/><glyph d="M617 199T590 167L730 0H558L495 75Q383-12 243-12 138-12 77 35T16 167Q16 248 70 312T214 414Q182 461 182 509 182 568 212 614T295 685 417 711Q499 711 544 672T589 572Q589 559 586 544H450Q451 548 451 556 451 578 437 591T397 604Q364 604 342 583T320 530Q320 510 331 488T365 435L512 260 518 269 592 364H738L646 241Q617 199 590 167ZM350 104T422 162L280 332Q224 309 192 273T160 191Q160 153 189 129T267 104Q350 104 422 162Z" glyph-name="ampersand" horiz-adv-x="790" unicode="&#x26;&#x61;&#x6d;&#x70;&#x3b;"/><glyph d="M247 798 197 586H102L126 798H247Z" glyph-name="quotesingle" horiz-adv-x="195" unicode="&#x26;&#x61;&#x70;&#x6f;&#x73;&#x3b;"/><glyph d="M168-128T137-29 106 188Q106 326 146 465T262 724 440 924H581L579 911Q478 828 402 715T285 472 243 213Q243 100 275-2T371-183L369-197H228Q168-128 137-29Z" glyph-name="parenleft" horiz-adv-x="485" unicode="&#x28;"/><glyph d="M-51-197-48-183Q99-54 184 128T270 500Q270 619 235 725T129 911L131 924H273Q340 853 373 749T407 523Q407 390 369 254T259 0 91-197H-51Z" glyph-name="parenright" horiz-adv-x="485" unicode="&#x29;"/><glyph d="M469 686 503 596 364 549 487 502 418 409 326 498 324 360H221L266 498 143 407 106 503 244 550 123 595 190 687 285 599 287 738H392L343 599 469 686Z" glyph-name="asterisk" horiz-adv-x="518" unicode="&#x2a;"/><glyph d="M592 292H404L370 101H237L271 292H82L105 419H293L327 611H460L426 419H615L592 292Z" glyph-name="plus" horiz-adv-x="674" unicode="&#x2b;"/><glyph d="M201 149 35-134H-57L53 149H201Z" glyph-name="comma" horiz-adv-x="255" unicode="&#x2c;"/><glyph d="M518 416 497 298H72L93 416H518Z" glyph-name="hyphen" horiz-adv-x="583" unicode="&#x2d;"/><glyph d="M45-7T25 12 5 60Q5 100 35 128T107 157Q140 157 159 139T179 90Q179 50 149 22T78-7Q45-7 25 12Z" glyph-name="period" horiz-adv-x="260" unicode="&#x2e;"/><glyph d="M560 947 90-181H-46L423 947H560Z" glyph-name="slash" horiz-adv-x="486" unicode="&#x2f;"/><glyph d="M96 533T175 630 400 727Q618 727 618 491 618 431 606 365 542 2 272 2 54 2 54 239 54 299 66 365 96 533 175 630ZM480 432T480 476Q480 533 457 565T377 597Q297 597 260 536T204 365Q192 298 192 254 192 196 215 164T295 132Q351 132 385 163T437 243 468 365Q480 432 480 476Z" glyph-name="zero" horiz-adv-x="646" unicode="&#x30;"/><glyph d="M87 580 111 710H351L225 0H81L183 580H87Z" glyph-name="one" horiz-adv-x="362" unicode="&#x31;"/><glyph d="M80 162Q191 243 254 294T364 401 420 508Q423 523 423 537 423 573 403 593T340 613Q291 613 259 581T214 488H79Q103 608 182 670T365 732Q464 732 515 686T566 562Q566 537 562 517 549 442 495 373T378 252 215 126H510L489 10H-4L14 114 80 162Z" glyph-name="two" horiz-adv-x="574" unicode="&#x32;"/><glyph d="M121 637T196 691 379 746Q475 746 526 703T577 590Q577 573 574 553 564 490 524 447T435 388V384Q480 369 505 335T530 247Q530 223 526 202 515 142 479 95T385 22 252-5Q150-5 90 41T30 180Q30 199 33 220H169Q168 214 168 202 168 161 194 137T269 112Q327 112 361 149T396 240Q396 286 362 306T257 326H228L249 441H278Q419 441 436 536 438 552 438 557 438 591 417 609T354 627Q306 627 276 601T235 537H98Q121 637 196 691Z" glyph-name="three" horiz-adv-x="599" unicode="&#x33;"/><glyph d="M21 142 40 252 450 720H612L533 264H620L599 142H511L485 0H346L371 142H21ZM455 570 197 264H401L455 570Z" glyph-name="four" horiz-adv-x="661" unicode="&#x34;"/><glyph d="M600 608H276L246 437Q271 463 312 479T398 496Q497 496 542 444T588 312Q588 287 583 255 563 140 485 70T286 0Q178 0 121 51T63 187L64 206H201Q203 166 229 142T305 118Q365 118 401 155T449 253Q452 271 452 287 452 332 427 356T351 380Q309 380 277 359T228 303H93L168 731H621L600 608Z" glyph-name="five" horiz-adv-x="644" unicode="&#x35;"/><glyph d="M474 589T453 610 386 631Q317 631 275 576T209 395Q241 435 291 457T395 480Q480 480 529 433T578 300Q578 268 573 242 561 171 523 116T425 29 287-2Q170-2 119 56T68 225Q68 288 84 376 116 559 195 652T411 746Q516 746 564 689T606 547H476Q474 589 453 610ZM290 365T249 334 197 244Q194 228 194 213 194 167 221 142T301 117Q356 117 393 150T440 239Q443 256 443 271 443 315 418 340T343 365Q290 365 249 334Z" glyph-name="six" horiz-adv-x="640" unicode="&#x36;"/><glyph d="M575 620 196 0H46L433 605H91L111 724H593L575 620Z" glyph-name="seven" horiz-adv-x="548" unicode="&#x37;"/><glyph d="M119 435T119 518Q119 536 122 555 131 608 167 653T263 725 403 753Q508 753 562 707T617 588Q617 572 614 555 604 500 570 459T486 394Q529 374 552 338T576 251Q576 239 572 211 559 141 516 90T407 11 267-16Q165-16 103 32T40 167Q40 191 44 211 56 277 95 324T193 394Q119 435 119 518ZM332 637T298 610 255 534Q253 520 253 514 253 477 278 456T347 434Q401 434 439 469T477 557Q477 596 452 616T382 637Q332 637 298 610ZM271 333T230 303 180 217Q178 208 178 192 178 150 207 125T288 100Q354 100 396 141T438 243Q438 286 408 309T328 333Q271 333 230 303Z" glyph-name="eight" horiz-adv-x="643" unicode="&#x38;"/><glyph d="M202 114T297 114Q359 114 396 166T455 339Q427 307 383 289T289 271Q203 271 151 317T98 449Q98 471 103 503 123 614 200 680T392 746Q502 746 551 691T600 526Q600 461 585 380 562 250 526 168T428 42 272-1Q169-1 119 50T68 182Q68 197 69 205H199Q202 114 297 114ZM389 385T425 417 470 503Q473 520 473 535 473 580 447 603T375 627Q321 627 284 594T237 505Q234 490 234 477 234 435 260 410T338 385Q389 385 425 417Z" glyph-name="nine" horiz-adv-x="626" unicode="&#x39;"/><glyph d="M45-7T25 12 5 60Q5 100 35 128T107 157Q140 157 159 139T179 90Q179 50 149 22T78-7Q45-7 25 12ZM45 407T25 426 5 474Q5 514 35 542T107 571Q140 571 159 553T179 504Q179 464 149 436T78 407Q45 407 25 426Z" glyph-name="colon" horiz-adv-x="263" unicode="&#x3a;"/><glyph d="M150 403T130 422 110 470Q110 510 140 538T212 567Q245 567 264 549T284 500Q284 460 254 432T183 403Q150 403 130 422ZM220 149 54-134H-38L72 149H220Z" glyph-name="semicolon" horiz-adv-x="324" unicode="&#x3b;"/><glyph d="M269 132 90 356 348 580H524L266 356 445 132H269Z" glyph-name="less" horiz-adv-x="584" unicode="&#x26;&#x6c;&#x74;&#x3b;"/><glyph d="M685 538 663 413H118L140 538H685ZM643 298 621 173H76L98 298H643Z" glyph-name="equal" horiz-adv-x="738" unicode="&#x3d;"/><glyph d="M140 580H317L495 356 238 132H61L319 356 140 580Z" glyph-name="greater" horiz-adv-x="567" unicode="&#x26;&#x67;&#x74;&#x3b;"/><glyph d="M432 722T485 678 538 554Q538 530 534 510 517 412 445 361T268 309L250 232H128L153 402H198Q286 402 336 425T398 511Q400 525 400 532 400 566 379 585T319 605Q274 605 244 580T205 511H73Q83 572 119 620T212 695 341 722Q432 722 485 678ZM113-7T93 12 73 60Q73 100 103 128T175 157Q208 157 227 139T247 90Q247 50 217 22T146-7Q113-7 93 12Z" glyph-name="question" horiz-adv-x="538" unicode="&#x3f;"/><glyph d="M714 656T799 613 929 492 975 312Q975 230 947 157T864 39 736-6Q684-6 652 15T611 77Q582 38 536 16T439-7Q363-7 320 38T277 163Q277 238 308 303T394 407 518 447Q604 447 636 387L645 439H762L715 169Q712 150 712 134 712 110 722 98T756 86Q792 86 816 120T853 205 866 307Q866 428 792 494T583 561Q468 561 375 506T230 355 177 142Q177 18 250-49T459-116Q556-116 630-81L650-173Q555-213 439-213 327-213 244-171T114-51 68 131Q68 278 136 398T326 587 598 656Q714 656 799 613ZM519 97T549 118 596 174 614 249Q614 291 592 317T527 343Q490 343 462 321T419 262 403 186Q403 145 423 121T483 97Q519 97 549 118Z" glyph-name="at" horiz-adv-x="1048" unicode="&#x40;"/><glyph d="M469 133H190L121 0H-26L349 699H512L639 0H491L469 133ZM451 242 401 538 247 242H451Z" glyph-name="A" horiz-adv-x="716" unicode="&#x41;"/><glyph d="M614 457T575 417 478 358Q526 348 555 310T585 220Q585 206 582 189 568 104 497 52T318 0H17L141 698H429Q524 698 575 658T627 551Q627 535 624 518 614 457 575 417ZM479 503T479 515Q479 550 456 569T389 588H262L230 408H358Q407 408 439 431T478 497Q479 503 479 515ZM445 220T445 226Q445 262 420 282T349 303H211L178 111H319Q370 111 403 136T443 206Q445 220 445 226Z" glyph-name="B" horiz-adv-x="643" unicode="&#x42;"/><glyph d="M64 453T124 534 273 661 462 707Q579 707 657 647T751 481H590Q574 529 535 553T439 578Q378 578 326 550T238 470 190 350Q185 318 185 297 185 216 231 169T358 122Q415 122 463 147T544 220H705Q651 113 553 54T337-6Q249-6 182 29T77 130 40 279Q40 314 46 350 64 453 124 534Z" glyph-name="C" horiz-adv-x="768" unicode="&#x43;"/><glyph d="M482 698T552 665 660 569 698 422Q698 384 691 348 673 243 614 165T463 43 261 0H17L141 698H385Q482 698 552 665ZM387 114T457 176 548 348Q553 381 553 405 553 489 504 535T359 581H261L179 114H277Q387 114 457 176Z" glyph-name="D" horiz-adv-x="717" unicode="&#x44;"/><glyph d="M262 589 230 408H465L446 300H211L178 111H443L423 0H17L141 699H546L527 589H262Z" glyph-name="E" horiz-adv-x="532" unicode="&#x45;"/><glyph d="M572 698 552 588H262L230 405H452L433 297H210L158 0H17L141 698H572Z" glyph-name="F" horiz-adv-x="530" unicode="&#x46;"/><glyph d="M64 453T125 534 275 661 464 707Q582 707 658 650T751 488H590Q574 532 536 555T442 578Q380 578 327 550T238 470 190 350Q185 326 185 295 185 213 233 167T367 120Q446 120 505 163T594 282H354L372 388H750L728 266Q701 193 644 131T508 32 339-6Q250-6 183 30T78 130 40 280Q40 314 46 350 64 453 125 534Z" glyph-name="G" horiz-adv-x="768" unicode="&#x47;"/><glyph d="M720 698 597 0H456L509 299H211L158 0H17L141 698H281L230 409H529L580 698H720Z" glyph-name="H" horiz-adv-x="717" unicode="&#x48;"/><glyph d="M281 698 158 0H17L141 698H281Z" glyph-name="I" horiz-adv-x="278" unicode="&#x49;"/><glyph d="M548 698 462 208Q444 106 375 50T207-7Q119-7 68 37T17 163Q17 185 22 213H163Q161 203 161 186 161 118 227 118 265 118 289 142T321 208L407 698H548Z" glyph-name="J" horiz-adv-x="570" unicode="&#x4a;"/><glyph d="M355 352 589 0H411L213 311 158 0H17L141 698H281L226 385 535 698H704L355 352Z" glyph-name="K" horiz-adv-x="663" unicode="&#x4b;"/><glyph d="M177 107H407L388 0H17L141 698H281L177 107Z" glyph-name="L" horiz-adv-x="459" unicode="&#x4c;"/><glyph d="M902 698 779 0H638L718 452 452 0H345L238 453 158 0H17L141 698H300L431 180 743 698H902Z" glyph-name="M" horiz-adv-x="899" unicode="&#x4d;"/><glyph d="M615 0H474L243 479 158 0H17L141 699H281L513 219 598 699H738L615 0Z" glyph-name="N" horiz-adv-x="735" unicode="&#x4e;"/><glyph d="M256-7T189 30 84 134 47 287Q47 407 100 503T248 653 461 708Q550 708 617 671T722 568 759 416Q759 294 706 198T558 48 344-7Q256-7 189 30ZM439 122T496 160 585 262 617 403Q617 485 571 532T442 579Q368 579 311 541T222 439 190 299Q190 217 235 170T364 122Q439 122 496 160Z" glyph-name="O" horiz-adv-x="785" unicode="&#x4f;"/><glyph d="M601 426T566 377 470 298 322 268H205L158 0H17L141 698H398Q505 698 560 651T615 524Q615 501 611 482 601 426 566 377ZM393 378T426 406 468 482Q470 491 470 508 470 587 372 587H262L225 378H336Q393 378 426 406Z" glyph-name="P" horiz-adv-x="608" unicode="&#x50;"/><glyph d="M759 296T708 201 565 52L690-123H516L434 2Q392-7 344-7 256-7 189 30T84 134 47 287Q47 407 100 503T248 653 461 708Q550 708 617 671T722 568 759 416Q759 296 708 201ZM190 217T235 170 364 122Q439 122 496 160T585 262 617 403Q617 485 571 532T442 579Q368 579 311 541T222 439 190 299Q190 217 235 170Z" glyph-name="Q" horiz-adv-x="787" unicode="&#x51;"/><glyph d="M510 698T565 650 620 523Q620 504 617 484 605 416 556 361T423 283L540 0H377L273 272H206L158 0H17L141 698H403Q510 698 565 650ZM475 499T475 505Q475 543 451 564T378 585H261L224 376H341Q397 376 430 404T473 481Q475 499 475 505Z" glyph-name="R" horiz-adv-x="641" unicode="&#x52;"/><glyph d="M177-7T110 40 42 174Q42 183 44 201H187Q183 159 209 132T287 105Q338 105 367 126T397 188Q397 225 367 247T271 296Q211 321 174 342T110 400 83 495Q83 560 116 608T208 682 342 708Q416 708 470 684T552 614 576 509H427L428 520Q428 553 404 574T335 595Q288 595 259 573T230 513Q230 488 246 470T287 438 356 403Q415 377 453 354T518 293 545 200Q545 140 513 93T421 20 282-7Q177-7 110 40Z" glyph-name="S" horiz-adv-x="610" unicode="&#x53;"/><glyph d="M616 698 596 588H411L307 0H166L270 588H84L104 698H616Z" glyph-name="T" horiz-adv-x="577" unicode="&#x54;"/><glyph d="M279 698 203 267Q199 239 199 228 199 176 230 149T318 121Q386 121 429 158T486 267L562 698H703L627 267Q611 177 562 116T444 24 294-7Q188-7 123 48T57 206Q57 234 63 267L139 698H279Z" glyph-name="U" horiz-adv-x="697" unicode="&#x55;"/><glyph d="M236 698 329 143 619 698H768L389 0H219L86 698H236Z" glyph-name="V" horiz-adv-x="711" unicode="&#x56;"/><glyph d="M1074 698 755 0H590L547 497 323 0 159-1 94 698H244L272 156 509 698H665L703 159 923 698H1074Z" glyph-name="W" horiz-adv-x="1024" unicode="&#x57;"/><glyph d="M434 347 596 0H435L326 234 147 0H-11L271 351 110 698H271L380 464 557 698H716L434 347Z" glyph-name="X" horiz-adv-x="686" unicode="&#x58;"/><glyph d="M696 698 380 243 337 0H196L240 243 83 698H241L334 381 538 698H696Z" glyph-name="Y" horiz-adv-x="636" unicode="&#x59;"/><glyph d="M182 118H495L474 0H-2L18 108 412 580H101L122 698H598L578 590 182 118Z" glyph-name="Z" horiz-adv-x="576" unicode="&#x5a;"/><glyph d="M499 932 479 817H360L202-74H321L301-189H50L248 932H499Z" glyph-name="bracketleft" horiz-adv-x="497" unicode="&#x5b;"/><glyph d="M249-181 194 947H330L386-181H249Z" glyph-name="backslash" horiz-adv-x="547" unicode="&#x5c;"/><glyph d="M278-197H27L47-81H166L324 810H205L224 924H475L278-197Z" glyph-name="bracketright" horiz-adv-x="496" unicode="&#x5d;"/><glyph d="M155 167H12L345 700H480L625 167H481L384 534 155 167Z" glyph-name="asciicircum" horiz-adv-x="680" unicode="&#x5e;"/><glyph d="M635-40 612-173H26L49-40H635Z" glyph-name="underscore" horiz-adv-x="790" unicode="&#x5f;"/><glyph d="M311 693 293 593 82 698 102 812 311 693Z" glyph-name="grave" horiz-adv-x="271" unicode="&#x60;"/><glyph d="M46 363T90 428 199 528 334 563Q396 563 438 538T501 475L515 554H656L558 0H417L432 81Q399 42 347 17T232-9Q171-9 124 18T51 96 25 214Q25 245 31 279 46 363 90 428ZM470 303T470 315Q470 374 436 407T349 440Q310 440 274 421T210 366 174 279Q171 260 171 243 171 183 205 149T291 114Q330 114 367 133T430 190 466 277Q470 303 470 315Z" glyph-name="a" horiz-adv-x="678" unicode="&#x61;"/><glyph d="M275 513T327 538 440 563Q502 563 549 537T623 460 649 343Q649 312 643 279 628 194 583 129T474 27 340-9Q278-9 235 15T172 79L158 0H17L148 740H289L242 473Q275 513 327 538ZM503 299T503 315Q503 374 469 407T382 440Q344 440 307 421T243 364 207 277Q203 251 203 239 203 180 237 147T324 114Q363 114 400 134T464 191 500 279Q503 299 503 315Z" glyph-name="b" horiz-adv-x="678" unicode="&#x62;"/><glyph d="M46 363T92 427 206 527 355 563Q458 563 516 512T582 367H431Q425 403 400 423T333 444Q273 444 231 401T174 277Q169 249 169 229 169 172 197 142T275 111Q359 111 399 187H550Q511 97 434 44T255-9Q150-9 88 50T25 212Q25 243 31 277 46 363 92 427Z" glyph-name="c" horiz-adv-x="602" unicode="&#x63;"/><glyph d="M46 363T90 428 199 528 335 563Q389 563 434 540T501 477L548 740H689L558 0H417L432 82Q399 41 348 16T234-9Q173-9 126 18T52 96 25 214Q25 245 31 279 46 363 90 428ZM470 303T470 315Q470 374 436 407T349 440Q310 440 274 421T210 366 174 279Q171 260 171 243 171 183 205 149T291 114Q330 114 367 133T430 190 466 277Q470 303 470 315Z" glyph-name="d" horiz-adv-x="678" unicode="&#x64;"/><glyph d="M465 563T527 505 589 347Q589 315 584 290 578 260 571 238H166Q165 231 165 218 165 166 195 137T276 107Q318 107 348 125T398 174H549Q512 94 435 43T259-9Q153-9 89 51T25 214Q25 244 31 277 46 363 92 428T208 528 359 563Q465 563 527 505ZM447 339T447 346Q447 394 416 421T335 448Q282 448 240 415T181 323H445Q447 339 447 346Z" glyph-name="e" horiz-adv-x="617" unicode="&#x65;"/><glyph d="M154 684T220 732 402 777L382 659Q332 660 308 642T276 577L272 554H369L349 439H252L174 0H33L111 439H47L67 554H131L136 582Q154 684 220 732Z" glyph-name="f" horiz-adv-x="345" unicode="&#x66;"/><glyph d="M396 563T439 539 501 475L515 554H656L558-4Q544-81 502-141T392-237 236-273Q119-273 54-218T-6-68H133Q137-106 169-128T254-151Q316-151 359-115T417-4L432 82Q398 43 347 17T234-9Q173-9 126 18T52 96 25 214Q25 245 31 279 46 363 90 428T199 528 334 563Q396 563 439 539ZM470 303T470 315Q470 374 436 407T349 440Q310 440 274 421T210 366 174 279Q171 260 171 243 171 183 205 149T291 114Q330 114 367 133T430 190 466 277Q470 303 470 315Z" glyph-name="g" horiz-adv-x="678" unicode="&#x67;"/><glyph d="M511 562T559 515 608 383Q608 351 603 325L545 0H406L460 306Q463 324 463 341 463 391 437 417T361 443Q305 443 266 410T214 314L158 0H17L148 740H289L244 486Q278 521 326 541T429 562Q511 562 559 515Z" glyph-name="h" horiz-adv-x="661" unicode="&#x68;"/><glyph d="M165 620T145 639 125 687Q125 727 155 755T227 784Q259 784 279 765T299 717Q299 677 269 649T198 620Q165 620 145 639ZM256 554 158 0H17L115 554H256Z" glyph-name="i" horiz-adv-x="278" unicode="&#x69;"/><glyph d="M165 620T145 638 125 687Q125 727 155 755T227 784Q259 784 279 765T299 717Q299 677 269 649T198 620Q165 620 145 638ZM142-91Q126-183 73-223T-65-264H-127L-106-145H-66Q-34-145-19-133T1-92L115 554H256L142-91Z" glyph-name="j" horiz-adv-x="278" unicode="&#x6a;"/><glyph d="M331 277 527 0H346L200 235 158 0H17L148 740H289L215 320 441 554H624L331 277Z" glyph-name="k" horiz-adv-x="584" unicode="&#x6b;"/><glyph d="M289 740 158 0H17L148 740H289Z" glyph-name="l" horiz-adv-x="278" unicode="&#x6c;"/><glyph d="M893 562T944 515 995 382Q995 350 990 325L932 0H793L847 306Q850 324 850 341 850 389 824 414T748 440Q690 440 650 406T600 306V307L545 0H406L460 306Q463 324 463 340 463 389 436 414T360 440Q305 440 266 408T214 315L158 0H17L115 554H256L244 488Q277 522 323 542T420 562Q485 562 531 535T596 456Q631 504 687 533T805 562Q893 562 944 515Z" glyph-name="m" horiz-adv-x="1048" unicode="&#x6d;"/><glyph d="M509 562T558 516 608 383Q608 351 603 325L545 0H406L460 306Q463 324 463 341 463 391 437 417T361 443Q305 443 266 410T213 313L158 0H17L115 554H256L244 486Q278 521 325 541T423 562Q509 562 558 516Z" glyph-name="n" horiz-adv-x="661" unicode="&#x6e;"/><glyph d="M194-9T140 20 55 102 25 224Q25 318 69 395T191 518 364 563Q435 563 490 534T576 451 607 329Q607 234 562 157T439 36 265-9Q194-9 140 20ZM334 111T375 140 439 217 462 318Q462 378 429 410T344 443Q293 443 254 414T192 337 170 234Q170 175 201 143T284 111Q334 111 375 140Z" glyph-name="o" horiz-adv-x="638" unicode="&#x6f;"/><glyph d="M276 512T327 537 440 563Q502 563 549 537T623 460 649 343Q649 312 643 279 628 194 583 129T474 27 340-9Q279-9 237 16T172 79L112-264H-29L115 554H256L242 474Q276 512 327 537ZM503 299T503 315Q503 374 469 407T382 440Q344 440 307 421T243 364 207 277Q203 251 203 239 203 180 237 147T324 114Q363 114 400 134T464 191 500 279Q503 299 503 315Z" glyph-name="p" horiz-adv-x="678" unicode="&#x70;"/><glyph d="M45 361T91 425 202 526 339 562Q398 562 440 540T502 482L515 554H656L512-264H371L430 76Q396 40 346 16T235-8Q174-8 126 20T51 99 24 217Q24 247 30 278 45 361 91 425ZM469 297T469 314Q469 374 435 407T349 440Q312 440 275 421T211 366 174 278Q171 259 171 241 171 182 206 148T291 114Q329 114 365 133T429 189 466 277Q469 297 469 314Z" glyph-name="q" horiz-adv-x="678" unicode="&#x71;"/><glyph d="M275 506T323 534 427 562L401 415H364Q302 415 265 388T210 296L158 0H17L115 554H256L239 456Q275 506 323 534Z" glyph-name="r" horiz-adv-x="404" unicode="&#x72;"/><glyph d="M173-9T124 11 46 68 17 152Q17 159 19 175H155Q152 140 176 119T244 97Q284 97 310 111T337 154Q337 179 313 194T235 228Q182 247 147 265T87 315 62 396Q62 445 90 483T170 542 287 563Q350 563 398 542T472 484 499 398Q499 386 498 380H368Q371 415 348 436T281 457Q245 457 222 442T199 400Q199 374 225 358T305 321Q359 300 391 283T448 235 472 158Q472 107 441 69T356 11 234-9Q173-9 124 11Z" glyph-name="s" horiz-adv-x="545" unicode="&#x73;"/><glyph d="M211 171Q210 165 210 155 210 135 221 127T260 118H326L305 0H216Q66 0 66 125 66 149 70 172L117 439H51L71 554H138L162 691H303L279 554H402L382 439H258L211 171Z" glyph-name="t" horiz-adv-x="388" unicode="&#x74;"/><glyph d="M638 554 540 0H400L412 70Q380 34 333 14T234-7Q148-7 98 39T48 172Q48 204 53 229L110 554H250L196 249Q193 231 193 214 193 165 220 139T296 112Q353 112 393 147T444 249L498 554H638Z" glyph-name="u" horiz-adv-x="661" unicode="&#x75;"/><glyph d="M271 129 486 554H637L334 0H162L56 554H206L271 129Z" glyph-name="v" horiz-adv-x="599" unicode="&#x76;"/><glyph d="M884 554 624 0H472L440 385 270 0H118L54 554H195L219 132 400 554H548L578 133 749 554H884Z" glyph-name="w" horiz-adv-x="844" unicode="&#x77;"/><glyph d="M346 278 481 0H323L240 171 108 0H-42L188 278 54 554H212L295 383 427 554H577L346 278Z" glyph-name="x" horiz-adv-x="540" unicode="&#x78;"/><glyph d="M208 554 282 167 497 554H646L159-262H10L178 14 51 554H208Z" glyph-name="y" horiz-adv-x="605" unicode="&#x79;"/><glyph d="M167 115H413L392 0H-13L7 113 306 439H65L85 554H487L468 441 167 115Z" glyph-name="z" horiz-adv-x="483" unicode="&#x7a;"/><glyph d="M135 418Q233 427 247 503 255 546 260 627 266 714 274 761 287 839 341 882T472 926H541L521 808H479Q448 808 430 794T406 749Q400 717 395 642 387 548 378 498 369 445 338 410T251 365L250 363Q334 346 334 270 334 247 326 209T297 87Q269-19 269-42 269-80 323-80H364L343-199H274Q207-199 169-166T130-71Q130-24 171 117 182 157 191 193T200 245Q200 303 116 309L135 418Z" glyph-name="braceleft" horiz-adv-x="508" unicode="&#x7b;"/><glyph d="M152-121H11L176 808H316L152-121Z" glyph-name="bar" horiz-adv-x="309" unicode="&#x7c;"/><glyph d="M355 305T327 283 292 224Q286 190 280 104 279 91 276 46T265-34Q252-112 198-155T66-199H-3L18-80H60Q92-80 109-66T132-21Q139 19 144 90 152 180 160 229 169 282 201 317T288 363L289 365Q204 382 204 466 204 482 207 498 213 530 224 575T240 636Q263 718 268 749 270 761 270 766 270 808 216 808H175L195 926H264Q331 926 370 892T409 797Q409 781 406 761 397 713 372 624 348 543 341 503 339 491 339 486 339 457 360 440T423 418L404 309Q355 305 327 283Z" glyph-name="braceright" horiz-adv-x="508" unicode="&#x7d;"/><glyph d="M86 413T231 413Q261 413 283 404T332 376Q352 362 367 355T401 348Q427 348 447 364T478 412H581Q548 316 494 270T369 223Q339 223 317 232T269 260Q246 275 232 281T200 288Q174 288 154 272T122 224H20Q86 413 231 413Z" glyph-name="asciitilde" horiz-adv-x="592" unicode="&#x7e;"/><glyph glyph-name="uni00A0" horiz-adv-x="268" unicode="&#xa0;"/><glyph d="M273 569T293 550 313 502Q313 462 283 434T211 405Q178 405 159 423T139 472Q139 512 169 540T240 569Q273 569 293 550ZM41-148 142 335H261L192-148H41Z" glyph-name="exclamdown" horiz-adv-x="384" unicode="&#xa1;"/><glyph d="M281 405T238 366 182 258Q179 239 179 222 179 169 208 140T291 111Q336 111 367 129T414 182H544Q523 106 457 56T302-2L287-87H223L238-2Q144 6 94 61T44 202Q44 226 49 258 68 366 141 437T329 518L344 603H408L393 518Q479 510 528 460T571 334H442Q437 368 413 386T343 405Q281 405 238 366Z" glyph-name="cent" horiz-adv-x="663" unicode="&#xa2;"/><glyph d="M478 514Q480 532 480 539 480 617 396 617 349 617 316 589T273 503Q270 482 270 462 270 437 276 391H464L447 295H284L281 271Q274 227 250 185T186 109H540L520-3H35L27 69Q79 113 108 158T148 272L151 295H41L58 391H140Q136 427 136 449 136 478 142 514 160 616 234 674T414 733Q512 733 560 685T609 557Q609 537 606 514H478Z" glyph-name="sterling" horiz-adv-x="654" unicode="&#xa3;"/><glyph d="M479 484Q496 453 496 413 496 395 493 377 483 318 442 272L488 216 421 158 369 220Q319 198 263 198 206 198 167 219L95 158 47 216 113 273Q98 303 98 341 98 359 101 377 113 440 153 483L104 541 173 599 226 535Q271 556 328 556 385 556 424 535L499 599 546 541 479 484ZM209 368T209 352Q209 317 228 298T278 279Q314 279 344 304T383 377Q385 386 385 402 385 438 365 457T314 476Q278 476 249 451T211 377Q209 368 209 352Z" glyph-name="currency" horiz-adv-x="561" unicode="&#xa4;"/><glyph d="M495 409H609L592 312 427 310 380 243 378 234H578L561 137H361L337 0H196L221 137H21L37 234H238L240 243 217 311 52 312 69 409H183L83 698H241L332 371 538 698H696L495 409Z" glyph-name="yen" horiz-adv-x="636" unicode="&#xa5;"/><glyph d="M196 808H337L266 409H126L196 808ZM173-121H32L103 278H243L173-121Z" glyph-name="brokenbar" horiz-adv-x="350" unicode="&#xa6;"/><glyph d="M412 530 413 544Q413 575 397 591T347 608Q305 608 280 588T255 531Q255 505 284 484T392 431Q466 399 503 362T541 273Q541 259 538 244 519 138 396 89 455 43 455-20 455-37 453-46 444-94 411-133T323-195 201-218Q114-218 64-179T13-72Q13-52 15-42H155Q154-48 154-58 154-88 170-104T219-120Q257-120 280-104T310-56Q311-52 311-43 311-17 282 4T175 57Q100 89 63 126T25 215Q25 229 28 244 37 296 72 336T170 399Q111 445 111 508 111 525 113 534 122 582 155 621T243 683 365 706Q452 706 502 667T553 560Q553 540 551 530H412ZM263 336T234 321 189 282 173 229Q173 196 198 174T268 152Q323 152 358 184T393 260Q393 293 368 314T299 336Q263 336 234 321Z" glyph-name="section" horiz-adv-x="582" unicode="&#xa7;"/><glyph d="M110 620T94 635 78 674Q78 706 102 729T158 753Q183 753 198 738T213 698Q213 666 190 643T135 620Q110 620 94 635ZM295 620T279 635 263 674Q263 706 287 729T343 753Q368 753 383 738T398 698Q398 666 375 643T320 620Q295 620 279 635Z" glyph-name="dieresis" horiz-adv-x="338" unicode="&#xa8;"/><glyph d="M555 708T621 673 724 573 760 425Q760 386 753 350 735 246 677 165T531 38 340-8Q250-8 184 27T82 127 46 275Q46 314 53 350 71 454 129 535T275 662 466 708Q555 708 621 673ZM368 658T294 620 172 513 108 350Q101 306 101 279 101 169 166 106T349 42Q439 42 512 80T634 188 699 350Q705 388 705 420 705 531 640 594T458 658Q368 658 294 620ZM380 578T325 550 232 471 182 351Q178 328 178 303 178 220 228 172T362 123Q439 123 502 165T596 278H472Q457 250 434 235T377 220Q339 220 318 243T296 312Q296 323 300 351 311 414 344 447T423 481Q455 481 474 466T498 423H621Q617 495 569 536T442 578Q380 578 325 550Z" glyph-name="copyright" horiz-adv-x="785" unicode="&#xa9;"/><glyph d="M80 583T109 624 181 687 269 710Q312 710 340 693T381 646L391 704H498L437 353H330L339 412Q317 382 284 365T206 348Q145 348 106 387T67 490Q67 511 71 530 80 583 109 624ZM362 545T362 551Q362 586 341 606T288 626Q245 626 213 594T180 506Q180 471 201 452T254 432Q291 432 321 458T360 529Q362 545 362 551Z" glyph-name="ordfeminine" horiz-adv-x="462" unicode="&#xaa;"/><glyph d="M103 120 45 295 165 470H297L174 295 235 120H103ZM310 120 253 295 372 470H505L382 295 443 120H310Z" glyph-name="guillemotleft" horiz-adv-x="521" unicode="&#xab;"/><glyph d="M729 438 686 195H545L569 330H43L62 438H729Z" glyph-name="logicalnot" horiz-adv-x="759" unicode="&#xac;"/><glyph d="M518 416 497 298H72L93 416H518Z" glyph-name="uni00AD" horiz-adv-x="583" unicode="&#xad;"/><glyph d="M416 709T464 663 513 539Q513 516 509 496 498 435 463 387T374 312 260 284Q178 284 129 331T80 454Q80 476 84 496 94 558 130 606T219 682 335 709Q416 709 464 663ZM458 516T458 532Q458 590 423 624T326 658Q254 658 203 614T139 496Q136 477 136 460 136 402 171 369T268 335Q340 335 391 379T455 496Q458 516 458 532ZM364 606T381 591 399 549Q399 523 385 504T348 474L384 392H305L276 467H271L258 392H190L228 606H333Q364 606 381 591ZM280 519H309Q316 519 321 522T328 533V535Q328 546 314 546H284L280 519Z" glyph-name="registered" horiz-adv-x="516" unicode="&#xae;"/><glyph d="M470 732 452 632H70L88 732H470Z" glyph-name="overscore" horiz-adv-x="402" unicode="&#xaf;"/><glyph d="M83 608T146 656 296 705Q372 705 417 667T462 562Q462 545 459 527 445 446 382 397T232 347Q155 347 111 385T66 490Q66 508 69 527 83 608 146 656ZM351 535T351 552Q351 589 331 608T281 628Q246 628 216 602T178 526Q176 517 176 500 176 464 195 445T245 426Q280 426 310 452T349 526Q351 535 351 552Z" glyph-name="degree" horiz-adv-x="444" unicode="&#xb0;"/><glyph d="M418 363 397 243H585L562 117H53L75 243H263L284 363H96L118 489H306L330 623H464L441 489H628L605 363H418Z" glyph-name="plusminus" horiz-adv-x="676" unicode="&#xb1;"/><glyph d="M371 564T342 537 250 476L175 437H347L332 352H44L59 432 187 509Q225 533 244 555T264 602Q264 617 256 625T235 633Q203 633 192 596H84Q96 648 142 680T257 712Q317 712 348 685T379 616Q379 605 378 600 371 564 342 537Z" glyph-name="twosuperior" horiz-adv-x="360" unicode="&#xb2;"/><glyph d="M88 650T134 681 251 712Q309 712 344 687T380 621Q380 585 358 562T301 531L300 528Q356 510 356 461 356 429 334 403T273 362 185 347Q117 347 82 373T46 448Q46 458 47 463H156Q155 425 194 425 213 425 226 435T243 464Q244 467 244 473 244 487 233 495T203 503H168L178 560H208Q233 560 248 571T263 606Q263 619 254 626T227 634Q192 634 179 601H77Q88 650 134 681Z" glyph-name="threesuperior" horiz-adv-x="357" unicode="&#xb3;"/><glyph d="M313 698 63 593 81 693 333 812 313 698Z" glyph-name="acute" horiz-adv-x="250" unicode="&#xb4;"/><glyph d="M649 554 551 0H411L426 85Q393 41 344 17T237-7Q193-7 165 12L117-264H-23L121 554H261L207 249Q204 230 204 213 204 165 231 140T307 114Q364 114 403 149T455 249L509 554H649Z" glyph-name="uni00B5" horiz-adv-x="678" unicode="&#xb5;"/><glyph d="M540 0H420L524 590H460L355 0H236L285 278H267Q163 278 113 324T62 446Q62 460 66 488 82 579 152 638T341 698H663L540 0Z" glyph-name="paragraph" horiz-adv-x="666" unicode="&#xb6;"/><glyph d="M52 244T32 263 12 311Q12 351 42 379T114 408Q147 408 166 390T186 341Q186 301 156 273T85 244Q52 244 32 263Z" glyph-name="middot" horiz-adv-x="270" unicode="&#xb7;"/><glyph d="M145-43T176-65 208-130Q208-136 206-152 197-206 154-235T54-264H-88L-73-182H46Q70-182 83-175T100-150Q104-132 93-126T57-119H-5L17 7H105L96-43Q145-43 176-65Z" glyph-name="cedilla" horiz-adv-x="295" unicode="&#xb8;"/><glyph d="M78 622 92 704H257L195 352H87L135 622H78Z" glyph-name="onesuperior" horiz-adv-x="228" unicode="&#xb9;"/><glyph d="M85 609T147 659 296 709Q374 709 420 669T467 562Q467 546 464 528 455 475 423 434T342 370 236 347Q160 347 114 387T67 494Q67 510 70 528 85 609 147 659ZM355 589T335 609 283 629Q247 629 218 603T180 527Q178 511 178 504 178 468 198 448T250 428Q276 428 300 442T340 485 355 552Q355 589 335 609Z" glyph-name="ordmasculine" horiz-adv-x="450" unicode="&#xba;"/><glyph d="M142 295 81 470H213L271 295 151 120H19L142 295ZM349 295 289 470H421L479 295 359 120H227L349 295Z" glyph-name="guillemotright" horiz-adv-x="521" unicode="&#xbb;"/><glyph d="M95 622 109 704H274L212 352H104L152 622H95ZM664 699 158 0H23L531 699H664ZM656 65H613L601 0H494L506 65H315L326 123 515 353H664L624 129H667L656 65ZM547 276 432 130H521L547 276Z" glyph-name="onequarter" horiz-adv-x="730" unicode="&#xbc;"/><glyph d="M152 622H95L109 704H274L212 352H104L152 622ZM659 700 158 0H23L524 700H659ZM753 211T724 184 632 123L557 84H729L714-1H426L441 79 569 156Q607 180 626 202T646 249Q646 264 638 272T617 280Q585 280 574 243H466Q478 295 524 327T639 359Q699 359 730 332T761 263Q761 252 760 247 753 211 724 184Z" glyph-name="onehalf" horiz-adv-x="757" unicode="&#xbd;"/><glyph d="M112 650T158 681 275 712Q333 712 368 687T404 621Q404 585 382 562T325 531L324 528Q380 510 380 461 380 429 358 403T297 362 209 347Q141 347 106 373T70 448Q70 458 71 463H180Q179 425 218 425 237 425 250 435T267 464Q268 467 268 473 268 487 257 495T227 503H192L202 560H232Q257 560 272 571T287 606Q287 619 278 626T251 634Q216 634 203 601H101Q112 650 158 681ZM769 700 251 0H117L635 700H769ZM748 65H706L694 0H586L598 65H408L418 123 602 353H757L717 129H759L748 65ZM640 281 524 129H613L640 281Z" glyph-name="threequarters" horiz-adv-x="811" unicode="&#xbe;"/><glyph d="M425 566T445 547 465 499Q465 459 435 431T363 402Q330 402 311 420T291 469Q291 509 321 537T392 566Q425 566 445 547ZM106-163T53-119 0 5Q0 29 4 49 21 147 93 198T270 250L288 327H410L385 157H340Q252 157 202 134T140 48Q138 34 138 27 138-7 159-26T219-46Q264-46 294-21T333 48H465Q455-13 419-61T326-136 197-163Q106-163 53-119Z" glyph-name="questiondown" horiz-adv-x="538" unicode="&#xbf;"/><glyph d="M469 133H190L121 0H-26L349 699H512L639 0H491L469 133ZM451 242 401 538 247 242H451ZM564 838 546 738 335 843 355 957 564 838Z" glyph-name="Agrave" horiz-adv-x="716" unicode="&#xc0;"/><glyph d="M469 133H190L121 0H-26L349 699H512L639 0H491L469 133ZM451 242 401 538 247 242H451ZM566 843 316 738 334 838 586 957 566 843Z" glyph-name="Aacute" horiz-adv-x="716" unicode="&#xc1;"/><glyph d="M469 133H190L121 0H-26L349 699H512L639 0H491L469 133ZM451 242 401 538 247 242H451ZM454 827 289 740 308 843 471 926 605 843 587 740 454 827Z" glyph-name="Acircumflex" horiz-adv-x="716" unicode="&#xc2;"/><glyph d="M469 133H190L121 0H-26L349 699H512L639 0H491L469 133ZM451 242 401 538 247 242H451ZM281 820T319 852 408 885Q428 885 443 879T475 860Q489 850 499 846T522 841Q560 841 574 884H649Q627 818 589 786T501 753Q480 753 466 759T433 778Q419 788 409 793T386 798Q350 798 335 754H260Q281 820 319 852Z" glyph-name="Atilde" horiz-adv-x="716" unicode="&#xc3;"/><glyph d="M469 133H190L121 0H-26L349 699H512L639 0H491L469 133ZM451 242 401 538 247 242H451ZM325 765T309 780 293 819Q293 851 317 874T373 898Q398 898 413 883T428 843Q428 811 405 788T350 765Q325 765 309 780ZM510 765T494 780 478 819Q478 851 502 874T558 898Q583 898 598 883T613 843Q613 811 590 788T535 765Q510 765 494 780Z" glyph-name="Adieresis" horiz-adv-x="716" unicode="&#xc4;"/><glyph d="M469 133H190L121 0H-26L349 699H512L639 0H491L469 133ZM451 242 401 538 247 242H451ZM355 914T393 945 480 977Q523 977 549 953T576 886Q576 845 557 814T507 765 440 747Q397 747 370 771T343 838Q343 854 345 862 355 914 393 945ZM511 891T499 901 468 912Q447 912 431 899T410 862Q409 859 409 853 409 835 420 824T451 812Q475 812 493 829T511 873Q511 891 499 901Z" glyph-name="Aring" horiz-adv-x="716" unicode="&#xc5;"/><glyph d="M669 589 638 409H869L851 301H619L585 111H847L827 0H425L448 131H202L110 0H-42L453 699H951L931 589H669ZM467 239 530 597 278 239H467Z" glyph-name="AE" horiz-adv-x="937" unicode="&#xc6;"/><glyph d="M415 122T463 147 544 220H705Q656 124 571 66T381-4L374-45Q423-45 454-67T486-132Q486-138 484-154 475-208 432-237T332-266H190L205-184H324Q348-184 361-177T378-152Q382-134 371-128T335-121H273L293-4Q217 4 160 42T71 141 40 279Q40 314 46 350 64 453 124 534T273 661 462 707Q579 707 657 647T751 481H590Q574 529 535 553T439 578Q378 578 326 550T238 470 190 350Q185 318 185 297 185 216 231 169T358 122Q415 122 463 147Z" glyph-name="Ccedilla" horiz-adv-x="768" unicode="&#xc7;"/><glyph d="M262 589 230 408H465L446 300H211L178 111H443L423 0H17L141 699H546L527 589H262ZM473 838 455 738 244 843 264 957 473 838Z" glyph-name="Egrave" horiz-adv-x="532" unicode="&#xc8;"/><glyph d="M262 589 230 408H465L446 300H211L178 111H443L423 0H17L141 699H546L527 589H262ZM475 843 225 738 243 838 495 957 475 843Z" glyph-name="Eacute" horiz-adv-x="532" unicode="&#xc9;"/><glyph d="M262 589 230 408H465L446 300H211L178 111H443L423 0H17L141 699H546L527 589H262ZM362 827 197 740 216 843 379 926 513 843 495 740 362 827Z" glyph-name="Ecircumflex" horiz-adv-x="532" unicode="&#xca;"/><glyph d="M262 589 230 408H465L446 300H211L178 111H443L423 0H17L141 699H546L527 589H262ZM234 765T218 780 202 819Q202 851 226 874T282 898Q307 898 322 883T337 843Q337 811 314 788T259 765Q234 765 218 780ZM419 765T403 780 387 819Q387 851 411 874T467 898Q492 898 507 883T522 843Q522 811 499 788T444 765Q419 765 403 780Z" glyph-name="Edieresis" horiz-adv-x="532" unicode="&#xcb;"/><glyph d="M281 698 158 0H17L141 698H281ZM345 838 327 738 116 843 136 957 345 838Z" glyph-name="Igrave" horiz-adv-x="278" unicode="&#xcc;"/><glyph d="M281 698 158 0H17L141 698H281ZM347 843 97 738 115 838 367 957 347 843Z" glyph-name="Iacute" horiz-adv-x="278" unicode="&#xcd;"/><glyph d="M281 698 158 0H17L141 698H281ZM235 827 70 740 89 843 252 926 386 843 368 740 235 827Z" glyph-name="Icircumflex" horiz-adv-x="278" unicode="&#xce;"/><glyph d="M281 698 158 0H17L141 698H281ZM106 765T90 780 74 819Q74 851 98 874T154 898Q179 898 194 883T209 843Q209 811 186 788T131 765Q106 765 90 780ZM291 765T275 780 259 819Q259 851 283 874T339 898Q364 898 379 883T394 843Q394 811 371 788T316 765Q291 765 275 780Z" glyph-name="Idieresis" horiz-adv-x="278" unicode="&#xcf;"/><glyph d="M491 698T561 665 669 569 707 421Q707 394 700 348 681 243 622 165T472 43 270 0H26L77 287H6L28 409H98L149 698H394Q491 698 561 665ZM561 373T561 406Q561 489 512 535T368 581H270L240 409H406L384 287H218L188 114H286Q395 114 466 176T556 348Q561 373 561 406Z" glyph-name="Eth" horiz-adv-x="726" unicode="&#xd0;"/><glyph d="M615 0H474L243 479 158 0H17L141 699H281L513 219 598 699H738L615 0ZM291 820T329 852 418 885Q438 885 453 879T485 860Q499 850 509 846T532 841Q570 841 584 884H659Q637 818 599 786T511 753Q490 753 476 759T443 778Q429 788 419 793T396 798Q360 798 345 754H270Q291 820 329 852Z" glyph-name="Ntilde" horiz-adv-x="735" unicode="&#xd1;"/><glyph d="M256-7T189 30 84 134 47 287Q47 407 100 503T248 653 461 708Q550 708 617 671T722 568 759 416Q759 294 706 198T558 48 344-7Q256-7 189 30ZM439 122T496 160 585 262 617 403Q617 485 571 532T442 579Q368 579 311 541T222 439 190 299Q190 217 235 170T364 122Q439 122 496 160ZM596 845 578 745 367 850 387 964 596 845Z" glyph-name="Ograve" horiz-adv-x="785" unicode="&#xd2;"/><glyph d="M256-7T189 30 84 134 47 287Q47 407 100 503T248 653 461 708Q550 708 617 671T722 568 759 416Q759 294 706 198T558 48 344-7Q256-7 189 30ZM439 122T496 160 585 262 617 403Q617 485 571 532T442 579Q368 579 311 541T222 439 190 299Q190 217 235 170T364 122Q439 122 496 160ZM598 850 348 745 366 845 618 964 598 850Z" glyph-name="Oacute" horiz-adv-x="785" unicode="&#xd3;"/><glyph d="M256-7T189 30 84 134 47 287Q47 407 100 503T248 653 461 708Q550 708 617 671T722 568 759 416Q759 294 706 198T558 48 344-7Q256-7 189 30ZM439 122T496 160 585 262 617 403Q617 485 571 532T442 579Q368 579 311 541T222 439 190 299Q190 217 235 170T364 122Q439 122 496 160ZM486 834 321 747 340 850 503 933 637 850 619 747 486 834Z" glyph-name="Ocircumflex" horiz-adv-x="785" unicode="&#xd4;"/><glyph d="M256-7T189 30 84 134 47 287Q47 407 100 503T248 653 461 708Q550 708 617 671T722 568 759 416Q759 294 706 198T558 48 344-7Q256-7 189 30ZM439 122T496 160 585 262 617 403Q617 485 571 532T442 579Q368 579 311 541T222 439 190 299Q190 217 235 170T364 122Q439 122 496 160ZM314 827T352 859 441 892Q461 892 476 886T508 867Q522 857 532 853T555 848Q593 848 607 891H682Q660 825 622 793T534 760Q513 760 499 766T466 785Q452 795 442 800T419 805Q383 805 368 761H293Q314 827 352 859Z" glyph-name="Otilde" horiz-adv-x="785" unicode="&#xd5;"/><glyph d="M256-7T189 30 84 134 47 287Q47 407 100 503T248 653 461 708Q550 708 617 671T722 568 759 416Q759 294 706 198T558 48 344-7Q256-7 189 30ZM439 122T496 160 585 262 617 403Q617 485 571 532T442 579Q368 579 311 541T222 439 190 299Q190 217 235 170T364 122Q439 122 496 160ZM357 772T341 787 325 826Q325 858 349 881T405 905Q430 905 445 890T460 850Q460 818 437 795T382 772Q357 772 341 787ZM542 772T526 787 510 826Q510 858 534 881T590 905Q615 905 630 890T645 850Q645 818 622 795T567 772Q542 772 526 787Z" glyph-name="Odieresis" horiz-adv-x="785" unicode="&#xd6;"/><glyph d="M438 360 559 214 451 123 331 269 160 124 84 215 255 361 139 502 246 593 363 452 529 593 605 502 438 360Z" glyph-name="multiply" horiz-adv-x="670" unicode="&#xd7;"/><glyph d="M710 587Q759 515 759 416 759 294 706 198T558 48 344-7Q283-7 231 11T140 64L70 0H-27L97 114Q47 187 47 287 47 407 100 503T248 653 461 708Q523 708 575 690T667 637L736 700H833L710 587ZM190 249T206 214L562 540Q517 579 442 579 368 579 311 541T222 439 190 299Q190 249 206 214ZM617 452T601 487L245 161Q290 122 364 122 439 122 496 160T585 262 617 403Q617 452 601 487Z" glyph-name="Oslash" horiz-adv-x="785" unicode="&#xd8;"/><glyph d="M279 698 203 267Q199 239 199 228 199 176 230 149T318 121Q386 121 429 158T486 267L562 698H703L627 267Q611 177 562 116T444 24 294-7Q188-7 123 48T57 206Q57 234 63 267L139 698H279ZM554 838 536 738 325 843 345 957 554 838Z" glyph-name="Ugrave" horiz-adv-x="697" unicode="&#xd9;"/><glyph d="M279 698 203 267Q199 239 199 228 199 176 230 149T318 121Q386 121 429 158T486 267L562 698H703L627 267Q611 177 562 116T444 24 294-7Q188-7 123 48T57 206Q57 234 63 267L139 698H279ZM556 843 306 738 324 838 576 957 556 843Z" glyph-name="Uacute" horiz-adv-x="697" unicode="&#xda;"/><glyph d="M279 698 203 267Q199 239 199 228 199 176 230 149T318 121Q386 121 429 158T486 267L562 698H703L627 267Q611 177 562 116T444 24 294-7Q188-7 123 48T57 206Q57 234 63 267L139 698H279ZM444 827 279 740 298 843 461 926 595 843 577 740 444 827Z" glyph-name="Ucircumflex" horiz-adv-x="697" unicode="&#xdb;"/><glyph d="M279 698 203 267Q199 239 199 228 199 176 230 149T318 121Q386 121 429 158T486 267L562 698H703L627 267Q611 177 562 116T444 24 294-7Q188-7 123 48T57 206Q57 234 63 267L139 698H279ZM316 765T300 780 284 819Q284 851 308 874T364 898Q389 898 404 883T419 843Q419 811 396 788T341 765Q316 765 300 780ZM501 765T485 780 469 819Q469 851 493 874T549 898Q574 898 589 883T604 843Q604 811 581 788T526 765Q501 765 485 780Z" glyph-name="Udieresis" horiz-adv-x="697" unicode="&#xdc;"/><glyph d="M696 698 380 243 337 0H196L240 243 83 698H241L334 381 538 698H696ZM526 843 276 738 294 838 546 957 526 843Z" glyph-name="Yacute" horiz-adv-x="636" unicode="&#xdd;"/><glyph d="M578 294T543 246 447 168 299 138H182L158 0H17L141 699H280L256 563H374Q481 563 536 516T592 391Q592 378 588 350 578 294 543 246ZM369 245T402 273 445 350Q447 359 447 375 447 455 349 455H239L201 245H312Q369 245 402 273Z" glyph-name="Thorn" horiz-adv-x="608" unicode="&#xde;"/><glyph d="M117 648T194 709 400 771Q469 771 517 751T590 696 615 619Q615 564 585 525T504 443Q477 421 466 409T454 385Q454 371 470 360T542 328Q604 305 631 271T659 182Q659 126 628 82T543 14 421-10Q330-10 279 34T227 155Q227 169 228 177H363Q359 139 377 118T434 96Q473 96 494 113T516 165Q516 187 500 202T442 232Q371 258 340 285T308 354Q308 391 330 419T396 486Q434 519 452 541T471 591Q471 621 447 637T378 654Q315 654 282 624T237 535L143 0H3L100 549Q117 648 194 709Z" glyph-name="germandbls" horiz-adv-x="704" unicode="&#xdf;"/><glyph d="M46 363T90 428 199 528 334 563Q396 563 438 538T501 475L515 554H656L558 0H417L432 81Q399 42 347 17T232-9Q171-9 124 18T51 96 25 214Q25 245 31 279 46 363 90 428ZM470 303T470 315Q470 374 436 407T349 440Q310 440 274 421T210 366 174 279Q171 260 171 243 171 183 205 149T291 114Q330 114 367 133T430 190 466 277Q470 303 470 315ZM521 693 503 593 292 698 312 812 521 693Z" glyph-name="agrave" horiz-adv-x="678" unicode="&#xe0;"/><glyph d="M46 363T90 428 199 528 334 563Q396 563 438 538T501 475L515 554H656L558 0H417L432 81Q399 42 347 17T232-9Q171-9 124 18T51 96 25 214Q25 245 31 279 46 363 90 428ZM470 303T470 315Q470 374 436 407T349 440Q310 440 274 421T210 366 174 279Q171 260 171 243 171 183 205 149T291 114Q330 114 367 133T430 190 466 277Q470 303 470 315ZM523 698 273 593 291 693 543 812 523 698Z" glyph-name="aacute" horiz-adv-x="678" unicode="&#xe1;"/><glyph d="M46 363T90 428 199 528 334 563Q396 563 438 538T501 475L515 554H656L558 0H417L432 81Q399 42 347 17T232-9Q171-9 124 18T51 96 25 214Q25 245 31 279 46 363 90 428ZM470 303T470 315Q470 374 436 407T349 440Q310 440 274 421T210 366 174 279Q171 260 171 243 171 183 205 149T291 114Q330 114 367 133T430 190 466 277Q470 303 470 315ZM410 682 245 595 264 698 427 781 561 698 543 595 410 682Z" glyph-name="acircumflex" horiz-adv-x="678" unicode="&#xe2;"/><glyph d="M46 363T90 428 199 528 334 563Q396 563 438 538T501 475L515 554H656L558 0H417L432 81Q399 42 347 17T232-9Q171-9 124 18T51 96 25 214Q25 245 31 279 46 363 90 428ZM470 303T470 315Q470 374 436 407T349 440Q310 440 274 421T210 366 174 279Q171 260 171 243 171 183 205 149T291 114Q330 114 367 133T430 190 466 277Q470 303 470 315ZM238 675T276 707 365 740Q385 740 400 734T432 715Q446 705 456 701T479 696Q517 696 531 739H606Q584 673 546 641T458 608Q437 608 423 614T390 633Q376 643 366 648T343 653Q307 653 292 609H217Q238 675 276 707Z" glyph-name="atilde" horiz-adv-x="678" unicode="&#xe3;"/><glyph d="M46 363T90 428 199 528 334 563Q396 563 438 538T501 475L515 554H656L558 0H417L432 81Q399 42 347 17T232-9Q171-9 124 18T51 96 25 214Q25 245 31 279 46 363 90 428ZM470 303T470 315Q470 374 436 407T349 440Q310 440 274 421T210 366 174 279Q171 260 171 243 171 183 205 149T291 114Q330 114 367 133T430 190 466 277Q470 303 470 315ZM282 620T266 635 250 674Q250 706 274 729T330 753Q355 753 370 738T385 698Q385 666 362 643T307 620Q282 620 266 635ZM467 620T451 635 435 674Q435 706 459 729T515 753Q540 753 555 738T570 698Q570 666 547 643T492 620Q467 620 451 635Z" glyph-name="adieresis" horiz-adv-x="678" unicode="&#xe4;"/><glyph d="M46 363T90 428 199 528 334 563Q396 563 438 538T501 475L515 554H656L558 0H417L432 81Q399 42 347 17T232-9Q171-9 124 18T51 96 25 214Q25 245 31 279 46 363 90 428ZM470 303T470 315Q470 374 436 407T349 440Q310 440 274 421T210 366 174 279Q171 260 171 243 171 183 205 149T291 114Q330 114 367 133T430 190 466 277Q470 303 470 315ZM311 769T349 800 436 832Q479 832 505 808T532 741Q532 700 513 669T463 620 396 602Q353 602 326 626T299 693Q299 709 301 717 311 769 349 800ZM467 746T455 756 424 767Q403 767 387 754T366 717Q365 714 365 708 365 690 376 679T407 667Q431 667 449 684T467 728Q467 746 455 756Z" glyph-name="aring" horiz-adv-x="678" unicode="&#xe5;"/><glyph d="M936 563T993 505 1050 349Q1050 316 1045 290 1041 267 1031 238H604Q601 175 636 141T724 107Q772 107 806 125T858 174H1010Q972 93 901 42T738-9Q678-9 633 16T568 82L553 0H418L433 82Q395 41 344 16T234-9Q173-9 126 18T52 96 25 214Q25 245 31 279 46 364 91 428T201 528 339 563Q397 563 438 541T502 476L516 554H651L637 476Q679 521 729 542T839 563Q936 563 993 505ZM908 337T908 344Q908 392 874 420T786 448Q731 448 685 415T619 323H906Q908 337 908 344ZM470 303T470 315Q470 374 436 407T349 440Q310 440 274 421T210 366 174 279Q171 260 171 243 171 183 205 149T291 114Q330 114 367 133T430 190 466 277Q470 303 470 315Z" glyph-name="ae" horiz-adv-x="1077" unicode="&#xe6;"/><glyph d="M359 111T399 187H550Q515 106 450 55T297-6L290-45Q339-45 370-67T402-132Q402-138 400-154 391-208 348-237T248-266H106L121-184H240Q264-184 277-177T294-152Q298-134 287-128T251-121H189L209-6Q123 7 74 64T25 212Q25 243 31 277 46 363 92 427T206 527 355 563Q458 563 516 512T582 367H431Q425 403 400 423T333 444Q273 444 231 401T174 277Q169 249 169 229 169 172 197 142T275 111Q359 111 399 187Z" glyph-name="ccedilla" horiz-adv-x="602" unicode="&#xe7;"/><glyph d="M465 563T527 505 589 347Q589 315 584 290 578 260 571 238H166Q165 231 165 218 165 166 195 137T276 107Q318 107 348 125T398 174H549Q512 94 435 43T259-9Q153-9 89 51T25 214Q25 244 31 277 46 363 92 428T208 528 359 563Q465 563 527 505ZM447 339T447 346Q447 394 416 421T335 448Q282 448 240 415T181 323H445Q447 339 447 346ZM492 693 474 593 263 698 283 812 492 693Z" glyph-name="egrave" horiz-adv-x="617" unicode="&#xe8;"/><glyph d="M465 563T527 505 589 347Q589 315 584 290 578 260 571 238H166Q165 231 165 218 165 166 195 137T276 107Q318 107 348 125T398 174H549Q512 94 435 43T259-9Q153-9 89 51T25 214Q25 244 31 277 46 363 92 428T208 528 359 563Q465 563 527 505ZM447 339T447 346Q447 394 416 421T335 448Q282 448 240 415T181 323H445Q447 339 447 346ZM494 698 244 593 262 693 514 812 494 698Z" glyph-name="eacute" horiz-adv-x="617" unicode="&#xe9;"/><glyph d="M465 563T527 505 589 347Q589 315 584 290 578 260 571 238H166Q165 231 165 218 165 166 195 137T276 107Q318 107 348 125T398 174H549Q512 94 435 43T259-9Q153-9 89 51T25 214Q25 244 31 277 46 363 92 428T208 528 359 563Q465 563 527 505ZM447 339T447 346Q447 394 416 421T335 448Q282 448 240 415T181 323H445Q447 339 447 346ZM382 682 217 595 236 698 399 781 533 698 515 595 382 682Z" glyph-name="ecircumflex" horiz-adv-x="617" unicode="&#xea;"/><glyph d="M465 563T527 505 589 347Q589 315 584 290 578 260 571 238H166Q165 231 165 218 165 166 195 137T276 107Q318 107 348 125T398 174H549Q512 94 435 43T259-9Q153-9 89 51T25 214Q25 244 31 277 46 363 92 428T208 528 359 563Q465 563 527 505ZM447 339T447 346Q447 394 416 421T335 448Q282 448 240 415T181 323H445Q447 339 447 346ZM253 620T237 635 221 674Q221 706 245 729T301 753Q326 753 341 738T356 698Q356 666 333 643T278 620Q253 620 237 635ZM438 620T422 635 406 674Q406 706 430 729T486 753Q511 753 526 738T541 698Q541 666 518 643T463 620Q438 620 422 635Z" glyph-name="edieresis" horiz-adv-x="617" unicode="&#xeb;"/><glyph d="M262 554 164 0H23L121 554H262ZM325 693 307 593 96 698 116 812 325 693Z" glyph-name="igrave" horiz-adv-x="290" unicode="&#xec;"/><glyph d="M262 554 164 0H23L121 554H262ZM327 698 77 593 95 693 347 812 327 698Z" glyph-name="iacute" horiz-adv-x="290" unicode="&#xed;"/><glyph d="M262 554 164 0H23L121 554H262ZM471 682 306 595 325 698 488 781 622 698 604 595 471 682Z" glyph-name="icircumflex" horiz-adv-x="290" unicode="&#xee;"/><glyph d="M262 554 164 0H23L121 554H262ZM342 620T326 635 310 674Q310 706 334 729T390 753Q415 753 430 738T445 698Q445 666 422 643T367 620Q342 620 326 635ZM527 620T511 635 495 674Q495 706 519 729T575 753Q600 753 615 738T630 698Q630 666 607 643T552 620Q527 620 511 635Z" glyph-name="idieresis" horiz-adv-x="290" unicode="&#xef;"/><glyph d="M544 656Q617 541 617 405 617 365 609 317 591 213 541 140T419 29 265-8Q195-8 141 19T56 98 26 219Q26 252 31 278 46 363 93 427T209 527 353 562Q431 562 485 517 469 576 438 624L316 588 328 652 403 674Q381 702 343 740H478L508 706 625 741 614 677 544 656ZM463 296T463 318Q463 378 429 410T345 443Q286 443 237 400T174 277Q170 247 170 236 170 176 203 144T286 111Q324 111 360 129T422 185 459 277Q463 296 463 318Z" glyph-name="eth" horiz-adv-x="638" unicode="&#xf0;"/><glyph d="M509 562T558 516 608 383Q608 351 603 325L545 0H406L460 306Q463 324 463 341 463 391 437 417T361 443Q305 443 266 410T213 313L158 0H17L115 554H256L244 486Q278 521 325 541T423 562Q509 562 558 516ZM244 675T282 707 371 740Q391 740 406 734T438 715Q452 705 462 701T485 696Q523 696 537 739H612Q590 673 552 641T464 608Q443 608 429 614T396 633Q382 643 372 648T349 653Q313 653 298 609H223Q244 675 282 707Z" glyph-name="ntilde" horiz-adv-x="661" unicode="&#xf1;"/><glyph d="M194-9T140 20 55 102 25 224Q25 318 69 395T191 518 364 563Q435 563 490 534T576 451 607 329Q607 234 562 157T439 36 265-9Q194-9 140 20ZM334 111T375 140 439 217 462 318Q462 378 429 410T344 443Q293 443 254 414T192 337 170 234Q170 175 201 143T284 111Q334 111 375 140ZM498 702 480 602 269 707 289 821 498 702Z" glyph-name="ograve" horiz-adv-x="638" unicode="&#xf2;"/><glyph d="M194-9T140 20 55 102 25 224Q25 318 69 395T191 518 364 563Q435 563 490 534T576 451 607 329Q607 234 562 157T439 36 265-9Q194-9 140 20ZM334 111T375 140 439 217 462 318Q462 378 429 410T344 443Q293 443 254 414T192 337 170 234Q170 175 201 143T284 111Q334 111 375 140ZM500 707 250 602 268 702 520 821 500 707Z" glyph-name="oacute" horiz-adv-x="638" unicode="&#xf3;"/><glyph d="M194-9T140 20 55 102 25 224Q25 318 69 395T191 518 364 563Q435 563 490 534T576 451 607 329Q607 234 562 157T439 36 265-9Q194-9 140 20ZM334 111T375 140 439 217 462 318Q462 378 429 410T344 443Q293 443 254 414T192 337 170 234Q170 175 201 143T284 111Q334 111 375 140ZM388 691 223 604 242 707 405 790 539 707 521 604 388 691Z" glyph-name="ocircumflex" horiz-adv-x="638" unicode="&#xf4;"/><glyph d="M194-9T140 20 55 102 25 224Q25 318 69 395T191 518 364 563Q435 563 490 534T576 451 607 329Q607 234 562 157T439 36 265-9Q194-9 140 20ZM334 111T375 140 439 217 462 318Q462 378 429 410T344 443Q293 443 254 414T192 337 170 234Q170 175 201 143T284 111Q334 111 375 140ZM215 684T253 716 342 749Q362 749 377 743T409 724Q423 714 433 710T456 705Q494 705 508 748H583Q561 682 523 650T435 617Q414 617 400 623T367 642Q353 652 343 657T320 662Q284 662 269 618H194Q215 684 253 716Z" glyph-name="otilde" horiz-adv-x="638" unicode="&#xf5;"/><glyph d="M194-9T140 20 55 102 25 224Q25 318 69 395T191 518 364 563Q435 563 490 534T576 451 607 329Q607 234 562 157T439 36 265-9Q194-9 140 20ZM334 111T375 140 439 217 462 318Q462 378 429 410T344 443Q293 443 254 414T192 337 170 234Q170 175 201 143T284 111Q334 111 375 140ZM259 629T243 644 227 683Q227 715 251 738T307 762Q332 762 347 747T362 707Q362 675 339 652T284 629Q259 629 243 644ZM444 629T428 644 412 683Q412 715 436 738T492 762Q517 762 532 747T547 707Q547 675 524 652T469 629Q444 629 428 644Z" glyph-name="odieresis" horiz-adv-x="638" unicode="&#xf6;"/><glyph d="M327 496T307 515 287 563Q287 603 317 631T389 660Q422 660 441 642T461 593Q461 553 431 525T360 496Q327 496 307 515ZM606 419 584 294H73L96 419H606ZM240 55T220 74 200 122Q200 162 230 190T302 219Q335 219 354 201T374 152Q374 112 344 84T273 55Q240 55 220 74Z" glyph-name="divide" horiz-adv-x="648" unicode="&#xf7;"/><glyph d="M564 467Q605 409 605 329 605 234 560 157T437 36 263-9Q167-9 103 44L55 0H-30L64 86Q23 142 23 224 23 318 67 395T189 518 362 563Q411 563 452 549T525 509L574 554H659L564 467ZM168 208T174 187L422 415Q391 443 342 443 291 443 252 414T190 337 168 234Q168 208 174 187ZM460 345T453 365L205 138Q235 111 282 111 332 111 373 140T437 217 460 318Q460 345 453 365Z" glyph-name="oslash" horiz-adv-x="634" unicode="&#xf8;"/><glyph d="M638 554 540 0H400L412 70Q380 34 333 14T234-7Q148-7 98 39T48 172Q48 204 53 229L110 554H250L196 249Q193 231 193 214 193 165 220 139T296 112Q353 112 393 147T444 249L498 554H638ZM511 693 493 593 282 698 302 812 511 693Z" glyph-name="ugrave" horiz-adv-x="661" unicode="&#xf9;"/><glyph d="M638 554 540 0H400L412 70Q380 34 333 14T234-7Q148-7 98 39T48 172Q48 204 53 229L110 554H250L196 249Q193 231 193 214 193 165 220 139T296 112Q353 112 393 147T444 249L498 554H638ZM513 698 263 593 281 693 533 812 513 698Z" glyph-name="uacute" horiz-adv-x="661" unicode="&#xfa;"/><glyph d="M638 554 540 0H400L412 70Q380 34 333 14T234-7Q148-7 98 39T48 172Q48 204 53 229L110 554H250L196 249Q193 231 193 214 193 165 220 139T296 112Q353 112 393 147T444 249L498 554H638ZM400 682 235 595 254 698 417 781 551 698 533 595 400 682Z" glyph-name="ucircumflex" horiz-adv-x="661" unicode="&#xfb;"/><glyph d="M638 554 540 0H400L412 70Q380 34 333 14T234-7Q148-7 98 39T48 172Q48 204 53 229L110 554H250L196 249Q193 231 193 214 193 165 220 139T296 112Q353 112 393 147T444 249L498 554H638ZM272 620T256 635 240 674Q240 706 264 729T320 753Q345 753 360 738T375 698Q375 666 352 643T297 620Q272 620 256 635ZM457 620T441 635 425 674Q425 706 449 729T505 753Q530 753 545 738T560 698Q560 666 537 643T482 620Q457 620 441 635Z" glyph-name="udieresis" horiz-adv-x="661" unicode="&#xfc;"/><glyph d="M208 554 282 167 497 554H646L159-262H10L178 14 51 554H208ZM485 698 235 593 253 693 505 812 485 698Z" glyph-name="yacute" horiz-adv-x="605" unicode="&#xfd;"/><glyph d="M276 512T326 537 436 562Q498 562 546 535T621 457 648 339Q648 310 642 278 627 195 582 130T472 28 336-8Q276-8 235 19T174 93L112-264H-29L148 740H289L241 468Q276 512 326 537ZM503 298T503 315Q503 374 468 407T382 440Q345 440 308 421T244 365 207 277Q204 258 204 240 204 181 239 148T324 114Q362 114 399 133T463 189 500 278Q503 298 503 315Z" glyph-name="thorn" horiz-adv-x="678" unicode="&#xfe;"/><glyph d="M208 554 282 167 497 554H646L159-262H10L178 14 51 554H208ZM244 620T228 635 212 674Q212 706 236 729T292 753Q317 753 332 738T347 698Q347 666 324 643T269 620Q244 620 228 635ZM429 620T413 635 397 674Q397 706 421 729T477 753Q502 753 517 738T532 698Q532 666 509 643T454 620Q429 620 413 635Z" glyph-name="ydieresis" horiz-adv-x="605" unicode="&#xff;"/><glyph d="M646 416 625 298H81L102 416H646Z" glyph-name="endash" horiz-adv-x="702" unicode="&#x2013;"/><glyph d="M870 416 849 298H81L102 416H870Z" glyph-name="emdash" horiz-adv-x="927" unicode="&#x2014;"/><glyph d="M196 446H48L201 698H297L196 446Z" glyph-name="quoteleft" horiz-adv-x="275" unicode="&#x2018;"/><glyph d="M184 698H331L179 446H82L184 698Z" glyph-name="quoteright" horiz-adv-x="275" unicode="&#x2019;"/><glyph d="M50 149H197L44-103H-52L50 149Z" glyph-name="quotesinglbase" horiz-adv-x="253" unicode="&#x201a;"/><glyph d="M196 446H48L201 698H297L196 446ZM401 446H253L406 698H502L401 446Z" glyph-name="quotedblleft" horiz-adv-x="480" unicode="&#x201c;"/><glyph d="M184 698H331L179 446H82L184 698ZM389 698H536L384 446H287L389 698Z" glyph-name="quotedblright" horiz-adv-x="480" unicode="&#x201d;"/><glyph d="M50 149H197L44-103H-52L50 149ZM256 149H404L251-103H155L256 149Z" glyph-name="quotedblbase" horiz-adv-x="460" unicode="&#x201e;"/><glyph d="M171 194T138 226 105 309Q105 353 128 391T190 451 272 473Q324 473 357 441T390 359Q390 315 367 277T304 217 222 194Q171 194 138 226Z" glyph-name="bullet" horiz-adv-x="480" unicode="&#x2022;"/><glyph d="M103 120 45 295 165 470H297L174 295 235 120H103Z" glyph-name="guilsinglleft" horiz-adv-x="316" unicode="&#x2039;"/><glyph d="M142 295 81 470H213L271 295 151 120H19L142 295Z" glyph-name="guilsinglright" horiz-adv-x="316" unicode="&#x203a;"/></font>
</defs>
</svg>
