<svg xmlns="http://www.w3.org/2000/svg"><defs><font horiz-adv-x="886"><font-face alphabetic="0" ascent="1050" descent="-350" panose-1="0 0 10 0 0 0 0 0 0 0"/><glyph glyph-name="space" horiz-adv-x="170" unicode="&#x20;"/><glyph d="M432 755 323 281H133L190 755H432ZM125-8T96 17 66 82Q66 117 85 147T139 194 216 212Q267 212 296 187T325 121Q325 86 306 57T253 10 177-8Q125-8 96 17Z" glyph-name="exclam" horiz-adv-x="455" unicode="&#x21;"/><glyph d="M312 803 257 568H109L137 803H312ZM537 803 482 568H334L362 803H537Z" glyph-name="quotedbl" horiz-adv-x="490" unicode="&#x26;&#x71;&#x75;&#x6f;&#x74;&#x3b;"/><glyph d="M789 421 752 326H863L827 124H673L625 0H419L467 124H328L280 0H75L123 124H-18L18 326H202L239 421H103L138 623H318L364 740H569L523 623H662L708 740H914L868 623H983L948 421H789ZM583 421H444L407 326H546L583 421Z" glyph-name="numbersign" horiz-adv-x="933" unicode="&#x23;"/><glyph d="M423 491Q426 528 407 543L390 445 420 435Q483 415 525 396T597 340 628 248Q628 237 624 209 613 149 572 101T464 24 310-7L296-87H234L248-5Q143 5 82 56T20 197Q20 207 22 227H258Q254 186 279 171L297 269Q222 290 179 307T100 362 65 463Q65 484 69 504 81 569 125 616T235 690 376 719L390 800H452L438 719Q546 711 605 661T664 522Q664 513 662 491H423ZM308 486T332 470L346 550Q328 547 318 536T308 507Q308 486 332 470ZM387 231T355 248L340 162Q361 165 374 178T387 211Q387 231 355 248Z" glyph-name="dollar" horiz-adv-x="665" unicode="&#x24;"/><glyph d="M81 628T139 674 278 721Q347 721 388 686T429 584Q429 561 425 540 410 452 353 406T215 360Q145 360 103 395T61 498Q61 520 65 540 81 628 139 674ZM817 711 318 0H106L605 711H817ZM220 592T210 540Q208 526 208 521 208 489 235 489 253 489 265 502T281 540Q283 554 283 559 283 592 254 592 220 592 210 540ZM513 259T571 305 709 352Q779 352 819 317T860 215Q860 192 856 171 841 83 784 37T646-10Q577-10 535 25T493 129Q493 151 497 171 513 259 571 305ZM669 223T657 210 641 171Q639 157 639 152 639 119 667 119 684 119 696 132T712 171Q714 185 714 189 714 223 686 223 669 223 657 210Z" glyph-name="percent" horiz-adv-x="896" unicode="&#x25;"/><glyph d="M706 234T640 162L779 0H535L494 46Q390-10 263-10 185-10 127 12T38 76 7 172Q7 246 54 305T182 402Q153 448 153 493 153 558 189 607T287 684 428 711Q531 711 586 667T641 555Q641 541 638 524H436Q437 527 437 533 437 547 427 554T404 562Q386 562 373 551T360 519Q360 487 391 452L525 296Q545 326 561 357L565 366H780L766 340Q706 234 640 162ZM344 165T379 175L280 286Q259 271 247 253T235 217Q235 195 255 180T312 165Q344 165 379 175Z" glyph-name="ampersand" horiz-adv-x="837" unicode="&#x26;&#x61;&#x6d;&#x70;&#x3b;"/><glyph d="M312 803 257 568H109L137 803H312Z" glyph-name="quotesingle" horiz-adv-x="265" unicode="&#x26;&#x61;&#x70;&#x6f;&#x73;&#x3b;"/><glyph d="M112-161T80-60 48 164Q48 298 87 436T198 695 369 895H583L579 874Q484 789 413 678T303 442 263 193Q263 77 295-27T388-209L385-229H171Q112-161 80-60Z" glyph-name="parenleft" horiz-adv-x="463" unicode="&#x28;"/><glyph d="M-102-229-99-209Q-4-125 68-14T179 223 218 472Q218 588 186 692T92 874L96 895H310Q369 827 401 726T433 502Q433 368 394 230T283-29 112-229H-102Z" glyph-name="parenright" horiz-adv-x="463" unicode="&#x29;"/><glyph d="M495 709 541 588 424 552 529 518 433 391 361 477 369 360H230L278 477 178 390 126 519 243 555 140 587 228 708 305 625 295 744H437L387 625 495 709Z" glyph-name="asterisk" horiz-adv-x="561" unicode="&#x2a;"/><glyph d="M523 238H374L347 85H134L161 238H12L48 441H197L224 595H437L410 441H559L523 238Z" glyph-name="plus" horiz-adv-x="551" unicode="&#x2b;"/><glyph d="M290 185 133-118H-13L70 185H290Z" glyph-name="comma" horiz-adv-x="348" unicode="&#x2c;"/><glyph d="M513 433 480 250H14L47 433H513Z" glyph-name="hyphen" horiz-adv-x="576" unicode="&#x2d;"/><glyph d="M57-8T28 17-2 82Q-2 117 17 147T71 194 148 212Q199 212 228 187T257 121Q257 86 238 57T185 10 109-8Q57-8 28 17Z" glyph-name="period" horiz-adv-x="319" unicode="&#x2e;"/><glyph d="M561 955 92-198H-121L349 955H561Z" glyph-name="slash" horiz-adv-x="399" unicode="&#x2f;"/><glyph d="M75 527T166 624 409 721Q535 721 595 654T656 467Q656 416 646 363 617 199 526 102T283 4Q157 4 97 71T36 259Q36 301 46 363 75 527 166 624ZM435 403T435 435Q435 511 372 511 322 511 300 473T264 363Q256 321 256 291 256 254 270 234T320 214Q369 214 391 253T427 363Q435 403 435 435Z" glyph-name="zero" horiz-adv-x="662" unicode="&#x30;"/><glyph d="M48 500 85 708H424L299 0H66L154 500H48Z" glyph-name="one" horiz-adv-x="399" unicode="&#x31;"/><glyph d="M158 276T248 353 349 491Q351 505 351 509 351 541 323 541 303 541 292 524T271 458H56Q85 595 172 661T373 727Q483 727 533 680T583 557Q583 543 579 513 562 418 485 334T300 189H529L497 10H-20L9 177Q158 276 248 353Z" glyph-name="two" horiz-adv-x="566" unicode="&#x32;"/><glyph d="M108 621T185 684 385 747Q489 747 544 701T600 580Q600 563 597 543 585 473 545 433T461 380V376Q554 339 554 246 554 229 551 209 534 111 457 52T266-7Q152-7 89 40T26 190Q26 214 31 249H247Q243 233 243 218 243 176 288 176 309 176 324 193T340 238Q340 260 323 271T268 282H231L263 461H299Q366 457 376 515 377 520 377 530 377 564 348 564 326 564 316 547T300 502H84Q108 621 185 684Z" glyph-name="three" horiz-adv-x="615" unicode="&#x33;"/><glyph d="M22 110 54 295 427 720H666L593 302H665L631 110H559L539 0H315L335 110H22ZM416 467 279 302H387L416 467Z" glyph-name="four" horiz-adv-x="704" unicode="&#x34;"/><glyph d="M629 536H339L324 452Q372 489 448 489 534 489 577 440T620 310Q620 285 615 253 593 133 514 67T317 0Q204 0 142 50T80 185Q80 206 85 234H301L300 225Q300 211 309 201T340 190Q365 190 380 208T401 257Q403 269 403 274 403 295 392 305T359 316Q338 316 326 306T310 283H94L173 731H663L629 536Z" glyph-name="five" horiz-adv-x="660" unicode="&#x35;"/><glyph d="M405 539T396 553 362 567Q324 567 305 529T271 409Q295 437 331 453T411 469Q493 469 540 426T587 299Q587 271 581 239 561 126 480 60T280-7Q157-7 105 53T52 223Q52 284 66 360 90 496 132 580T242 704 407 744Q514 744 564 689T614 547Q614 522 612 509H405Q405 539 396 553ZM296 299T276 280 256 227Q256 205 269 194T306 183Q334 183 352 197T375 242Q376 246 376 254 376 276 363 287T326 299Q296 299 276 280Z" glyph-name="six" horiz-adv-x="633" unicode="&#x36;"/><glyph d="M550 554 208 0H-20L319 527H63L97 717H579L550 554Z" glyph-name="seven" horiz-adv-x="512" unicode="&#x37;"/><glyph d="M109 441T109 516Q109 534 112 553 121 603 158 649T261 726 412 756Q490 756 542 732T618 668 643 583Q643 568 640 553 622 451 528 402 602 354 602 267 602 245 598 225 585 149 537 96T421 16 276-11Q171-11 103 39T34 180Q34 204 38 225 59 343 170 402 109 441 109 516ZM360 576T344 560 323 515Q321 503 321 498 321 477 331 467T359 456Q379 456 394 471T415 515Q417 527 417 532 417 553 407 564T380 576Q360 576 344 560ZM298 307T276 283 254 224Q254 200 267 185T308 170Q343 170 364 194T386 253Q386 278 372 292T332 307Q298 307 276 283Z" glyph-name="eight" horiz-adv-x="657" unicode="&#x38;"/><glyph d="M245 198T255 184 290 170Q327 170 345 207T378 328Q355 300 319 284T239 268Q157 268 110 311T62 439Q62 467 68 498 88 611 169 677T369 744Q493 744 546 686T599 519Q599 463 586 387 551 191 475 92T259-7Q184-7 134 21T59 96 35 199Q35 208 37 228H244Q245 198 255 184ZM354 438T374 457 394 510Q394 532 381 543T344 554Q316 554 298 540T275 495Q274 490 274 482 274 461 287 450T324 438Q354 438 374 457Z" glyph-name="nine" horiz-adv-x="597" unicode="&#x39;"/><glyph d="M57-8T28 17-2 82Q-2 117 17 147T71 194 148 212Q199 212 228 187T257 121Q257 86 238 57T185 10 109-8Q57-8 28 17ZM57 388T28 413-2 478Q-2 513 17 543T71 590 148 608Q199 608 228 583T257 517Q257 482 238 453T185 406 109 388Q57 388 28 413Z" glyph-name="colon" horiz-adv-x="319" unicode="&#x3a;"/><glyph d="M142 373T113 398 83 463Q83 498 102 528T156 575 233 593Q284 593 313 568T342 502Q342 467 323 438T270 391 194 373Q142 373 113 398ZM539 185 382-118H236L319 185H539Z" glyph-name="semicolon" horiz-adv-x="385" unicode="&#x3b;"/><glyph d="M172 125 30 340 248 556H525L307 340 449 125H172Z" glyph-name="less" horiz-adv-x="497" unicode="&#x26;&#x6c;&#x74;&#x3b;"/><glyph d="M659 580 623 379H37L73 580H659ZM609 300 574 99H-12L23 300H609Z" glyph-name="equal" horiz-adv-x="626" unicode="&#x3d;"/><glyph d="M68 556H345L487 340 269 125H-8L210 340 68 556Z" glyph-name="greater" horiz-adv-x="497" unicode="&#x26;&#x67;&#x74;&#x3b;"/><glyph d="M456 773T513 730 570 603Q570 578 566 555 550 467 482 413T316 357L298 286H102L133 498H217Q278 498 311 511T349 556L350 564Q350 578 342 585T321 593Q301 593 289 581T274 548H65Q73 610 109 661T209 742 359 773Q456 773 513 730ZM99-8T70 17 40 82Q40 117 59 147T113 194 190 212Q241 212 270 187T299 121Q299 86 280 57T227 10 151-8Q99-8 70 17Z" glyph-name="question" horiz-adv-x="538" unicode="&#x3f;"/><glyph d="M750 687T843 640 986 509 1037 315Q1037 225 1005 153T911 38 762-4Q707-4 669 16T613 73Q588 34 547 14T452-7Q379-7 338 35T297 153Q297 224 325 287T403 388 515 427Q556 427 583 410T621 364L631 422H803L764 201Q761 188 761 176 761 138 793 138 833 138 853 186T874 309Q874 378 842 430T750 512 610 541Q502 541 413 489T272 347 220 152Q220 38 286-29T467-96Q569-96 653-60L691-199Q587-245 457-245 338-245 248-198T109-65 60 136Q60 295 135 420T340 616 629 687Q750 687 843 640ZM550 147T570 169 591 224Q591 247 579 260T548 274Q522 274 502 252T482 195Q482 173 493 160T525 147Q550 147 570 169Z" glyph-name="at" horiz-adv-x="1114" unicode="&#x40;"/><glyph d="M473 107H237L183 0H-50L334 708H590L723 0H489L473 107ZM449 274 420 471 321 274H449Z" glyph-name="A" horiz-adv-x="773" unicode="&#x41;"/><glyph d="M675 462T635 420 539 363Q591 350 618 314T646 228Q646 212 643 194 627 101 557 51T371 0H0L125 708H486Q582 708 635 671T689 561Q689 544 686 524 675 462 635 420ZM453 486T453 494Q453 514 441 523T402 532H316L298 432H384Q414 432 431 444T452 481Q453 486 453 494ZM423 232T423 240Q423 278 372 278H271L254 178H355Q385 178 401 189T422 227Q423 232 423 240Z" glyph-name="B" horiz-adv-x="684" unicode="&#x42;"/><glyph d="M61 460T118 542 262 669 456 715Q548 715 614 681T716 583 750 436H516Q506 471 480 490T416 510Q360 510 320 468T268 355Q264 335 264 312 264 260 289 230T362 200Q400 200 433 219T488 274H722Q692 190 635 127T500 30 329-5Q236-5 170 29T70 127 36 275Q36 316 43 355 61 460 118 542Z" glyph-name="C" horiz-adv-x="753" unicode="&#x43;"/><glyph d="M518 708T588 673 695 574 732 427Q732 394 726 356 708 255 649 174T498 47 295 0H0L125 708H420Q518 708 588 673ZM385 198T436 239 501 356Q504 376 504 393 504 452 468 483T366 514H313L257 198H310Q385 198 436 239Z" glyph-name="D" horiz-adv-x="743" unicode="&#x44;"/><glyph d="M316 532 301 444H521L491 277H271L253 177H503L472 0H0L125 708H597L566 532H316Z" glyph-name="E" horiz-adv-x="556" unicode="&#x45;"/><glyph d="M625 708 594 532H316L299 434H499L469 267H269L222 0H0L125 708H625Z" glyph-name="F" horiz-adv-x="575" unicode="&#x46;"/><glyph d="M61 460T119 542 266 669 464 715Q557 715 622 685T720 598 750 466H516Q507 487 485 498T429 510Q365 510 323 468T268 355Q263 325 263 306 263 190 398 190 475 190 533 252H356L383 409H744L705 187Q645 108 554 52T339-5Q243-5 175 30T72 128 36 277Q36 317 43 355 61 460 119 542Z" glyph-name="G" horiz-adv-x="752" unicode="&#x47;"/><glyph d="M780 708 655 0H433L482 276H271L222 0H0L125 708H347L302 453H513L558 708H780Z" glyph-name="H" horiz-adv-x="755" unicode="&#x48;"/><glyph d="M347 708 222 0H0L125 708H347Z" glyph-name="I" horiz-adv-x="322" unicode="&#x49;"/><glyph d="M619 708 539 251Q516 124 438 59T240-7Q129-7 66 46T2 204Q2 235 8 271H227Q224 253 224 240 224 193 265 193 285 193 298 206T318 251L398 708H619Z" glyph-name="J" horiz-adv-x="590" unicode="&#x4a;"/><glyph d="M496 369 692 0H428L276 308 222 0H0L125 708H347L294 410 550 708H801L496 369Z" glyph-name="K" horiz-adv-x="755" unicode="&#x4b;"/><glyph d="M252 168H466L436 0H0L125 708H347L252 168Z" glyph-name="L" horiz-adv-x="506" unicode="&#x4c;"/><glyph d="M976 708 851 0H630L692 352 521 0H331L284 355 222 0H0L125 708H397L478 282 705 708H976Z" glyph-name="M" horiz-adv-x="951" unicode="&#x4d;"/><glyph d="M679 0H457L285 356 222 0H0L125 708H347L518 346 582 708H804L679 0Z" glyph-name="N" horiz-adv-x="779" unicode="&#x4e;"/><glyph d="M257-7T189 30 84 134 47 289Q47 416 99 513T246 665 464 720Q556 720 624 684T730 581 767 427Q767 301 715 202T567 48 347-7Q257-7 189 30ZM433 200T471 227 530 300 550 399Q550 454 521 484T436 515Q384 515 345 488T286 416 265 317Q265 262 294 231T381 200Q433 200 471 227Z" glyph-name="O" horiz-adv-x="788" unicode="&#x4f;"/><glyph d="M649 398T609 344 503 257 350 225H262L222 0H0L125 708H435Q548 708 607 657T666 517Q666 495 661 465 649 398 609 344ZM424 400T436 465Q438 477 438 482 438 530 379 530H316L293 400H356Q424 400 436 465Z" glyph-name="P" horiz-adv-x="649" unicode="&#x50;"/><glyph d="M767 313T724 221 602 71L708-115H446L399-4Q374-7 347-7 257-7 189 30T84 134 47 289Q47 416 99 513T246 665 464 720Q556 720 624 684T730 581 767 427Q767 313 724 221ZM265 262T294 231 381 200Q433 200 471 227T530 300 550 399Q550 454 521 484T436 515Q384 515 345 488T286 416 265 317Q265 262 294 231Z" glyph-name="Q" horiz-adv-x="788" unicode="&#x51;"/><glyph d="M569 708T628 657 687 521Q687 496 683 476 670 404 621 350T494 271L600 0H356L267 254 222 0H0L125 708H455Q569 708 628 657ZM293 402H381Q413 402 431 416T456 462Q457 467 457 475 457 497 443 509T402 522H314L293 402Z" glyph-name="R" horiz-adv-x="670" unicode="&#x52;"/><glyph d="M174-7T97 45 19 197Q19 207 21 227H257Q254 196 266 181T308 166Q326 166 338 175T350 201Q350 225 327 241T251 279Q194 303 158 325T94 385 67 480Q67 555 104 609T209 692 362 720Q439 720 499 696T594 627 629 519Q629 511 627 491H388Q390 503 390 507 390 526 379 536T349 547Q332 547 321 537T310 511Q310 489 333 473T406 432Q463 405 500 381T565 318 592 221Q592 156 558 104T458 23 304-7Q174-7 97 45Z" glyph-name="S" horiz-adv-x="642" unicode="&#x53;"/><glyph d="M681 708 650 532H462L368 0H146L240 532H54L85 708H681Z" glyph-name="T" horiz-adv-x="616" unicode="&#x54;"/><glyph d="M342 708 272 309Q269 293 269 276 269 242 287 223T344 203Q392 203 420 231T457 309L527 708H748L678 309Q660 205 607 134T476 28 305-7Q186-7 115 55T44 234Q44 271 51 309L121 708H342Z" glyph-name="U" horiz-adv-x="719" unicode="&#x55;"/><glyph d="M311 708 371 221 602 708H838L475 0H188L75 708H311Z" glyph-name="V" horiz-adv-x="763" unicode="&#x56;"/><glyph d="M1145 708 858 0H582L571 402 418 0H142L105 708H344L330 262 504 708H746L763 262 906 708H1145Z" glyph-name="W" horiz-adv-x="1100" unicode="&#x57;"/><glyph d="M528 350 714 0H451L354 184 213 0H-40L257 365 75 708H338L432 531 567 708H820L528 350Z" glyph-name="X" horiz-adv-x="764" unicode="&#x58;"/><glyph d="M805 708 464 215 426 0H204L242 215 75 708H329L398 457 555 708H805Z" glyph-name="Y" horiz-adv-x="730" unicode="&#x59;"/><glyph d="M277 177H561L530 0H0L30 167 374 532H94L125 708H655L626 541 277 177Z" glyph-name="Z" horiz-adv-x="630" unicode="&#x5a;"/><glyph d="M585 895 554 717H380L244-51H418L387-229H5L203 895H585Z" glyph-name="bracketleft" horiz-adv-x="533" unicode="&#x5b;"/><glyph d="M225-198 189 955H401L437-198H225Z" glyph-name="backslash" horiz-adv-x="592" unicode="&#x5c;"/><glyph d="M348-229H-34L-3-51H171L307 717H133L164 895H546L348-229Z" glyph-name="bracketright" horiz-adv-x="533" unicode="&#x5d;"/><glyph d="M224 162H4L347 711H565L712 162H492L411 460 224 162Z" glyph-name="asciicircum" horiz-adv-x="758" unicode="&#x5e;"/><glyph d="M667-42 629-258H-46L-8-42H667Z" glyph-name="underscore" horiz-adv-x="764" unicode="&#x5f;"/><glyph d="M352 750 325 602 83 696 112 860 352 750Z" glyph-name="grave" horiz-adv-x="324" unicode="&#x60;"/><glyph d="M36 371T78 436 179 536 304 571Q359 571 395 549T445 487L459 564H680L580 0H359L373 77Q345 38 301 16T202-7Q117-7 65 50T13 208Q13 246 20 282 36 371 78 436ZM411 291T411 306Q411 340 393 358T344 377Q308 377 281 352T245 282Q243 273 243 258 243 224 261 206T310 187Q346 187 373 212T409 282Q411 291 411 306Z" glyph-name="a" horiz-adv-x="680" unicode="&#x61;"/><glyph d="M336 526T379 548 478 571Q563 571 615 514T667 356Q667 318 660 282 644 193 602 128T501 28 376-7Q321-7 286 15T236 77L222 0H0L131 740H353L308 487Q336 526 379 548ZM437 291T437 306Q437 340 419 358T370 377Q334 377 307 352T271 282Q269 273 269 258 269 224 287 206T336 187Q372 187 399 212T435 282Q437 291 437 306Z" glyph-name="b" horiz-adv-x="680" unicode="&#x62;"/><glyph d="M36 370T84 435 203 536 359 571Q469 571 533 509T599 337H364Q357 381 320 381 293 381 274 356T245 282Q241 254 241 245 241 214 253 199T286 183Q324 183 344 227H579Q540 117 454 55T257-7Q145-7 80 52T14 218Q14 249 20 282 36 370 84 435Z" glyph-name="c" horiz-adv-x="609" unicode="&#x63;"/><glyph d="M36 371T78 436 179 536 304 571Q359 571 394 549T444 487L489 740H711L580 0H358L372 77Q344 38 301 16T202-7Q117-7 65 50T13 208Q13 246 20 282 36 371 78 436ZM411 291T411 306Q411 340 393 358T344 377Q308 377 281 352T245 282Q243 273 243 258 243 224 261 206T310 187Q346 187 373 212T409 282Q411 291 411 306Z" glyph-name="d" horiz-adv-x="680" unicode="&#x64;"/><glyph d="M471 571T537 512 603 349Q603 320 597 287 590 254 586 243H230Q229 237 229 226 229 170 277 170 314 170 335 203H570Q548 143 501 96T391 21 257-7Q145-7 80 52T14 218Q14 249 20 282 36 370 84 435T203 536 359 571Q471 571 537 512ZM381 339T381 349Q381 373 366 385T328 397Q268 397 247 334H380Q381 339 381 349Z" glyph-name="e" horiz-adv-x="616" unicode="&#x65;"/><glyph d="M414 606T408 606Q382 606 367 596T343 564H425L392 379H309L242 0H20L87 379H27L60 564H120Q141 674 219 734T419 795Q433 795 465 793L432 604Q414 606 408 606Z" glyph-name="f" horiz-adv-x="385" unicode="&#x66;"/><glyph d="M359 571T395 549 445 487L459 564H680L582 10Q568-69 528-134T416-238 243-277Q114-277 46-220T-22-62Q-22-48-21-41H197Q199-85 261-85 300-85 325-65T361 10L373 77Q345 38 301 16T202-7Q117-7 65 50T13 208Q13 246 20 282 36 371 78 436T179 536 304 571Q359 571 395 549ZM411 291T411 306Q411 340 393 358T344 377Q308 377 281 352T245 282Q243 273 243 258 243 224 261 206T310 187Q346 187 373 212T409 282Q411 291 411 306Z" glyph-name="g" horiz-adv-x="680" unicode="&#x67;"/><glyph d="M577 568T621 521 665 390Q665 360 659 327L601 0H380L433 299Q435 315 435 321 435 352 418 369T369 386Q332 386 308 363T275 299V300L222 0H0L131 740H353L307 479Q340 519 388 543T495 568Q577 568 621 521Z" glyph-name="h" horiz-adv-x="697" unicode="&#x68;"/><glyph d="M168 609T139 634 109 699Q109 734 128 764T181 811 258 829Q309 829 338 804T368 737Q368 702 349 673T296 627 220 609Q168 609 139 634ZM322 564 222 0H0L100 564H322Z" glyph-name="i" horiz-adv-x="322" unicode="&#x69;"/><glyph d="M166 609T137 634 107 699Q107 734 126 764T179 811 256 829Q307 829 336 804T366 737Q366 702 347 673T294 627 218 609Q166 609 137 634ZM215-39Q175-270-57-270H-131L-98-81H-55Q-33-81-22-72T-7-43L100 564H322L215-39Z" glyph-name="j" horiz-adv-x="320" unicode="&#x6a;"/><glyph d="M460 280 626 0H361L262 225 222 0H0L131 740H353L284 352 463 564H721L460 280Z" glyph-name="k" horiz-adv-x="676" unicode="&#x6b;"/><glyph d="M353 740 222 0H0L131 740H353Z" glyph-name="l" horiz-adv-x="322" unicode="&#x6c;"/><glyph d="M945 568T994 520 1044 387Q1044 359 1038 327L980 0H759L812 299Q813 305 813 316 813 345 796 360T747 376Q711 376 687 357T655 303L601 0H380L433 299Q434 305 434 316 434 345 417 360T368 376Q332 376 308 356T276 302L222 0H0L100 564H322L308 488Q339 524 384 546T485 568Q546 568 588 542T650 466Q689 511 741 539T853 568Q945 568 994 520Z" glyph-name="m" horiz-adv-x="1076" unicode="&#x6d;"/><glyph d="M577 568T621 521 665 390Q665 360 659 327L601 0H380L433 299Q435 315 435 321 435 352 418 369T369 386Q333 386 308 363T275 300L222 0H0L100 564H322L307 479Q340 519 388 543T495 568Q577 568 621 521Z" glyph-name="n" horiz-adv-x="697" unicode="&#x6e;"/><glyph d="M192-7T135 22 46 104 14 229Q14 327 60 405T188 527 369 571Q444 571 501 542T590 459 622 334Q622 236 576 158T449 37 267-7Q192-7 135 22ZM344 185T369 224 394 311Q394 345 378 362T335 379Q292 379 267 340T242 253Q242 219 258 202T301 185Q344 185 369 224Z" glyph-name="o" horiz-adv-x="636" unicode="&#x6f;"/><glyph d="M336 526T379 548 478 571Q563 571 615 514T667 356Q667 318 660 282 644 193 602 128T501 28 376-7Q321-7 286 15T236 77L175-270H-47L100 564H322L308 487Q336 526 379 548ZM437 291T437 306Q437 340 419 358T370 377Q334 377 307 352T271 282Q269 273 269 258 269 224 287 206T336 187Q372 187 399 212T435 282Q437 291 437 306Z" glyph-name="p" horiz-adv-x="680" unicode="&#x70;"/><glyph d="M34 361T79 427 189 530 319 568Q364 568 396 556T450 514L459 564H680L533-270H312L370 62Q333 27 297 11T218-6Q160-6 114 21T40 99 13 217Q13 247 19 278 34 361 79 427ZM411 291T411 306Q411 342 391 359T344 376Q314 376 284 352T244 278Q242 262 242 256 242 219 262 203T310 187Q341 187 370 210T409 282Q411 291 411 306Z" glyph-name="q" horiz-adv-x="680" unicode="&#x71;"/><glyph d="M347 509T400 538 507 568L466 331H403Q340 331 307 309T263 231L222 0H0L100 564H322L304 460Q347 509 400 538Z" glyph-name="r" horiz-adv-x="467" unicode="&#x72;"/><glyph d="M184-7T127 15 37 76 4 167Q4 186 6 195H219Q218 170 233 158T276 146Q293 146 305 154T318 173Q318 189 298 198T232 220Q174 236 136 253T69 303 40 391Q40 441 70 482T156 547 285 571Q365 571 422 544T509 471 536 369H339Q339 392 325 404T284 417Q267 417 256 410T244 391Q244 376 264 367T332 342Q391 325 429 309T497 260 526 177Q526 90 452 42T258-7Q184-7 127 15Z" glyph-name="s" horiz-adv-x="579" unicode="&#x73;"/><glyph d="M297 227Q296 223 296 217 296 189 332 189H385L351 0H267Q70 0 70 167 70 197 76 231L102 379H32L65 564H135L159 700H381L357 564H449L416 379H324L297 227Z" glyph-name="t" horiz-adv-x="436" unicode="&#x74;"/><glyph d="M697 564 597 0H375L390 85Q357 45 309 21T202-4Q120-4 76 43T32 174Q32 204 38 237L96 564H317L264 265Q262 249 262 243 262 212 279 195T328 178Q364 178 389 201T422 264L475 564H697Z" glyph-name="u" horiz-adv-x="697" unicode="&#x75;"/><glyph d="M323 211 476 564H712L424 0H147L59 564H295L323 211Z" glyph-name="v" horiz-adv-x="671" unicode="&#x76;"/><glyph d="M956 564 722 0H472L460 318 332 0H82L49 564H269L256 221 389 564H626L642 217 751 564H956Z" glyph-name="w" horiz-adv-x="903" unicode="&#x77;"/><glyph d="M462 274 618 0H370L298 127 204 0H-40L202 297 50 564H298L370 436 465 564H709L462 274Z" glyph-name="x" horiz-adv-x="668" unicode="&#x78;"/><glyph d="M287 564 342 278 492 564H737L229-270H-14L180 28 40 564H287Z" glyph-name="y" horiz-adv-x="677" unicode="&#x79;"/><glyph d="M246 184H481L448 0H-30L1 174 252 380H40L73 564H538L507 390 246 184Z" glyph-name="z" horiz-adv-x="518" unicode="&#x7a;"/><glyph d="M85 423Q136 423 159 438T188 486Q193 511 193 581 193 657 199 688 216 787 286 841T462 895H538L507 718H473Q414 718 404 664 402 654 398 586 394 507 389 477 379 419 346 381T256 333V331Q298 322 320 296T342 232Q342 189 309 82 300 52 293 25T286-15Q286-54 337-54H371L340-231H264Q173-231 121-190T69-70Q69-38 79 1T110 98Q120 126 127 152T135 191Q135 216 116 229T53 242L85 423Z" glyph-name="braceleft" horiz-adv-x="484" unicode="&#x7b;"/><glyph d="M167-144H-55L116 828H338L167-144Z" glyph-name="bar" horiz-adv-x="262" unicode="&#x7c;"/><glyph d="M324 242T314 178Q310 155 310 92 310 20 303-24 285-123 215-177T40-231H-36L-5-54H29Q60-54 76-40T97 0Q100 15 101 44T104 83Q106 152 112 187 123 246 156 283T246 331V333Q160 350 160 440 160 458 163 477 169 511 192 583 211 643 214 664 216 674 216 679 216 718 165 718H131L162 895H238Q330 895 381 853T433 733Q433 709 429 688 420 641 394 572 380 530 374 508T367 471Q367 446 385 435T449 423L417 242Q324 242 314 178Z" glyph-name="braceright" horiz-adv-x="484" unicode="&#x7d;"/><glyph d="M47 317T120 381 284 445Q320 445 348 435T409 405Q435 391 450 385T483 378Q510 378 526 393T554 447H720Q675 311 602 247T438 183Q402 183 374 193T313 223Q287 237 271 243T238 250Q211 250 195 234T166 181H2Q47 317 120 381Z" glyph-name="asciitilde" horiz-adv-x="711" unicode="&#x7e;"/><glyph glyph-name="uni00A0" horiz-adv-x="170" unicode="&#xa0;"/><glyph d="M331 576T360 551 390 486Q390 451 371 421T317 374 240 356Q189 356 160 381T131 447Q131 482 150 511T203 558 279 576Q331 576 360 551ZM24-187 133 287H323L266-187H24Z" glyph-name="exclamdown" horiz-adv-x="455" unicode="&#xa1;"/><glyph d="M277 337T256 315 227 253Q225 244 225 228 225 170 281 170 299 170 317 179T342 205H545Q523 112 448 57T278-7L265-83H203L216-7Q119 1 65 52T10 194Q10 228 15 254 36 370 113 437T307 513L321 589H383L369 513Q454 506 509 458T564 328Q564 311 563 302H360Q356 321 342 329T311 337Q277 337 256 315Z" glyph-name="cent" horiz-adv-x="579" unicode="&#xa2;"/><glyph d="M453 531Q456 591 408 591 357 591 344 522 342 506 342 496 342 475 348 421H517L491 274H340Q315 204 259 165H594L564-6H12L4 98Q56 134 86 175T132 274H30L56 421H133Q131 449 131 466 131 507 138 548 156 652 237 711T432 771Q545 771 602 716T659 567Q659 555 657 531H453Z" glyph-name="sterling" horiz-adv-x="679" unicode="&#xa3;"/><glyph d="M529 491Q552 457 552 412 552 397 549 379 537 314 491 268L532 219 438 138 382 206Q340 193 288 193 236 193 196 207L115 138 49 219 110 271Q90 303 90 345 90 361 93 379 105 444 150 488L106 541 200 622 260 549Q304 561 353 561 398 561 439 550L523 622 589 541 529 491ZM262 372T262 363Q262 341 275 331T311 320Q336 320 354 334T379 377Q380 382 380 392 380 415 367 425T331 436Q306 436 287 422T263 377Q262 372 262 363Z" glyph-name="currency" horiz-adv-x="603" unicode="&#xa4;"/><glyph d="M628 452H705L680 308H528L503 272H673L648 128H449L426 0H204L227 128H26L51 272H223L210 308H58L83 452H162L75 708H329L392 424 555 708H805L628 452Z" glyph-name="yen" horiz-adv-x="730" unicode="&#xa5;"/><glyph d="M201 828H423L347 398H125L201 828ZM252-144H30L106 287H328L252-144Z" glyph-name="brokenbar" horiz-adv-x="432" unicode="&#xa6;"/><glyph d="M364 513Q366 531 366 536 366 567 349 567 340 567 334 559T328 534Q328 511 355 490T458 427Q570 359 570 270 570 253 568 244 560 197 532 162T446 101Q482 52 482-9 482-28 479-44 464-130 390-182T200-235Q100-235 49-185T-2-51Q-2-34-1-25H218Q216-43 216-49 216-79 232-79 241-79 247-71T254-47Q254-24 228-3T124 62Q12 126 12 218 12 235 14 244 34 349 135 388 100 438 100 497 100 516 103 532 118 618 192 670T382 723Q482 723 533 673T584 539Q584 522 583 513H364ZM334 256T334 262Q334 279 326 289T303 299Q280 299 265 279T250 229Q250 211 258 200T281 189Q300 189 314 204T332 244Q334 256 334 262Z" glyph-name="section" horiz-adv-x="595" unicode="&#xa7;"/><glyph d="M124 620T104 639 83 689Q83 732 113 762T185 792Q218 792 238 773T258 721Q258 679 228 650T155 620Q124 620 104 639ZM349 620T329 639 308 689Q308 732 338 762T410 792Q443 792 463 773T483 721Q483 679 453 650T380 620Q349 620 329 639Z" glyph-name="dieresis" horiz-adv-x="417" unicode="&#xa8;"/><glyph d="M554 720T621 685 725 585 761 435Q761 396 754 358 736 253 677 170T528 41 335-6Q244-6 177 30T73 131 36 283Q36 322 43 358 62 463 121 545T270 674 463 720Q554 720 621 685ZM364 655T293 619 176 515 113 358Q107 322 107 290 107 183 170 121T347 59Q434 59 505 96T623 201 685 358Q691 394 691 428 691 534 628 594T452 655Q364 655 293 619ZM340 578T268 518 177 357Q173 334 173 309 173 228 224 182T364 136Q446 136 513 185T608 316H424Q408 281 380 281 345 281 345 328 345 341 348 357 355 395 370 414T407 433Q434 433 438 398H622Q624 452 602 493T537 556 442 578Q340 578 268 518Z" glyph-name="copyright" horiz-adv-x="771" unicode="&#xa9;"/><glyph d="M79 616T133 664 260 712Q300 712 324 699T363 658L372 708H536L474 355H310L319 404Q294 376 266 363T198 350Q136 350 98 385T60 486Q60 509 64 530 79 616 133 664ZM342 561T329 571 296 582Q270 582 251 565T232 518Q232 499 244 490T278 481Q304 481 323 497T342 542Q342 561 329 571Z" glyph-name="ordfeminine" horiz-adv-x="481" unicode="&#xaa;"/><glyph d="M93 120 47 295 155 470H356L246 295 294 120H93ZM348 120 302 295 410 470H611L501 295 549 120H348Z" glyph-name="guillemotleft" horiz-adv-x="618" unicode="&#xab;"/><glyph d="M758 448 707 155H485L507 282H21L50 448H758Z" glyph-name="logicalnot" horiz-adv-x="794" unicode="&#xac;"/><glyph d="M513 433 480 250H14L47 433H513Z" glyph-name="uni00AD" horiz-adv-x="576" unicode="&#xad;"/><glyph d="M419 721T471 672 523 543Q523 518 519 498 508 434 470 383T376 304 255 275Q168 275 116 324T64 454Q64 478 68 498 79 563 117 613T211 692 333 721Q419 721 471 672ZM451 516T451 533Q451 590 417 623T322 656Q252 656 202 613T139 498Q136 480 136 464 136 408 170 374T266 340Q335 340 385 384T448 498Q451 516 451 533ZM368 606T385 592 403 552Q403 528 390 508T356 478L388 396H297L275 463 263 396H180L217 606H337Q368 606 385 592ZM282 519H299Q311 519 314 530V532Q314 541 303 541H286L282 519Z" glyph-name="registered" horiz-adv-x="511" unicode="&#xae;"/><glyph d="M527 769 501 622H70L96 769H527Z" glyph-name="overscore" horiz-adv-x="451" unicode="&#xaf;"/><glyph d="M83 618T152 666 325 715Q416 715 468 677T520 569Q520 551 517 533 502 448 434 398T264 347Q173 347 119 388T64 500Q64 517 67 533 83 618 152 666ZM350 545T350 550Q350 576 337 588T306 600Q283 600 263 583T236 531Q234 519 234 515 234 490 249 477T285 464Q306 464 324 480T348 531Q350 545 350 550Z" glyph-name="degree" horiz-adv-x="496" unicode="&#xb0;"/><glyph d="M393 344 385 297H534L498 96H-13L23 297H172L180 344H31L66 545H215L230 630H443L428 545H577L542 344H393Z" glyph-name="plusminus" horiz-adv-x="551" unicode="&#xb1;"/><glyph d="M394 717T428 690 462 624Q462 582 425 553T300 492L257 477H427L405 352H60L82 474 229 544Q280 567 285 595V597Q285 603 278 603 261 603 254 569H91Q107 635 168 676T320 717Q394 717 428 690Z" glyph-name="twosuperior" horiz-adv-x="422" unicode="&#xb2;"/><glyph d="M82 636T134 676 286 717Q358 717 396 693T435 627Q435 551 346 537L345 533Q383 524 399 509T416 468Q416 458 415 452 406 402 356 376T225 349Q128 349 88 378T47 464Q47 476 48 482H220Q219 479 219 474 219 462 231 462 243 462 247 483 248 486 248 492 248 508 225 508H195L204 562H225Q239 562 246 568T256 588L257 594Q257 605 247 605 240 605 236 599T228 577H72Q82 636 134 676Z" glyph-name="threesuperior" horiz-adv-x="403" unicode="&#xb3;"/><glyph d="M342 696 66 602 93 750 371 860 342 696Z" glyph-name="acute" horiz-adv-x="279" unicode="&#xb4;"/><glyph d="M726 564 626 0H404L418 77Q387 42 344 20T246-4L199-270H-22L125 564H346L293 266Q292 260 292 249 292 220 309 204T358 188Q395 188 420 209T451 266V264L504 564H726Z" glyph-name="uni00B5" horiz-adv-x="751" unicode="&#xb5;"/><glyph d="M653 0H476L572 542H514L418 0H242L289 265H258Q153 265 104 315T54 442Q54 466 58 486 68 544 101 594T194 676 336 708H778L653 0Z" glyph-name="paragraph" horiz-adv-x="778" unicode="&#xb6;"/><glyph d="M72 187T43 212 13 277Q13 312 32 342T86 389 163 407Q214 407 243 382T272 316Q272 281 253 252T200 205 124 187Q72 187 43 212Z" glyph-name="middot" horiz-adv-x="349" unicode="&#xb7;"/><glyph d="M190-27T224-50 259-123Q259-140 257-149 245-214 195-242T85-271H-88L-68-158H82Q94-158 102-154T111-142V-139Q111-127 88-127H3L27 7H155L149-27Q190-27 224-50Z" glyph-name="cedilla" horiz-adv-x="343" unicode="&#xb8;"/><glyph d="M72 577 94 704H324L262 352H98L138 577H72Z" glyph-name="onesuperior" horiz-adv-x="285" unicode="&#xb9;"/><glyph d="M73 581T106 621 192 685 310 709Q398 709 447 668T497 561Q497 546 494 529 485 478 452 437T365 371 246 347Q159 347 110 389T61 497Q61 513 64 529 73 581 106 621ZM328 534T328 543Q328 563 317 573T288 584Q264 584 247 566T229 514Q229 494 240 484T269 473Q290 473 306 487T327 529Q328 534 328 543Z" glyph-name="ordmasculine" horiz-adv-x="470" unicode="&#xba;"/><glyph d="M132 295 83 470H285L330 295 223 120H21L132 295ZM387 295 338 470H540L585 295 478 120H276L387 295Z" glyph-name="guillemotright" horiz-adv-x="618" unicode="&#xbb;"/><glyph d="M789 708 277 0H60L573 708H789ZM97 577 119 704H349L287 352H123L163 577H97ZM818 58H783L772 0H607L618 58H415L429 142 607 351H834L798 146H833L818 58ZM660 250 584 151H643L660 250Z" glyph-name="onequarter" horiz-adv-x="879" unicode="&#xbc;"/><glyph d="M800 711 277 0H60L584 711H800ZM163 577H97L119 704H349L287 352H123L163 577ZM848 364T882 337 916 271Q916 229 879 200T754 139L711 124H881L859-1H514L536 121 683 191Q734 214 739 242V244Q739 250 732 250 715 250 708 216H545Q561 282 622 323T774 364Q848 364 882 337Z" glyph-name="onehalf" horiz-adv-x="928" unicode="&#xbd;"/><glyph d="M135 636T187 676 339 717Q411 717 449 693T488 627Q488 551 399 537L398 533Q436 524 452 509T469 468Q469 458 468 452 459 402 409 376T278 349Q181 349 141 378T100 464Q100 476 101 482H273Q272 479 272 474 272 462 284 462 296 462 300 483 301 486 301 492 301 508 278 508H248L257 562H278Q292 562 299 568T309 588L310 594Q310 605 300 605 293 605 289 599T281 577H125Q135 636 187 676ZM923 711 427 0H211L706 711H923ZM970 58H935L924 0H760L771 58H567L581 142 739 351H986L950 146H985L970 58ZM817 270 736 146H795L817 270Z" glyph-name="threequarters" horiz-adv-x="1024" unicode="&#xbe;"/><glyph d="M437 581T466 556 496 491Q496 456 477 426T423 379 346 361Q295 361 266 386T237 452Q237 487 256 516T309 563 385 581Q437 581 466 556ZM80-200T23-157-34-30Q-34-5-30 18-14 106 54 160T220 216L238 287H434L403 75H319Q258 75 225 62T187 17L186 9Q186-5 194-12T215-20Q235-20 247-8T262 25H471Q463-37 427-88T327-169 177-200Q80-200 23-157Z" glyph-name="questiondown" horiz-adv-x="538" unicode="&#xbf;"/><glyph d="M473 107H237L183 0H-50L334 708H590L723 0H489L473 107ZM449 274 420 471 321 274H449ZM624 897 597 749 355 843 384 1007 624 897Z" glyph-name="Agrave" horiz-adv-x="773" unicode="&#xc0;"/><glyph d="M473 107H237L183 0H-50L334 708H590L723 0H489L473 107ZM449 274 420 471 321 274H449ZM614 843 338 749 365 897 643 1007 614 843Z" glyph-name="Aacute" horiz-adv-x="773" unicode="&#xc1;"/><glyph d="M473 107H237L183 0H-50L334 708H590L723 0H489L473 107ZM449 274 420 471 321 274H449ZM483 827 302 739 327 883 508 968 658 883 633 739 483 827Z" glyph-name="Acircumflex" horiz-adv-x="773" unicode="&#xc2;"/><glyph d="M473 107H237L183 0H-50L334 708H590L723 0H489L473 107ZM449 274 420 471 321 274H449ZM270 852T317 893 429 935Q453 935 472 928T514 908Q533 898 543 894T565 889Q602 889 617 936H726Q694 843 647 802T535 761Q511 761 492 768T450 788Q430 798 420 802T398 806Q362 806 345 759H237Q270 852 317 893Z" glyph-name="Atilde" horiz-adv-x="773" unicode="&#xc3;"/><glyph d="M473 107H237L183 0H-50L334 708H590L723 0H489L473 107ZM449 274 420 471 321 274H449ZM328 767T308 786 287 836Q287 879 317 909T389 939Q422 939 442 920T462 868Q462 826 432 797T359 767Q328 767 308 786ZM553 767T533 786 512 836Q512 879 542 909T614 939Q647 939 667 920T687 868Q687 826 657 797T584 767Q553 767 533 786Z" glyph-name="Adieresis" horiz-adv-x="773" unicode="&#xc4;"/><glyph d="M473 107H237L183 0H-50L334 708H590L723 0H489L473 107ZM449 274 420 471 321 274H449ZM370 932T414 968 514 1004Q563 1004 594 976T626 900Q626 852 604 816T546 760 468 740Q418 740 388 768T357 845Q357 863 359 872 370 932 414 968ZM538 899T527 909 499 919Q476 919 460 904T444 863Q444 846 455 836T483 825Q505 825 521 841T538 882Q538 899 527 909Z" glyph-name="Aring" horiz-adv-x="773" unicode="&#xc5;"/><glyph d="M756 532 741 447H951L922 280H712L693 177H933L902 0H440L457 97H253L191 0H-50L414 708H1027L996 532H756ZM487 264 535 537 360 264H487Z" glyph-name="AE" horiz-adv-x="986" unicode="&#xc6;"/><glyph d="M360 510T320 468 268 355Q264 335 264 312 264 260 289 230T362 200Q400 200 433 219T488 274H722Q683 163 597 90T396 0H401L395-34Q436-34 470-57T505-130Q505-147 503-156 491-221 441-249T331-278H158L178-165H328Q340-165 348-161T357-149V-146Q357-134 334-134H249L273-1Q160 15 98 88T36 275Q36 316 43 355 61 460 118 542T262 669 456 715Q548 715 614 681T716 583 750 436H516Q506 471 480 490T416 510Q360 510 320 468Z" glyph-name="Ccedilla" horiz-adv-x="753" unicode="&#xc7;"/><glyph d="M316 532 301 444H521L491 277H271L253 177H503L472 0H0L125 708H597L566 532H316ZM519 897 492 749 250 843 279 1007 519 897Z" glyph-name="Egrave" horiz-adv-x="556" unicode="&#xc8;"/><glyph d="M316 532 301 444H521L491 277H271L253 177H503L472 0H0L125 708H597L566 532H316ZM509 843 233 749 260 897 538 1007 509 843Z" glyph-name="Eacute" horiz-adv-x="556" unicode="&#xc9;"/><glyph d="M316 532 301 444H521L491 277H271L253 177H503L472 0H0L125 708H597L566 532H316ZM378 827 197 739 222 883 403 968 553 883 528 739 378 827Z" glyph-name="Ecircumflex" horiz-adv-x="556" unicode="&#xca;"/><glyph d="M316 532 301 444H521L491 277H271L253 177H503L472 0H0L125 708H597L566 532H316ZM223 767T203 786 182 836Q182 879 212 909T284 939Q317 939 337 920T357 868Q357 826 327 797T254 767Q223 767 203 786ZM448 767T428 786 407 836Q407 879 437 909T509 939Q542 939 562 920T582 868Q582 826 552 797T479 767Q448 767 428 786Z" glyph-name="Edieresis" horiz-adv-x="556" unicode="&#xcb;"/><glyph d="M347 708 222 0H0L125 708H347ZM399 897 372 749 130 843 159 1007 399 897Z" glyph-name="Igrave" horiz-adv-x="322" unicode="&#xcc;"/><glyph d="M347 708 222 0H0L125 708H347ZM389 843 113 749 140 897 418 1007 389 843Z" glyph-name="Iacute" horiz-adv-x="322" unicode="&#xcd;"/><glyph d="M347 708 222 0H0L125 708H347ZM258 827 77 739 102 883 283 968 433 883 408 739 258 827Z" glyph-name="Icircumflex" horiz-adv-x="322" unicode="&#xce;"/><glyph d="M347 708 222 0H0L125 708H347ZM103 767T83 786 62 836Q62 879 92 909T164 939Q197 939 217 920T237 868Q237 826 207 797T134 767Q103 767 83 786ZM328 767T308 786 287 836Q287 879 317 909T389 939Q422 939 442 920T462 868Q462 826 432 797T359 767Q328 767 308 786Z" glyph-name="Idieresis" horiz-adv-x="322" unicode="&#xcf;"/><glyph d="M518 708T588 673 695 574 732 427Q732 394 726 356 708 255 649 174T498 47 295 0H0L47 268H-2L29 444H78L125 708H420Q518 708 588 673ZM504 376T504 393Q504 452 468 483T366 514H313L301 444H431L400 268H269L257 198H310Q385 198 436 239T501 356Q504 376 504 393Z" glyph-name="Eth" horiz-adv-x="743" unicode="&#xd0;"/><glyph d="M679 0H457L285 356 222 0H0L125 708H347L518 346 582 708H804L679 0ZM272 852T319 893 431 935Q455 935 474 928T516 908Q535 898 545 894T567 889Q604 889 619 936H728Q696 843 649 802T537 761Q513 761 494 768T452 788Q432 798 422 802T400 806Q364 806 347 759H239Q272 852 319 893Z" glyph-name="Ntilde" horiz-adv-x="779" unicode="&#xd1;"/><glyph d="M257-7T189 30 84 134 47 289Q47 416 99 513T246 665 464 720Q556 720 624 684T730 581 767 427Q767 301 715 202T567 48 347-7Q257-7 189 30ZM433 200T471 227 530 300 550 399Q550 454 521 484T436 515Q384 515 345 488T286 416 265 317Q265 262 294 231T381 200Q433 200 471 227ZM632 897 605 749 363 843 392 1007 632 897Z" glyph-name="Ograve" horiz-adv-x="788" unicode="&#xd2;"/><glyph d="M257-7T189 30 84 134 47 289Q47 416 99 513T246 665 464 720Q556 720 624 684T730 581 767 427Q767 301 715 202T567 48 347-7Q257-7 189 30ZM433 200T471 227 530 300 550 399Q550 454 521 484T436 515Q384 515 345 488T286 416 265 317Q265 262 294 231T381 200Q433 200 471 227ZM622 843 346 749 373 897 651 1007 622 843Z" glyph-name="Oacute" horiz-adv-x="788" unicode="&#xd3;"/><glyph d="M257-7T189 30 84 134 47 289Q47 416 99 513T246 665 464 720Q556 720 624 684T730 581 767 427Q767 301 715 202T567 48 347-7Q257-7 189 30ZM433 200T471 227 530 300 550 399Q550 454 521 484T436 515Q384 515 345 488T286 416 265 317Q265 262 294 231T381 200Q433 200 471 227ZM491 827 310 739 335 883 516 968 666 883 641 739 491 827Z" glyph-name="Ocircumflex" horiz-adv-x="788" unicode="&#xd4;"/><glyph d="M257-7T189 30 84 134 47 289Q47 416 99 513T246 665 464 720Q556 720 624 684T730 581 767 427Q767 301 715 202T567 48 347-7Q257-7 189 30ZM433 200T471 227 530 300 550 399Q550 454 521 484T436 515Q384 515 345 488T286 416 265 317Q265 262 294 231T381 200Q433 200 471 227ZM278 852T325 893 437 935Q461 935 480 928T522 908Q541 898 551 894T573 889Q610 889 625 936H734Q702 843 655 802T543 761Q519 761 500 768T458 788Q438 798 428 802T406 806Q370 806 353 759H245Q278 852 325 893Z" glyph-name="Otilde" horiz-adv-x="788" unicode="&#xd5;"/><glyph d="M257-7T189 30 84 134 47 289Q47 416 99 513T246 665 464 720Q556 720 624 684T730 581 767 427Q767 301 715 202T567 48 347-7Q257-7 189 30ZM433 200T471 227 530 300 550 399Q550 454 521 484T436 515Q384 515 345 488T286 416 265 317Q265 262 294 231T381 200Q433 200 471 227ZM336 767T316 786 295 836Q295 879 325 909T397 939Q430 939 450 920T470 868Q470 826 440 797T367 767Q336 767 316 786ZM561 767T541 786 520 836Q520 879 550 909T622 939Q655 939 675 920T695 868Q695 826 665 797T592 767Q561 767 541 786Z" glyph-name="Odieresis" horiz-adv-x="788" unicode="&#xd6;"/><glyph d="M445 351 551 223 378 78 274 205 127 79 9 221 156 347 57 467 229 612 327 494 464 612 583 470 445 351Z" glyph-name="multiply" horiz-adv-x="581" unicode="&#xd7;"/><glyph d="M720 595Q766 524 766 427 766 301 714 202T566 48 346-7Q226-7 146 59L84 1H-32L93 118Q46 192 46 289 46 416 98 513T245 665 463 720Q588 720 668 654L730 712H845L720 595ZM264 296T268 281L502 499Q473 515 435 515 383 515 344 488T285 416 264 317Q264 296 268 281ZM549 417T546 432L314 216Q339 200 380 200 432 200 470 227T529 300 549 399Q549 417 546 432Z" glyph-name="Oslash" horiz-adv-x="788" unicode="&#xd8;"/><glyph d="M342 708 272 309Q269 293 269 276 269 242 287 223T344 203Q392 203 420 231T457 309L527 708H748L678 309Q660 205 607 134T476 28 305-7Q186-7 115 55T44 234Q44 271 51 309L121 708H342ZM597 897 570 749 328 843 357 1007 597 897Z" glyph-name="Ugrave" horiz-adv-x="719" unicode="&#xd9;"/><glyph d="M342 708 272 309Q269 293 269 276 269 242 287 223T344 203Q392 203 420 231T457 309L527 708H748L678 309Q660 205 607 134T476 28 305-7Q186-7 115 55T44 234Q44 271 51 309L121 708H342ZM587 843 311 749 338 897 616 1007 587 843Z" glyph-name="Uacute" horiz-adv-x="719" unicode="&#xda;"/><glyph d="M342 708 272 309Q269 293 269 276 269 242 287 223T344 203Q392 203 420 231T457 309L527 708H748L678 309Q660 205 607 134T476 28 305-7Q186-7 115 55T44 234Q44 271 51 309L121 708H342ZM456 827 275 739 300 883 481 968 631 883 606 739 456 827Z" glyph-name="Ucircumflex" horiz-adv-x="719" unicode="&#xdb;"/><glyph d="M342 708 272 309Q269 293 269 276 269 242 287 223T344 203Q392 203 420 231T457 309L527 708H748L678 309Q660 205 607 134T476 28 305-7Q186-7 115 55T44 234Q44 271 51 309L121 708H342ZM301 767T281 786 260 836Q260 879 290 909T362 939Q395 939 415 920T435 868Q435 826 405 797T332 767Q301 767 281 786ZM526 767T506 786 485 836Q485 879 515 909T587 939Q620 939 640 920T660 868Q660 826 630 797T557 767Q526 767 506 786Z" glyph-name="Udieresis" horiz-adv-x="719" unicode="&#xdc;"/><glyph d="M805 708 464 215 426 0H204L242 215 75 708H329L398 457 555 708H805ZM593 843 317 749 344 897 622 1007 593 843Z" glyph-name="Yacute" horiz-adv-x="730" unicode="&#xdd;"/><glyph d="M631 291T591 239 485 156 332 125H244L222 0H0L125 708H345L324 588H414Q528 588 587 539T646 403Q646 378 642 355 631 291 591 239ZM405 290T417 355Q419 367 419 372 419 395 404 407T359 420H296L273 290H336Q405 290 417 355Z" glyph-name="Thorn" horiz-adv-x="649" unicode="&#xde;"/><glyph d="M106 629T199 696 435 763Q510 763 567 742T656 684 687 598Q687 551 664 516T601 442Q582 424 573 413T564 393Q564 386 568 382T591 368 638 346Q702 318 729 285T756 196Q756 135 724 88T632 16 497-10Q387-10 329 41T270 188H464Q466 168 479 156T510 143Q525 143 535 151T545 171Q545 185 531 196T478 223Q402 254 370 281T338 346Q338 376 356 402T409 462Q436 490 448 506T460 538Q460 557 444 568T399 580Q362 580 336 558T303 499L215 0H-5L84 509Q106 629 199 696Z" glyph-name="germandbls" horiz-adv-x="773" unicode="&#xdf;"/><glyph d="M36 371T78 436 179 536 304 571Q359 571 395 549T445 487L459 564H680L580 0H359L373 77Q345 38 301 16T202-7Q117-7 65 50T13 208Q13 246 20 282 36 371 78 436ZM411 291T411 306Q411 340 393 358T344 377Q308 377 281 352T245 282Q243 273 243 258 243 224 261 206T310 187Q346 187 373 212T409 282Q411 291 411 306ZM558 750 531 602 289 696 318 860 558 750Z" glyph-name="agrave" horiz-adv-x="680" unicode="&#xe0;"/><glyph d="M36 371T78 436 179 536 304 571Q359 571 395 549T445 487L459 564H680L580 0H359L373 77Q345 38 301 16T202-7Q117-7 65 50T13 208Q13 246 20 282 36 371 78 436ZM411 291T411 306Q411 340 393 358T344 377Q308 377 281 352T245 282Q243 273 243 258 243 224 261 206T310 187Q346 187 373 212T409 282Q411 291 411 306ZM548 696 272 602 299 750 577 860 548 696Z" glyph-name="aacute" horiz-adv-x="680" unicode="&#xe1;"/><glyph d="M36 371T78 436 179 536 304 571Q359 571 395 549T445 487L459 564H680L580 0H359L373 77Q345 38 301 16T202-7Q117-7 65 50T13 208Q13 246 20 282 36 371 78 436ZM411 291T411 306Q411 340 393 358T344 377Q308 377 281 352T245 282Q243 273 243 258 243 224 261 206T310 187Q346 187 373 212T409 282Q411 291 411 306ZM417 680 236 592 261 736 442 821 592 736 567 592 417 680Z" glyph-name="acircumflex" horiz-adv-x="680" unicode="&#xe2;"/><glyph d="M36 371T78 436 179 536 304 571Q359 571 395 549T445 487L459 564H680L580 0H359L373 77Q345 38 301 16T202-7Q117-7 65 50T13 208Q13 246 20 282 36 371 78 436ZM411 291T411 306Q411 340 393 358T344 377Q308 377 281 352T245 282Q243 273 243 258 243 224 261 206T310 187Q346 187 373 212T409 282Q411 291 411 306ZM204 705T251 746 363 788Q387 788 406 781T448 761Q467 751 477 747T499 742Q536 742 551 789H660Q628 696 581 655T469 614Q445 614 426 621T384 641Q364 651 354 655T332 659Q296 659 279 612H171Q204 705 251 746Z" glyph-name="atilde" horiz-adv-x="680" unicode="&#xe3;"/><glyph d="M36 371T78 436 179 536 304 571Q359 571 395 549T445 487L459 564H680L580 0H359L373 77Q345 38 301 16T202-7Q117-7 65 50T13 208Q13 246 20 282 36 371 78 436ZM411 291T411 306Q411 340 393 358T344 377Q308 377 281 352T245 282Q243 273 243 258 243 224 261 206T310 187Q346 187 373 212T409 282Q411 291 411 306ZM262 620T242 639 221 689Q221 732 251 762T323 792Q356 792 376 773T396 721Q396 679 366 650T293 620Q262 620 242 639ZM487 620T467 639 446 689Q446 732 476 762T548 792Q581 792 601 773T621 721Q621 679 591 650T518 620Q487 620 467 639Z" glyph-name="adieresis" horiz-adv-x="680" unicode="&#xe4;"/><glyph d="M36 371T78 436 179 536 304 571Q359 571 395 549T445 487L459 564H680L580 0H359L373 77Q345 38 301 16T202-7Q117-7 65 50T13 208Q13 246 20 282 36 371 78 436ZM411 291T411 306Q411 340 393 358T344 377Q308 377 281 352T245 282Q243 273 243 258 243 224 261 206T310 187Q346 187 373 212T409 282Q411 291 411 306ZM304 785T348 821 448 857Q497 857 528 829T560 753Q560 705 538 669T480 613 402 593Q352 593 322 621T291 698Q291 716 293 725 304 785 348 821ZM472 752T461 762 433 772Q410 772 394 757T378 716Q378 699 389 689T417 678Q439 678 455 694T472 735Q472 752 461 762Z" glyph-name="aring" horiz-adv-x="680" unicode="&#xe5;"/><glyph d="M937 571T989 515 1042 359Q1042 333 1035 287 1029 260 1022 243H631Q629 201 646 184T697 167Q750 167 773 203H1008Q973 111 902 52T745-7Q685-7 647 15T594 77L580 0H359L373 77Q345 38 301 16T202-7Q117-7 65 50T13 208Q13 246 20 282 36 371 78 436T179 536 304 571Q359 571 395 549T445 487L459 564H680L666 487Q693 527 740 549T847 571Q937 571 989 515ZM819 338T819 346Q819 371 798 384T744 397Q672 397 648 334H818Q819 338 819 346ZM411 291T411 306Q411 340 393 358T344 377Q308 377 281 352T245 282Q243 273 243 258 243 224 261 206T310 187Q346 187 373 212T409 282Q411 291 411 306Z" glyph-name="ae" horiz-adv-x="1054" unicode="&#xe6;"/><glyph d="M324 183T344 227H579Q546 134 479 75T323-1L317-34Q358-34 392-57T427-130Q427-147 425-156 413-221 363-249T253-278H80L100-165H250Q262-165 270-161T279-149V-146Q279-134 256-134H171L195-2Q110 14 62 71T14 218Q14 248 20 282 36 370 84 435T203 536 359 571Q469 571 533 509T599 337H364Q357 381 320 381 293 381 274 356T245 282Q241 254 241 245 241 214 253 199T286 183Q324 183 344 227Z" glyph-name="ccedilla" horiz-adv-x="609" unicode="&#xe7;"/><glyph d="M471 571T537 512 603 349Q603 320 597 287 590 254 586 243H230Q229 237 229 226 229 170 277 170 314 170 335 203H570Q548 143 501 96T391 21 257-7Q145-7 80 52T14 218Q14 249 20 282 36 370 84 435T203 536 359 571Q471 571 537 512ZM381 339T381 349Q381 373 366 385T328 397Q268 397 247 334H380Q381 339 381 349ZM533 750 506 602 264 696 293 860 533 750Z" glyph-name="egrave" horiz-adv-x="616" unicode="&#xe8;"/><glyph d="M471 571T537 512 603 349Q603 320 597 287 590 254 586 243H230Q229 237 229 226 229 170 277 170 314 170 335 203H570Q548 143 501 96T391 21 257-7Q145-7 80 52T14 218Q14 249 20 282 36 370 84 435T203 536 359 571Q471 571 537 512ZM381 339T381 349Q381 373 366 385T328 397Q268 397 247 334H380Q381 339 381 349ZM523 696 247 602 274 750 552 860 523 696Z" glyph-name="eacute" horiz-adv-x="616" unicode="&#xe9;"/><glyph d="M471 571T537 512 603 349Q603 320 597 287 590 254 586 243H230Q229 237 229 226 229 170 277 170 314 170 335 203H570Q548 143 501 96T391 21 257-7Q145-7 80 52T14 218Q14 249 20 282 36 370 84 435T203 536 359 571Q471 571 537 512ZM381 339T381 349Q381 373 366 385T328 397Q268 397 247 334H380Q381 339 381 349ZM392 680 211 592 236 736 417 821 567 736 542 592 392 680Z" glyph-name="ecircumflex" horiz-adv-x="616" unicode="&#xea;"/><glyph d="M471 571T537 512 603 349Q603 320 597 287 590 254 586 243H230Q229 237 229 226 229 170 277 170 314 170 335 203H570Q548 143 501 96T391 21 257-7Q145-7 80 52T14 218Q14 249 20 282 36 370 84 435T203 536 359 571Q471 571 537 512ZM381 339T381 349Q381 373 366 385T328 397Q268 397 247 334H380Q381 339 381 349ZM237 620T217 639 196 689Q196 732 226 762T298 792Q331 792 351 773T371 721Q371 679 341 650T268 620Q237 620 217 639ZM462 620T442 639 421 689Q421 732 451 762T523 792Q556 792 576 773T596 721Q596 679 566 650T493 620Q462 620 442 639Z" glyph-name="edieresis" horiz-adv-x="616" unicode="&#xeb;"/><glyph d="M347 564 247 0H25L125 564H347ZM398 750 371 602 129 696 158 860 398 750Z" glyph-name="igrave" horiz-adv-x="372" unicode="&#xec;"/><glyph d="M347 564 247 0H25L125 564H347ZM388 696 112 602 139 750 417 860 388 696Z" glyph-name="iacute" horiz-adv-x="372" unicode="&#xed;"/><glyph d="M347 564 247 0H25L125 564H347ZM257 680 76 592 101 736 282 821 432 736 407 592 257 680Z" glyph-name="icircumflex" horiz-adv-x="372" unicode="&#xee;"/><glyph d="M347 564 247 0H25L125 564H347ZM358 620T338 639 317 689Q317 732 347 762T419 792Q452 792 472 773T492 721Q492 679 462 650T389 620Q358 620 338 639ZM583 620T563 639 542 689Q542 732 572 762T644 792Q677 792 697 773T717 721Q717 679 687 650T614 620Q583 620 563 639Z" glyph-name="idieresis" horiz-adv-x="372" unicode="&#xef;"/><glyph d="M603 600T619 535 636 403Q636 358 629 317 611 215 559 142T433 32 277-6Q203-6 144 22T50 104 15 230Q15 252 20 284 36 371 84 435T202 533 351 568Q384 568 429 560 422 585 409 612L318 588 331 660 377 673Q353 713 328 740H521L539 716 609 735 596 663 574 657Q603 600 619 535ZM400 297T400 309Q400 344 383 360T341 377Q310 377 283 354T246 282Q244 273 244 258 244 222 264 204T311 186Q340 186 364 209T397 282Q400 297 400 309Z" glyph-name="eth" horiz-adv-x="643" unicode="&#xf0;"/><glyph d="M577 568T621 521 665 390Q665 360 659 327L601 0H380L433 299Q435 315 435 321 435 352 418 369T369 386Q333 386 308 363T275 300L222 0H0L100 564H322L307 479Q340 519 388 543T495 568Q577 568 621 521ZM241 705T288 746 400 788Q424 788 443 781T485 761Q504 751 514 747T536 742Q573 742 588 789H697Q665 696 618 655T506 614Q482 614 463 621T421 641Q401 651 391 655T369 659Q333 659 316 612H208Q241 705 288 746Z" glyph-name="ntilde" horiz-adv-x="697" unicode="&#xf1;"/><glyph d="M192-7T135 22 46 104 14 229Q14 327 60 405T188 527 369 571Q444 571 501 542T590 459 622 334Q622 236 576 158T449 37 267-7Q192-7 135 22ZM344 185T369 224 394 311Q394 345 378 362T335 379Q292 379 267 340T242 253Q242 219 258 202T301 185Q344 185 369 224ZM530 757 503 609 261 703 290 867 530 757Z" glyph-name="ograve" horiz-adv-x="636" unicode="&#xf2;"/><glyph d="M192-7T135 22 46 104 14 229Q14 327 60 405T188 527 369 571Q444 571 501 542T590 459 622 334Q622 236 576 158T449 37 267-7Q192-7 135 22ZM344 185T369 224 394 311Q394 345 378 362T335 379Q292 379 267 340T242 253Q242 219 258 202T301 185Q344 185 369 224ZM520 703 244 609 271 757 549 867 520 703Z" glyph-name="oacute" horiz-adv-x="636" unicode="&#xf3;"/><glyph d="M192-7T135 22 46 104 14 229Q14 327 60 405T188 527 369 571Q444 571 501 542T590 459 622 334Q622 236 576 158T449 37 267-7Q192-7 135 22ZM344 185T369 224 394 311Q394 345 378 362T335 379Q292 379 267 340T242 253Q242 219 258 202T301 185Q344 185 369 224ZM389 687 208 599 233 743 414 828 564 743 539 599 389 687Z" glyph-name="ocircumflex" horiz-adv-x="636" unicode="&#xf4;"/><glyph d="M192-7T135 22 46 104 14 229Q14 327 60 405T188 527 369 571Q444 571 501 542T590 459 622 334Q622 236 576 158T449 37 267-7Q192-7 135 22ZM344 185T369 224 394 311Q394 345 378 362T335 379Q292 379 267 340T242 253Q242 219 258 202T301 185Q344 185 369 224ZM176 712T223 753 335 795Q359 795 378 788T420 768Q439 758 449 754T471 749Q508 749 523 796H632Q600 703 553 662T441 621Q417 621 398 628T356 648Q336 658 326 662T304 666Q268 666 251 619H143Q176 712 223 753Z" glyph-name="otilde" horiz-adv-x="636" unicode="&#xf5;"/><glyph d="M192-7T135 22 46 104 14 229Q14 327 60 405T188 527 369 571Q444 571 501 542T590 459 622 334Q622 236 576 158T449 37 267-7Q192-7 135 22ZM344 185T369 224 394 311Q394 345 378 362T335 379Q292 379 267 340T242 253Q242 219 258 202T301 185Q344 185 369 224ZM234 627T214 646 193 696Q193 739 223 769T295 799Q328 799 348 780T368 728Q368 686 338 657T265 627Q234 627 214 646ZM459 627T439 646 418 696Q418 739 448 769T520 799Q553 799 573 780T593 728Q593 686 563 657T490 627Q459 627 439 646Z" glyph-name="odieresis" horiz-adv-x="636" unicode="&#xf6;"/><glyph d="M265 467T236 492 206 557Q206 592 225 622T279 669 356 687Q407 687 436 662T465 596Q465 561 446 532T393 485 317 467Q265 467 236 492ZM559 441 524 240H13L48 441H559ZM155-8T126 17 96 82Q96 117 115 147T169 194 246 212Q297 212 326 187T355 121Q355 86 336 57T283 10 207-8Q155-8 126 17Z" glyph-name="divide" horiz-adv-x="551" unicode="&#xf7;"/><glyph d="M572 474Q614 415 614 334 614 236 568 158T441 37 259-7Q164-7 97 40L53 0H-50L48 89Q6 148 6 229 6 327 52 405T180 527 361 571Q458 571 523 523L568 564H671L572 474ZM286 379T261 342 234 259L357 372Q344 379 327 379 286 379 261 342ZM334 185T359 221 386 304L263 192Q276 185 293 185 334 185 359 221Z" glyph-name="oslash" horiz-adv-x="621" unicode="&#xf8;"/><glyph d="M697 564 597 0H375L390 85Q357 45 309 21T202-4Q120-4 76 43T32 174Q32 204 38 237L96 564H317L264 265Q262 249 262 243 262 212 279 195T328 178Q364 178 389 201T422 264L475 564H697ZM560 750 533 602 291 696 320 860 560 750Z" glyph-name="ugrave" horiz-adv-x="697" unicode="&#xf9;"/><glyph d="M697 564 597 0H375L390 85Q357 45 309 21T202-4Q120-4 76 43T32 174Q32 204 38 237L96 564H317L264 265Q262 249 262 243 262 212 279 195T328 178Q364 178 389 201T422 264L475 564H697ZM550 696 274 602 301 750 579 860 550 696Z" glyph-name="uacute" horiz-adv-x="697" unicode="&#xfa;"/><glyph d="M697 564 597 0H375L390 85Q357 45 309 21T202-4Q120-4 76 43T32 174Q32 204 38 237L96 564H317L264 265Q262 249 262 243 262 212 279 195T328 178Q364 178 389 201T422 264L475 564H697ZM419 680 238 592 263 736 444 821 594 736 569 592 419 680Z" glyph-name="ucircumflex" horiz-adv-x="697" unicode="&#xfb;"/><glyph d="M697 564 597 0H375L390 85Q357 45 309 21T202-4Q120-4 76 43T32 174Q32 204 38 237L96 564H317L264 265Q262 249 262 243 262 212 279 195T328 178Q364 178 389 201T422 264L475 564H697ZM264 620T244 639 223 689Q223 732 253 762T325 792Q358 792 378 773T398 721Q398 679 368 650T295 620Q264 620 244 639ZM489 620T469 639 448 689Q448 732 478 762T550 792Q583 792 603 773T623 721Q623 679 593 650T520 620Q489 620 469 639Z" glyph-name="udieresis" horiz-adv-x="697" unicode="&#xfc;"/><glyph d="M287 564 342 278 492 564H737L229-270H-14L180 28 40 564H287ZM540 696 264 602 291 750 569 860 540 696Z" glyph-name="yacute" horiz-adv-x="677" unicode="&#xfd;"/><glyph d="M345 543T380 555 461 568Q519 568 565 540T638 459 665 340Q665 310 659 278 644 195 599 131T491 30 360-6Q316-6 286 10T233 62L175-270H-47L131 740H353L313 514Q345 543 380 555ZM436 287T436 303Q436 339 416 357T371 376Q340 376 311 354T272 282Q270 273 270 258 270 222 290 205T337 187Q368 187 397 208T434 278Q436 287 436 303Z" glyph-name="thorn" horiz-adv-x="680" unicode="&#xfe;"/><glyph d="M287 564 342 278 492 564H737L229-270H-14L180 28 40 564H287ZM254 620T234 639 213 689Q213 732 243 762T315 792Q348 792 368 773T388 721Q388 679 358 650T285 620Q254 620 234 639ZM479 620T459 639 438 689Q438 732 468 762T540 792Q573 792 593 773T613 721Q613 679 583 650T510 620Q479 620 459 639Z" glyph-name="ydieresis" horiz-adv-x="677" unicode="&#xff;"/><glyph d="M655 433 622 250H49L82 433H655Z" glyph-name="endash" horiz-adv-x="683" unicode="&#x2013;"/><glyph d="M908 433 875 250H49L82 433H908Z" glyph-name="emdash" horiz-adv-x="936" unicode="&#x2014;"/><glyph d="M293 413H73L243 708H389L293 413Z" glyph-name="quoteleft" horiz-adv-x="378" unicode="&#x2018;"/><glyph d="M183 708H403L233 413H87L183 708Z" glyph-name="quoteright" horiz-adv-x="378" unicode="&#x2019;"/><glyph d="M85 188H305L135-107H-11L85 188Z" glyph-name="quotesinglbase" horiz-adv-x="362" unicode="&#x201a;"/><glyph d="M293 413H73L243 708H389L293 413ZM575 413H355L525 708H671L575 413Z" glyph-name="quotedblleft" horiz-adv-x="660" unicode="&#x201c;"/><glyph d="M183 708H403L233 413H87L183 708ZM465 708H685L515 413H369L465 708Z" glyph-name="quotedblright" horiz-adv-x="660" unicode="&#x201d;"/><glyph d="M85 188H305L135-107H-11L85 188ZM353 188H573L403-107H257L353 188Z" glyph-name="quotedblbase" horiz-adv-x="631" unicode="&#x201e;"/><glyph d="M185 166T146 204 106 302Q106 318 109 333 117 380 146 418T218 479 307 502Q370 502 409 464T448 365Q448 350 445 333 437 287 408 249T337 188 248 166Q185 166 146 204Z" glyph-name="bullet" horiz-adv-x="536" unicode="&#x2022;"/><glyph d="M93 120 47 295 155 470H356L246 295 294 120H93Z" glyph-name="guilsinglleft" horiz-adv-x="373" unicode="&#x2039;"/><glyph d="M132 295 83 470H285L330 295 223 120H21L132 295Z" glyph-name="guilsinglright" horiz-adv-x="373" unicode="&#x203a;"/></font>
</defs>
</svg>
