<svg xmlns="http://www.w3.org/2000/svg"><defs><font horiz-adv-x="886"><font-face alphabetic="0" ascent="1050" descent="-350" panose-1="0 0 10 0 0 0 0 0 0 0"/><glyph glyph-name="space" horiz-adv-x="170" unicode="&#x20;"/><glyph d="M349 755 323 281H133L107 755H349ZM170-8T135 23 100 101Q100 149 135 180T228 212Q285 212 320 181T355 101Q355 54 320 23T228-8Q170-8 135 23Z" glyph-name="exclam" horiz-adv-x="455" unicode="&#x21;"/><glyph d="M220 803 207 568H59L45 803H220ZM445 803 432 568H284L270 803H445Z" glyph-name="quotedbl" horiz-adv-x="490" unicode="&#x26;&#x71;&#x75;&#x6f;&#x74;&#x3b;"/><glyph d="M765 421 745 326H855V124H701L675 0H469L495 124H356L330 0H125L151 124H10V326H195L215 421H78V623H258L283 740H488L463 623H602L627 740H833L808 623H923V421H765ZM559 421H420L400 326H539L559 421Z" glyph-name="numbersign" horiz-adv-x="933" unicode="&#x23;"/><glyph d="M637 149T605 101 510 24 361-7V-87H299V-5Q183 6 111 65T32 227H268Q271 186 299 171V269Q212 293 162 313T71 379 30 504Q30 569 66 616T163 690 299 719V800H361V719Q480 711 549 653T625 491H386Q382 529 361 542V445Q396 435 394 435 469 412 517 390T601 323 637 209Q637 149 605 101ZM268 488T299 470V550Q268 544 268 514 268 488 299 470ZM400 170T400 204Q400 230 361 248V162Q400 170 400 204Z" glyph-name="dollar" horiz-adv-x="665" unicode="&#x24;"/><glyph d="M21 628T71 674 202 721Q282 721 331 675T381 540Q381 452 332 406T202 360Q121 360 71 406T21 540Q21 628 71 674ZM762 711 389 0H177L550 711H762ZM166 592T166 540Q166 489 200 489 218 489 227 502T237 540Q237 566 228 579T200 592Q166 592 166 540ZM558 259T608 305 738 352Q819 352 868 306T917 171Q917 83 868 37T738-10Q658-10 608 36T558 171Q558 259 608 305ZM702 223T702 171Q702 119 737 119 754 119 763 132T773 171Q773 196 764 209T737 223Q702 223 702 171Z" glyph-name="percent" horiz-adv-x="938" unicode="&#x25;"/><glyph d="M587 0 538 46Q444-10 317-10 231-10 168 17T70 93 36 207Q36 268 67 318T162 404Q116 461 116 524 116 578 144 623T228 694 359 721Q436 721 490 694T571 621 598 524H396Q396 543 385 552T359 562Q343 562 332 553T320 526Q320 494 364 452L525 296Q539 323 550 357L553 366H768L758 340Q720 240 664 162L831 0H587ZM369 165T400 176L282 286Q265 274 257 259T248 227Q248 201 270 183T333 165Q369 165 400 176Z" glyph-name="ampersand" horiz-adv-x="831" unicode="&#x26;&#x61;&#x6d;&#x70;&#x3b;"/><glyph d="M220 803 207 568H59L45 803H220Z" glyph-name="quotesingle" horiz-adv-x="265" unicode="&#x26;&#x61;&#x70;&#x6f;&#x73;&#x3b;"/><glyph d="M165-138T110 11 54 333Q54 506 109 655T261 895H475V874Q378 772 322 629T266 333Q266 180 322 37T475-209V-229H261Q165-138 110 11Z" glyph-name="parenleft" horiz-adv-x="463" unicode="&#x28;"/><glyph d="M-12-229V-209Q85-107 141 36T197 333Q197 485 141 628T-12 874V895H202Q298 804 353 655T409 333Q409 160 354 11T202-229H-12Z" glyph-name="parenright" horiz-adv-x="463" unicode="&#x29;"/><glyph d="M420 709 487 588 376 552 487 518 414 391 327 477 355 360H216L244 477 159 390 84 519 195 555 86 587 153 708 245 625 214 744H356L327 625 420 709Z" glyph-name="asterisk" horiz-adv-x="561" unicode="&#x2a;"/><glyph d="M531 238H382V85H169V238H20V441H169V595H382V441H531V238Z" glyph-name="plus" horiz-adv-x="551" unicode="&#x2b;"/><glyph d="M288 177 185-120H45L92 177H288Z" glyph-name="comma" horiz-adv-x="342" unicode="&#x2c;"/><glyph d="M486 433V250H20V433H486Z" glyph-name="hyphen" horiz-adv-x="576" unicode="&#x2d;"/><glyph d="M102-8T67 23 32 101Q32 149 67 180T160 212Q217 212 252 181T287 101Q287 54 252 23T160-8Q102-8 67 23Z" glyph-name="period" horiz-adv-x="319" unicode="&#x2e;"/><glyph d="M442 955 177-198H-36L230 955H442Z" glyph-name="slash" horiz-adv-x="399" unicode="&#x2f;"/><glyph d="M32 549T105 648 332 747Q484 747 558 648T632 376Q632 203 558 104T332 4Q179 4 106 103T32 376Q32 549 105 648ZM413 456T397 496 332 537Q282 537 266 497T250 376Q250 295 266 255T332 214Q381 214 397 254T413 376Q413 456 397 496Z" glyph-name="zero" horiz-adv-x="662" unicode="&#x30;"/><glyph d="M10 523V731H349V0H116V523H10Z" glyph-name="one" horiz-adv-x="399" unicode="&#x31;"/><glyph d="M162 277T240 358 318 511Q318 535 308 548T280 561Q260 561 249 541T240 478H25Q28 571 65 631T163 719 295 747Q423 747 482 686T542 528Q542 427 478 339T316 189H545V10H28V177Q162 277 240 358Z" glyph-name="two" horiz-adv-x="566" unicode="&#x32;"/><glyph d="M48 621T114 684 303 747Q382 747 438 720T522 647 551 543Q551 473 518 434T444 380V376Q564 331 564 209 564 145 534 96T449 20 317-7Q187-7 113 55T37 249H253Q251 213 263 195T307 176Q325 176 337 189T349 225Q349 253 331 267T268 282H231V461H267Q335 457 335 515 335 540 325 552T298 564Q261 564 261 502H45Q48 621 114 684Z" glyph-name="three" horiz-adv-x="615" unicode="&#x33;"/><glyph d="M52 110V295L350 720H589V302H661V110H589V0H365V110H52ZM383 467 275 302H383V467Z" glyph-name="four" horiz-adv-x="704" unicode="&#x34;"/><glyph d="M584 536H294V452Q313 469 343 479T412 489Q480 489 527 457T597 372 620 253Q620 133 553 67T367 0Q281 0 219 30T124 113 93 234H309Q309 218 320 204T356 190Q381 190 393 208T405 257Q405 286 392 301T353 316Q332 316 321 306T310 283H94V731H584V536Z" glyph-name="five" horiz-adv-x="660" unicode="&#x35;"/><glyph d="M359 539T348 553 312 567Q274 567 262 529T249 409Q267 437 301 453T378 469Q474 469 531 410T589 239Q589 164 558 109T468 23 331-7Q174-7 113 89T52 360Q52 496 80 580T168 704 326 744Q445 744 505 676T572 509H365Q359 539 348 553ZM296 299T280 284 264 242Q264 212 279 198T323 183Q351 183 366 197T382 242Q382 269 366 284T323 299Q296 299 280 284Z" glyph-name="six" horiz-adv-x="633" unicode="&#x36;"/><glyph d="M502 568 274 0H46L276 541H18V731H502V568Z" glyph-name="seven" horiz-adv-x="512" unicode="&#x37;"/><glyph d="M109 425T87 462 64 552Q64 606 93 650T181 720 328 747Q415 747 474 721T563 650 592 552Q592 500 570 463T507 402Q608 343 608 225 608 149 570 96T468 16 328-11Q252-11 188 16T86 96 48 225Q48 343 149 402 109 425 87 462ZM374 543T361 559 328 576Q308 576 295 560T282 515Q282 486 295 471T328 456Q348 456 361 471T374 515Q374 543 361 559ZM298 307T281 288 263 238Q263 208 280 189T328 170Q359 170 376 189T393 238Q393 268 376 287T328 307Q298 307 281 288Z" glyph-name="eight" horiz-adv-x="657" unicode="&#x38;"/><glyph d="M259 199T272 185 310 170Q347 170 358 207T370 328Q352 300 318 284T241 268Q146 268 88 328T30 501Q30 576 61 631T151 717 288 747Q446 747 507 654T569 389Q569 191 509 92T305-7Q226-7 169 26T82 112 47 228H254Q259 199 272 185ZM323 438T339 453 355 495Q355 525 340 539T296 554Q268 554 253 540T237 495Q237 468 253 453T296 438Q323 438 339 453Z" glyph-name="nine" horiz-adv-x="597" unicode="&#x39;"/><glyph d="M102-8T67 23 32 101Q32 149 67 180T160 212Q217 212 252 181T287 101Q287 54 252 23T160-8Q102-8 67 23ZM102 388T67 419 32 497Q32 545 67 576T160 608Q217 608 252 577T287 497Q287 450 252 419T160 388Q102 388 67 419Z" glyph-name="colon" horiz-adv-x="319" unicode="&#x3a;"/><glyph d="M138 373T103 404 68 482Q68 530 103 561T196 593Q253 593 288 562T323 482Q323 435 288 404T196 373Q138 373 103 404ZM310 177 207-120H67L114 177H310Z" glyph-name="semicolon" horiz-adv-x="385" unicode="&#x3b;"/><glyph d="M200 125 20 340 200 556H477L297 340 477 125H200Z" glyph-name="less" horiz-adv-x="497" unicode="&#x26;&#x6c;&#x74;&#x3b;"/><glyph d="M606 580V379H20V580H606ZM606 300V99H20V300H606Z" glyph-name="equal" horiz-adv-x="626" unicode="&#x3d;"/><glyph d="M20 556H297L477 340 297 125H20L200 340 20 556Z" glyph-name="greater" horiz-adv-x="497" unicode="&#x26;&#x67;&#x74;&#x3b;"/><glyph d="M383 773T450 718 518 555Q518 467 459 413T303 357L297 286H101L95 498H179Q238 498 269 511T301 553Q301 572 292 582T266 593Q246 593 237 581T227 548H18Q15 610 42 661T128 742 272 773Q383 773 450 718ZM144-8T109 23 74 101Q74 149 109 180T202 212Q259 212 294 181T329 101Q329 54 294 23T202-8Q144-8 109 23Z" glyph-name="question" horiz-adv-x="538" unicode="&#x3f;"/><glyph d="M766 687T859 640 1002 509 1053 315Q1053 225 1021 153T927 38 778-4Q723-4 685 16T629 73Q604 34 563 14T468-7Q395-7 354 35T313 153Q313 224 341 287T419 388 531 427Q572 427 599 410T637 364L647 422H819L780 201Q777 188 777 176 777 138 809 138 849 138 869 186T890 309Q890 378 858 430T766 512 626 541Q518 541 429 489T288 347 236 152Q236 38 302-29T483-96Q585-96 669-60L707-199Q603-245 473-245 354-245 264-198T125-65 76 136Q76 295 151 420T356 616 645 687Q766 687 859 640ZM566 147T586 169 607 224Q607 247 595 260T564 274Q538 274 518 252T498 195Q498 173 509 160T541 147Q566 147 586 169Z" glyph-name="at" horiz-adv-x="1129" unicode="&#x40;"/><glyph d="M504 107H268L233 0H0L259 708H515L773 0H539L504 107ZM450 274 386 471 322 274H450Z" glyph-name="A" horiz-adv-x="773" unicode="&#x41;"/><glyph d="M588 348T623 302 659 194Q659 101 598 51T421 0H50V708H411Q519 708 581 661T643 524Q643 462 611 420T524 363Q588 348 623 302ZM272 432H358Q388 432 402 444T417 481Q417 507 403 519T358 532H272V432ZM403 178T417 189 432 227Q432 278 373 278H272V178H373Q403 178 417 189Z" glyph-name="B" horiz-adv-x="684" unicode="&#x42;"/><glyph d="M30 460T72 542 194 669 380 715Q472 715 544 681T662 583 723 436H489Q473 471 444 490T376 510Q320 510 288 468T255 355Q255 284 287 242T376 200Q414 200 443 219T489 274H723Q708 190 663 127T545 30 380-5Q273-5 194 40T73 168 30 355Q30 460 72 542Z" glyph-name="C" horiz-adv-x="753" unicode="&#x43;"/><glyph d="M456 708T539 663 668 538 713 356Q713 255 668 174T540 47 345 0H50V708H345Q456 708 539 663ZM400 198T444 239 488 356Q488 432 444 473T325 514H272V198H325Q400 198 444 239Z" glyph-name="D" horiz-adv-x="743" unicode="&#x44;"/><glyph d="M272 531V444H492V277H272V177H522V0H50V708H522V531H272Z" glyph-name="E" horiz-adv-x="556" unicode="&#x45;"/><glyph d="M550 708V532H272V434H472V267H272V0H50V708H550Z" glyph-name="F" horiz-adv-x="575" unicode="&#x46;"/><glyph d="M484 466Q471 487 447 498T389 510Q325 510 290 469T255 355Q255 272 294 231T414 190Q491 190 538 252H361V409H722V187Q676 108 595 52T390-5Q280-5 199 40T74 168 30 355Q30 460 73 542T198 669 388 715Q527 715 614 648T718 466H484Z" glyph-name="G" horiz-adv-x="752" unicode="&#x47;"/><glyph d="M705 708V0H483V276H272V0H50V708H272V453H483V708H705Z" glyph-name="H" horiz-adv-x="755" unicode="&#x48;"/><glyph d="M272 708V0H50V708H272Z" glyph-name="I" horiz-adv-x="322" unicode="&#x49;"/><glyph d="M544 708V251Q544 124 478 59T291-7Q162-7 86 64T10 271H229Q229 228 243 211T281 193Q301 193 312 206T323 251V708H544Z" glyph-name="J" horiz-adv-x="590" unicode="&#x4a;"/><glyph d="M478 0 272 307V0H50V708H272V410L475 708H726L482 369 742 0H478Z" glyph-name="K" horiz-adv-x="755" unicode="&#x4b;"/><glyph d="M272 168H486V0H50V708H272V168Z" glyph-name="L" horiz-adv-x="506" unicode="&#x4c;"/><glyph d="M901 708V0H680V353L571 0H381L272 353V0H50V708H322L478 283 630 708H901Z" glyph-name="M" horiz-adv-x="951" unicode="&#x4d;"/><glyph d="M729 0H507L272 356V0H50V708H272L507 346V708H729V0Z" glyph-name="N" horiz-adv-x="779" unicode="&#x4e;"/><glyph d="M295-7T212 40 79 170 30 357Q30 461 79 544T211 673 395 720Q495 720 578 674T709 544 758 357Q758 253 710 170T578 40 395-7Q295-7 212 40ZM461 200T497 242 533 357Q533 430 497 472T395 515Q328 515 292 473T256 357Q256 285 292 243T395 200Q461 200 497 242Z" glyph-name="O" horiz-adv-x="788" unicode="&#x4f;"/><glyph d="M629 398T598 344 507 257 360 225H272V0H50V708H360Q490 708 559 642T629 465Q629 398 598 344ZM404 400T404 465Q404 530 335 530H272V400H335Q404 400 404 465Z" glyph-name="P" horiz-adv-x="649" unicode="&#x50;"/><glyph d="M516-115 448-3Q425-7 395-7 295-7 212 40T79 170 30 357Q30 461 79 544T211 673 395 720Q495 720 578 674T709 544 758 357Q758 272 725 201T634 79L778-115H516ZM256 285T292 243 395 200Q461 200 497 242T533 357Q533 430 497 472T395 515Q328 515 292 473T256 357Q256 285 292 243Z" glyph-name="Q" horiz-adv-x="788" unicode="&#x51;"/><glyph d="M406 0 273 254H272V0H50V708H380Q466 708 527 678T618 595 649 476Q649 405 610 350T496 271L650 0H406ZM272 402H360Q392 402 408 416T424 462Q424 490 408 506T360 522H272V402Z" glyph-name="R" horiz-adv-x="670" unicode="&#x52;"/><glyph d="M200-7T118 52 28 227H264Q269 166 318 166 336 166 348 174T361 201Q361 226 334 241T250 277Q182 301 138 324T61 391 30 504Q30 573 65 621T162 695 301 720Q431 720 507 660T588 491H349Q348 521 334 534T300 547Q286 547 277 538T268 511Q268 487 294 472T379 434Q446 409 489 386T565 322 597 219Q597 154 565 103T472 22 327-7Q200-7 118 52Z" glyph-name="S" horiz-adv-x="625" unicode="&#x53;"/><glyph d="M606 708V532H418V0H196V532H10V708H606Z" glyph-name="T" horiz-adv-x="616" unicode="&#x54;"/><glyph d="M267 708V309Q267 260 288 232T358 203Q406 203 429 231T452 309V708H673V309Q673 208 631 137T516 29 353-7Q263-7 194 29T85 136 46 309V708H267Z" glyph-name="U" horiz-adv-x="719" unicode="&#x55;"/><glyph d="M763 708 525 0H238L0 708H236L382 221 527 708H763Z" glyph-name="V" horiz-adv-x="763" unicode="&#x56;"/><glyph d="M1070 708 908 0H632L550 402 468 0H192L30 708H269L333 262 429 708H671L767 262 831 708H1070Z" glyph-name="W" horiz-adv-x="1100" unicode="&#x57;"/><glyph d="M501 0 371 184 263 0H10L243 365 0 708H263L388 531 492 708H745L516 350 764 0H501Z" glyph-name="X" horiz-adv-x="764" unicode="&#x58;"/><glyph d="M730 708 476 215V0H254V215L0 708H254L367 457 480 708H730Z" glyph-name="Y" horiz-adv-x="730" unicode="&#x59;"/><glyph d="M296 177H580V0H50V167L330 532H50V708H580V541L296 177Z" glyph-name="Z" horiz-adv-x="630" unicode="&#x5a;"/><glyph d="M477 895V717H303V-51H477V-229H95V895H477Z" glyph-name="bracketleft" horiz-adv-x="533" unicode="&#x5b;"/><glyph d="M440-198 200 955H412L652-198H440Z" glyph-name="backslash" horiz-adv-x="878" unicode="&#x5c;"/><glyph d="M438-229H56V-51H230V717H56V895H438V-229Z" glyph-name="bracketright" horiz-adv-x="533" unicode="&#x5d;"/><glyph d="M245 162H25L271 711H489L733 162H513L380 460 245 162Z" glyph-name="asciicircum" horiz-adv-x="758" unicode="&#x5e;"/><glyph d="M724-42V-258H49V-42H724Z" glyph-name="underscore" horiz-adv-x="764" unicode="&#x5f;"/><glyph d="M269 750V602L10 696V860L269 750Z" glyph-name="grave" horiz-adv-x="324" unicode="&#x60;"/><glyph d="M20 371T50 436 134 536 253 571Q308 571 348 549T409 487V564H630V0H409V77Q388 38 348 16T253-7Q187-7 134 27T51 127 20 282Q20 371 50 436ZM409 327T386 352 327 377Q291 377 268 352T245 282Q245 237 268 212T327 187Q363 187 386 212T409 282Q409 327 386 352Z" glyph-name="a" horiz-adv-x="680" unicode="&#x61;"/><glyph d="M293 526T332 548 427 571Q493 571 546 537T629 437 660 282Q660 193 630 128T546 28 427-7Q372-7 333 15T272 77V0H50V740H272V487Q293 526 332 548ZM435 327T412 352 353 377Q317 377 294 352T271 282Q271 237 294 212T353 187Q389 187 412 212T435 282Q435 327 412 352Z" glyph-name="b" horiz-adv-x="680" unicode="&#x62;"/><glyph d="M20 370T56 435 158 536 308 571Q418 571 493 509T589 337H354Q341 381 303 381 276 381 261 356T245 282Q245 233 260 208T303 183Q341 183 354 227H589Q569 117 494 55T308-7Q224-7 159 28T57 128 20 282Q20 370 56 435Z" glyph-name="c" horiz-adv-x="609" unicode="&#x63;"/><glyph d="M20 371T50 436 134 536 253 571Q308 571 347 549T408 487V740H630V0H408V77Q387 38 348 16T253-7Q187-7 134 27T51 127 20 282Q20 371 50 436ZM409 327T386 352 327 377Q291 377 268 352T245 282Q245 237 268 212T327 187Q363 187 386 212T409 282Q409 327 386 352Z" glyph-name="d" horiz-adv-x="680" unicode="&#x64;"/><glyph d="M596 264T593 243H236Q241 170 297 170 333 170 349 203H584Q572 143 534 96T437 21 308-7Q224-7 159 28T57 128 20 282Q20 370 56 435T158 536 308 571Q392 571 457 537T559 438 596 287Q596 264 593 243ZM371 340Q371 368 353 382T308 397Q249 397 239 340H371Z" glyph-name="e" horiz-adv-x="616" unicode="&#x65;"/><glyph d="M357 606T350 606Q325 606 312 597T294 564H375V379H292V0H70V379H10V564H70Q72 674 139 734T329 795Q343 795 375 793V604Q357 606 350 606Z" glyph-name="f" horiz-adv-x="385" unicode="&#x66;"/><glyph d="M308 571T348 549 409 487V564H630V10Q630-69 601-134T508-238 342-277Q206-277 127-214T36-41H254Q263-85 326-85 365-85 387-65T409 10V77Q388 38 348 16T253-7Q187-7 134 27T51 127 20 282Q20 371 50 436T134 536 253 571Q308 571 348 549ZM409 327T386 352 327 377Q291 377 268 352T245 282Q245 237 268 212T327 187Q363 187 386 212T409 282Q409 327 386 352Z" glyph-name="g" horiz-adv-x="680" unicode="&#x67;"/><glyph d="M542 568T596 503 651 327V0H430V299Q430 339 409 362T351 386Q314 386 293 363T272 299V0H50V740H272V478Q298 518 341 543T445 568Q542 568 596 503Z" glyph-name="h" horiz-adv-x="697" unicode="&#x68;"/><glyph d="M104 609T69 640 34 718Q34 766 69 797T162 829Q219 829 254 798T289 718Q289 671 254 640T162 609Q104 609 69 640ZM272 564V0H50V564H272Z" glyph-name="i" horiz-adv-x="322" unicode="&#x69;"/><glyph d="M102 609T67 640 32 718Q32 766 67 797T160 829Q217 829 252 798T287 718Q287 671 252 640T160 609Q102 609 67 640ZM272-39Q272-270 40-270H-34V-81H9Q31-81 40-72T50-43V564H272V-39Z" glyph-name="j" horiz-adv-x="320" unicode="&#x6a;"/><glyph d="M411 0 272 225V0H50V740H272V353L413 564H671L460 280 676 0H411Z" glyph-name="k" horiz-adv-x="676" unicode="&#x6b;"/><glyph d="M272 740V0H50V740H272Z" glyph-name="l" horiz-adv-x="322" unicode="&#x6c;"/><glyph d="M911 568T970 503 1030 327V0H809V299Q809 335 788 355T730 376Q693 376 672 356T651 299V0H430V299Q430 335 409 355T351 376Q314 376 293 356T272 299V0H50V564H272V488Q296 524 337 546T435 568Q496 568 543 542T618 467Q649 511 697 539T803 568Q911 568 970 503Z" glyph-name="m" horiz-adv-x="1076" unicode="&#x6d;"/><glyph d="M542 568T596 503 651 327V0H430V299Q430 339 409 362T351 386Q314 386 293 363T272 299V0H50V564H272V478Q298 518 341 543T445 568Q542 568 596 503Z" glyph-name="n" horiz-adv-x="697" unicode="&#x6e;"/><glyph d="M233-7T165 28 59 128 20 282Q20 370 58 435T165 536 318 571Q403 571 471 536T577 436 616 282Q616 194 578 129T471 28 318-7Q233-7 165 28ZM349 185T370 209 391 282Q391 330 370 354T318 379Q287 379 266 355T245 282Q245 234 265 210T318 185Q349 185 370 209Z" glyph-name="o" horiz-adv-x="636" unicode="&#x6f;"/><glyph d="M293 526T332 548 427 571Q493 571 546 537T629 437 660 282Q660 193 630 128T546 28 427-7Q372-7 333 15T272 77V-270H50V564H272V487Q293 526 332 548ZM435 327T412 352 353 377Q317 377 294 352T271 282Q271 237 294 212T353 187Q389 187 412 212T435 282Q435 327 412 352Z" glyph-name="p" horiz-adv-x="680" unicode="&#x70;"/><glyph d="M20 361T54 427 145 530 269 568Q314 568 348 556T409 514V564H630V-270H409V62Q379 27 346 11T269-6Q202-6 145 30T54 130 20 278Q20 361 54 427ZM409 331T384 353 327 376Q297 376 271 352T245 278Q245 230 270 209T327 187Q358 187 383 210T409 282Q409 331 384 353Z" glyph-name="q" horiz-adv-x="680" unicode="&#x71;"/><glyph d="M306 509T355 538 457 568V331H394Q331 331 302 309T272 231V0H50V564H272V460Q306 509 355 538Z" glyph-name="r" horiz-adv-x="467" unicode="&#x72;"/><glyph d="M221-7T160 19 62 91 21 195H234Q238 170 255 158T300 146Q317 146 327 153T337 172Q337 191 316 199T245 217Q184 229 145 243T76 291 46 385Q46 437 73 479T155 546 286 571Q400 571 464 515T542 369H345Q340 392 324 404T281 417Q264 417 255 411T246 391Q246 374 267 366T334 348Q395 336 437 321T510 270 541 169Q541 119 512 79T429 16 301-7Q221-7 160 19Z" glyph-name="s" horiz-adv-x="579" unicode="&#x73;"/><glyph d="M401 189V0H317Q85 0 85 231V379H15V564H85V700H307V564H399V379H307V227Q307 207 316 198T348 189H401Z" glyph-name="t" horiz-adv-x="436" unicode="&#x74;"/><glyph d="M647 564V0H425V86Q399 46 356 21T252-4Q155-4 101 61T46 237V564H267V265Q267 225 288 202T346 178Q383 178 404 201T425 265V564H647Z" glyph-name="u" horiz-adv-x="697" unicode="&#x75;"/><glyph d="M336 211 426 564H662L474 0H197L9 564H245L336 211Z" glyph-name="v" horiz-adv-x="671" unicode="&#x76;"/><glyph d="M906 564 772 0H522L454 318 382 0H132L-1 564H219L266 221 339 564H576L653 217 701 564H906Z" glyph-name="w" horiz-adv-x="903" unicode="&#x77;"/><glyph d="M420 0 325 127 254 0H10L199 297 0 564H248L343 436 415 564H659L464 274 668 0H420Z" glyph-name="x" horiz-adv-x="668" unicode="&#x78;"/><glyph d="M687 564 326-270H83L225 28-10 564H237L343 278 442 564H687Z" glyph-name="y" horiz-adv-x="677" unicode="&#x79;"/><glyph d="M263 184H498V0H20V174L235 380H23V564H488V390L263 184Z" glyph-name="z" horiz-adv-x="518" unicode="&#x7a;"/><glyph d="M60 423Q111 423 131 438T152 486Q152 511 141 570 127 646 127 688 127 787 188 841T354 895H430V718H396Q364 718 351 704T337 664Q337 648 345 584 355 510 355 477 355 418 328 381T247 333V331Q301 321 328 284T355 187Q355 154 345 80 337 16 337 0 337-26 350-40T396-54H430V-231H354Q249-231 188-177T127-24Q127 18 141 94 152 153 152 178 152 209 131 225T60 242V423Z" glyph-name="braceleft" horiz-adv-x="484" unicode="&#x7b;"/><glyph d="M242-144H20V828H242V-144Z" glyph-name="bar" horiz-adv-x="262" unicode="&#x7c;"/><glyph d="M374 242T353 226 332 178Q332 153 343 94 357 18 357-24 357-123 296-177T130-231H54V-54H88Q120-54 133-40T147 0Q147 16 139 80 129 154 129 187 129 246 156 283T237 331V333Q183 343 156 380T129 477Q129 510 139 584 147 648 147 664 147 690 134 704T88 718H54V895H130Q235 895 296 841T357 688Q357 646 343 570 332 511 332 486 332 453 352 438T424 423V242Q374 242 353 226Z" glyph-name="braceright" horiz-adv-x="484" unicode="&#x7d;"/><glyph d="M42 317T103 381 255 445Q291 445 321 435T387 405Q414 391 431 385T466 378Q493 378 506 393T525 447H691Q670 312 608 248T455 183Q419 183 390 193T324 223Q294 238 278 244T244 250Q217 250 204 234T184 181H20Q42 317 103 381Z" glyph-name="asciitilde" horiz-adv-x="711" unicode="&#x7e;"/><glyph glyph-name="uni00A0" horiz-adv-x="170" unicode="&#xa0;"/><glyph d="M285 576T320 545 355 467Q355 419 320 388T228 356Q170 356 135 387T100 467Q100 514 135 545T228 576Q285 576 320 545ZM133 287H323L349-187H107L133 287Z" glyph-name="exclamdown" horiz-adv-x="455" unicode="&#xa1;"/><glyph d="M319 170T335 179 356 205H559Q555 142 523 96T439 24 326-7V-83H264V-7Q150 3 85 70T20 254Q20 370 85 436T264 513V589H326V513Q421 506 487 451T559 302H356Q349 321 334 329T301 337Q267 337 250 315T232 253Q232 213 249 192T301 170Q319 170 335 179Z" glyph-name="cent" horiz-adv-x="579" unicode="&#xa2;"/><glyph d="M615 165V-6H63L36 98Q82 134 105 175T134 274H31V421H108Q91 493 91 548 91 618 123 668T213 744 346 771Q470 771 538 705T613 531H409Q402 591 354 591 302 591 302 522 302 505 309 478T324 421H492V274H342Q327 203 280 165H615Z" glyph-name="sterling" horiz-adv-x="679" unicode="&#xa3;"/><glyph d="M532 316T494 268L543 219 463 138 395 206Q356 193 304 193 253 193 209 207L140 138 60 219 112 271Q76 316 76 379 76 443 113 488L60 541 140 622 213 549Q253 561 304 561 350 561 391 550L463 622 543 541 492 491Q532 446 532 379 532 316 494 268ZM329 320T345 334 362 377Q362 408 346 422T304 436Q279 436 263 422T246 377Q246 348 262 334T304 320Q329 320 345 334Z" glyph-name="currency" horiz-adv-x="603" unicode="&#xa4;"/><glyph d="M598 452H675V308H524L505 272H675V128H476V0H254V128H53V272H225L206 308H53V452H132L0 708H254L367 424 480 708H730L598 452Z" glyph-name="yen" horiz-adv-x="730" unicode="&#xa5;"/><glyph d="M105 828H327V398H105V828ZM327-144H105V287H327V-144Z" glyph-name="brokenbar" horiz-adv-x="432" unicode="&#xa6;"/><glyph d="M575 197T553 162 478 101Q536 37 536-44 536-130 472-182T291-235Q183-235 122-177T53-25H272Q274-79 296-79 312-79 312-55 312-36 298-21T255 12 163 62Q95 97 58 143T21 244Q21 348 116 388 87 420 73 457T59 532Q59 618 123 670T304 723Q412 723 473 665T542 513H323Q321 567 299 567 283 567 283 543 283 524 296 509T340 476 432 427Q575 349 575 244 575 197 553 162ZM316 189T327 204 339 244Q339 268 329 283T300 299Q281 299 270 284T258 244Q258 220 268 205T297 189Q316 189 327 204Z" glyph-name="section" horiz-adv-x="595" unicode="&#xa7;"/><glyph d="M59 620T35 644 10 705Q10 742 34 767T95 792Q133 792 157 768T182 705Q182 669 157 645T95 620Q59 620 35 644ZM284 620T260 644 235 705Q235 742 259 767T320 792Q358 792 382 768T407 705Q407 669 382 645T320 620Q284 620 260 644Z" glyph-name="dieresis" horiz-adv-x="417" unicode="&#xa8;"/><glyph d="M490 720T571 674 696 546 741 358Q741 252 696 170T571 41 386-6Q282-6 201 40T75 170 30 358Q30 463 75 545T201 674 386 720Q490 720 571 674ZM298 655T234 619 135 515 100 358Q100 268 134 201T234 96 386 59Q473 59 537 96T637 201 672 358Q672 448 637 515T538 618 386 655Q298 655 234 619ZM323 578T272 551 192 474 164 357Q164 290 192 240T271 163 390 136Q472 136 531 185T602 316H418Q408 281 380 281 358 281 347 300T335 357Q335 395 346 414T380 433Q408 433 418 398H602Q590 480 531 529T390 578Q323 578 272 551Z" glyph-name="copyright" horiz-adv-x="771" unicode="&#xa9;"/><glyph d="M20 616T66 664 184 712Q225 712 251 702T297 669V708H461V355H297V394Q278 371 252 361T186 350Q113 350 67 397T20 530Q20 616 66 664ZM189 505T204 493 243 481Q266 481 281 494T297 532Q297 556 282 569T243 582Q220 582 205 568T189 529Q189 505 204 493Z" glyph-name="ordfeminine" horiz-adv-x="481" unicode="&#xaa;"/><glyph d="M122 120 45 295 122 470H323L244 295 323 120H122ZM377 120 300 295 377 470H578L499 295 578 120H377Z" glyph-name="guillemotleft" horiz-adv-x="618" unicode="&#xab;"/><glyph d="M713 448V155H491V282H55V448H713Z" glyph-name="logicalnot" horiz-adv-x="778" unicode="&#xac;"/><glyph d="M486 433V250H20V433H486Z" glyph-name="uni00AD" horiz-adv-x="576" unicode="&#xad;"/><glyph d="M321 721T372 693 452 614 481 498Q481 434 453 383T373 304 256 275Q191 275 140 303T59 383 30 498Q30 563 59 613T139 692 256 721Q321 721 372 693ZM327 340T369 384 412 498Q412 569 370 612T256 656Q184 656 142 613T99 498Q99 428 142 384T256 340Q327 340 369 384ZM357 518T348 503 321 478L368 396H282L245 469H240V396H160V606H280Q315 606 336 588T357 538Q357 518 348 503ZM237 517H261Q274 517 274 530 274 543 261 543H237V517Z" glyph-name="registered" horiz-adv-x="511" unicode="&#xae;"/><glyph d="M441 769V622H10V769H441Z" glyph-name="overscore" horiz-adv-x="451" unicode="&#xaf;"/><glyph d="M23 618T84 666 249 715Q351 715 412 667T473 533Q473 447 414 397T253 347Q186 347 134 370T52 435 23 533Q23 618 84 666ZM304 566T288 583 250 600Q227 600 210 583T192 531Q192 497 211 481T253 464Q274 464 289 480T304 531Q304 566 288 583Z" glyph-name="degree" horiz-adv-x="496" unicode="&#xb0;"/><glyph d="M382 344V297H531V96H20V297H169V344H20V545H169V630H382V545H531V344H382Z" glyph-name="plusminus" horiz-adv-x="551" unicode="&#xb1;"/><glyph d="M223 477H393V352H48V474L183 544Q230 568 230 595 230 603 221 603 204 603 203 569H40Q45 635 99 676T243 717Q325 717 364 685T403 609Q403 573 371 547T263 492L223 477Z" glyph-name="twosuperior" horiz-adv-x="422" unicode="&#xb2;"/><glyph d="M20 636T64 676 209 717Q288 717 332 688T376 611Q376 549 301 537V533Q346 523 365 504T385 452Q385 402 339 376T213 349Q108 349 64 383T13 482H185Q185 471 188 467T199 462Q212 462 212 483 212 497 206 502T185 508H155V562H176Q190 562 196 568T202 588Q202 605 190 605 183 605 180 599T176 577H20Q20 636 64 676Z" glyph-name="threesuperior" horiz-adv-x="403" unicode="&#xb3;"/><glyph d="M269 696 10 602V750L269 860V696Z" glyph-name="acute" horiz-adv-x="279" unicode="&#xb4;"/><glyph d="M676 564V0H454V77Q430 42 390 20T296-4V-270H75V564H296V266Q296 230 317 209T375 188Q412 188 433 209T454 266V564H676Z" glyph-name="uni00B5" horiz-adv-x="751" unicode="&#xb5;"/><glyph d="M703 0H526V542H468V0H292V265H261Q179 265 126 296T47 378 22 486Q22 544 47 594T125 676 261 708H703V0Z" glyph-name="paragraph" horiz-adv-x="778" unicode="&#xb6;"/><glyph d="M117 187T82 218 47 296Q47 344 82 375T175 407Q232 407 267 376T302 296Q302 249 267 218T175 187Q117 187 82 218Z" glyph-name="middot" horiz-adv-x="349" unicode="&#xb7;"/><glyph d="M231-27T261-38 312-77 333-149Q333-214 288-242T183-271H10V-158H160Q172-158 179-154T186-142Q186-127 160-127H75V7H203V-27Q231-27 261-38Z" glyph-name="cedilla" horiz-adv-x="343" unicode="&#xb8;"/><glyph d="M20 577V704H250V352H86V577H20Z" glyph-name="onesuperior" horiz-adv-x="285" unicode="&#xb9;"/><glyph d="M20 581T46 621 120 685 235 709Q301 709 349 686T424 622 450 529Q450 478 424 437T349 371 235 347Q170 347 121 371T46 436 20 529Q20 581 46 621ZM283 556T270 570 235 584Q214 584 201 570T187 529Q187 502 200 488T235 473Q256 473 269 487T283 529Q283 556 270 570Z" glyph-name="ordmasculine" horiz-adv-x="470" unicode="&#xba;"/><glyph d="M130 295 50 470H252L328 295 252 120H50L130 295ZM385 295 305 470H507L583 295 507 120H305L385 295Z" glyph-name="guillemotright" horiz-adv-x="618" unicode="&#xbb;"/><glyph d="M714 708 327 0H110L498 708H714ZM45 577V704H275V352H111V577H45ZM857 58H822V0H657V58H454V142L595 351H822V146H857V58ZM666 250 607 151H666V250Z" glyph-name="onequarter" horiz-adv-x="879" unicode="&#xbc;"/><glyph d="M724 711 327 0H110L508 711H724ZM111 577H45V704H275V352H111V577ZM677 124H847V-1H502V121L637 191Q684 215 684 242 684 250 675 250 658 250 657 216H494Q499 282 553 323T697 364Q779 364 818 332T857 256Q857 220 825 194T717 139L677 124Z" glyph-name="onehalf" horiz-adv-x="928" unicode="&#xbd;"/><glyph d="M73 636T117 676 262 717Q341 717 385 688T429 611Q429 549 354 537V533Q399 523 418 504T438 452Q438 402 392 376T266 349Q161 349 117 383T66 482H238Q238 471 241 467T252 462Q265 462 265 483 265 497 259 502T238 508H208V562H229Q243 562 249 568T255 588Q255 605 243 605 236 605 233 599T229 577H73Q73 636 117 676ZM847 711 477 0H261L630 711H847ZM1009 58H974V0H810V58H606V142L727 351H974V146H1009V58ZM819 270 760 146H819V270Z" glyph-name="threequarters" horiz-adv-x="1024" unicode="&#xbe;"/><glyph d="M392 581T427 550 462 472Q462 424 427 393T334 361Q277 361 242 392T207 472Q207 519 242 550T334 581Q392 581 427 550ZM153-200T86-145 18 18Q18 106 77 160T233 216L239 287H435L441 75H357Q298 75 267 62T235 20Q235 1 244-9T270-20Q290-20 299-8T309 25H518Q521-37 494-88T408-169 264-200Q153-200 86-145Z" glyph-name="questiondown" horiz-adv-x="538" unicode="&#xbf;"/><glyph d="M504 107H268L233 0H0L259 708H515L773 0H539L504 107ZM450 274 386 471 322 274H450ZM515 897V749L256 843V1007L515 897Z" glyph-name="Agrave" horiz-adv-x="773" unicode="&#xc0;"/><glyph d="M504 107H268L233 0H0L259 708H515L773 0H539L504 107ZM450 274 386 471 322 274H450ZM515 843 256 749V897L515 1007V843Z" glyph-name="Aacute" horiz-adv-x="773" unicode="&#xc1;"/><glyph d="M504 107H268L233 0H0L259 708H515L773 0H539L504 107ZM450 274 386 471 322 274H450ZM387 827 221 749V893L387 968 552 893V749L387 827Z" glyph-name="Acircumflex" horiz-adv-x="773" unicode="&#xc2;"/><glyph d="M504 107H268L233 0H0L259 708H515L773 0H539L504 107ZM450 274 386 471 322 274H450ZM169 842T209 883 314 925Q338 925 359 918T404 898Q423 888 434 884T458 879Q495 879 502 926H611Q595 833 555 792T450 751Q426 751 405 758T360 778Q346 785 332 790T306 796Q270 796 261 749H153Q169 842 209 883Z" glyph-name="Atilde" horiz-adv-x="773" unicode="&#xc3;"/><glyph d="M504 107H268L233 0H0L259 708H515L773 0H539L504 107ZM450 274 386 471 322 274H450ZM237 767T213 791 188 852Q188 889 212 914T273 939Q311 939 335 915T360 852Q360 816 335 792T273 767Q237 767 213 791ZM462 767T438 791 413 852Q413 889 437 914T498 939Q536 939 560 915T585 852Q585 816 560 792T498 767Q462 767 438 791Z" glyph-name="Adieresis" horiz-adv-x="773" unicode="&#xc4;"/><glyph d="M504 107H268L233 0H0L259 708H515L773 0H539L504 107ZM450 274 386 471 322 274H450ZM519 812T481 776 387 740Q331 740 293 776T255 872Q255 932 293 968T387 1004Q443 1004 481 968T519 872Q519 812 481 776ZM433 893T420 906 387 919Q367 919 354 906T341 872Q341 851 354 838T387 825Q407 825 420 838T433 872Q433 893 420 906Z" glyph-name="Aring" horiz-adv-x="773" unicode="&#xc5;"/><glyph d="M712 532V447H922V280H712V177H952V0H490V97H286L241 0H0L339 708H952V532H712ZM490 264V537L363 264H490Z" glyph-name="AE" horiz-adv-x="986" unicode="&#xc6;"/><glyph d="M414 200T443 219 489 274H723Q704 163 631 90T446 0H451V-34Q479-34 509-45T560-84 581-156Q581-221 536-249T431-278H258V-165H408Q420-165 427-161T434-149Q434-134 408-134H323V-1Q233 11 167 59T65 183 30 355Q30 460 72 542T194 669 380 715Q472 715 544 681T662 583 723 436H489Q473 471 444 490T376 510Q320 510 288 468T255 355Q255 284 287 242T376 200Q414 200 443 219Z" glyph-name="Ccedilla" horiz-adv-x="753" unicode="&#xc7;"/><glyph d="M272 531V444H492V277H272V177H522V0H50V708H522V531H272ZM410 897V749L151 843V1007L410 897Z" glyph-name="Egrave" horiz-adv-x="556" unicode="&#xc8;"/><glyph d="M272 531V444H492V277H272V177H522V0H50V708H522V531H272ZM410 843 151 749V897L410 1007V843Z" glyph-name="Eacute" horiz-adv-x="556" unicode="&#xc9;"/><glyph d="M272 531V444H492V277H272V177H522V0H50V708H522V531H272ZM282 827 116 749V893L282 968 447 893V749L282 827Z" glyph-name="Ecircumflex" horiz-adv-x="556" unicode="&#xca;"/><glyph d="M272 531V444H492V277H272V177H522V0H50V708H522V531H272ZM132 767T108 791 83 852Q83 889 107 914T168 939Q206 939 230 915T255 852Q255 816 230 792T168 767Q132 767 108 791ZM357 767T333 791 308 852Q308 889 332 914T393 939Q431 939 455 915T480 852Q480 816 455 792T393 767Q357 767 333 791Z" glyph-name="Edieresis" horiz-adv-x="556" unicode="&#xcb;"/><glyph d="M272 708V0H50V708H272ZM290 897V749L31 843V1007L290 897Z" glyph-name="Igrave" horiz-adv-x="322" unicode="&#xcc;"/><glyph d="M272 708V0H50V708H272ZM290 843 31 749V897L290 1007V843Z" glyph-name="Iacute" horiz-adv-x="322" unicode="&#xcd;"/><glyph d="M272 708V0H50V708H272ZM162 827-4 749V893L162 968 327 893V749L162 827Z" glyph-name="Icircumflex" horiz-adv-x="322" unicode="&#xce;"/><glyph d="M272 708V0H50V708H272ZM12 767T-12 791-37 852Q-37 889-13 914T48 939Q86 939 110 915T135 852Q135 816 110 792T48 767Q12 767-12 791ZM237 767T213 791 188 852Q188 889 212 914T273 939Q311 939 335 915T360 852Q360 816 335 792T273 767Q237 767 213 791Z" glyph-name="Idieresis" horiz-adv-x="322" unicode="&#xcf;"/><glyph d="M456 708T539 663 668 538 713 356Q713 255 668 174T540 47 345 0H50V268H0V444H50V708H345Q456 708 539 663ZM400 198T444 239 488 356Q488 432 444 473T325 514H272V444H402V268H272V198H325Q400 198 444 239Z" glyph-name="Eth" horiz-adv-x="743" unicode="&#xd0;"/><glyph d="M729 0H507L272 356V0H50V708H272L507 346V708H729V0ZM171 842T211 883 316 925Q340 925 361 918T406 898Q425 888 436 884T460 879Q497 879 504 926H613Q597 833 557 792T452 751Q428 751 407 758T362 778Q348 785 334 790T308 796Q272 796 263 749H155Q171 842 211 883Z" glyph-name="Ntilde" horiz-adv-x="779" unicode="&#xd1;"/><glyph d="M295-7T212 40 79 170 30 357Q30 461 79 544T211 673 395 720Q495 720 578 674T709 544 758 357Q758 253 710 170T578 40 395-7Q295-7 212 40ZM461 200T497 242 533 357Q533 430 497 472T395 515Q328 515 292 473T256 357Q256 285 292 243T395 200Q461 200 497 242ZM523 897V749L264 843V1007L523 897Z" glyph-name="Ograve" horiz-adv-x="788" unicode="&#xd2;"/><glyph d="M295-7T212 40 79 170 30 357Q30 461 79 544T211 673 395 720Q495 720 578 674T709 544 758 357Q758 253 710 170T578 40 395-7Q295-7 212 40ZM461 200T497 242 533 357Q533 430 497 472T395 515Q328 515 292 473T256 357Q256 285 292 243T395 200Q461 200 497 242ZM523 843 264 749V897L523 1007V843Z" glyph-name="Oacute" horiz-adv-x="788" unicode="&#xd3;"/><glyph d="M295-7T212 40 79 170 30 357Q30 461 79 544T211 673 395 720Q495 720 578 674T709 544 758 357Q758 253 710 170T578 40 395-7Q295-7 212 40ZM461 200T497 242 533 357Q533 430 497 472T395 515Q328 515 292 473T256 357Q256 285 292 243T395 200Q461 200 497 242ZM395 827 229 749V893L395 968 560 893V749L395 827Z" glyph-name="Ocircumflex" horiz-adv-x="788" unicode="&#xd4;"/><glyph d="M295-7T212 40 79 170 30 357Q30 461 79 544T211 673 395 720Q495 720 578 674T709 544 758 357Q758 253 710 170T578 40 395-7Q295-7 212 40ZM461 200T497 242 533 357Q533 430 497 472T395 515Q328 515 292 473T256 357Q256 285 292 243T395 200Q461 200 497 242ZM177 842T217 883 322 925Q346 925 367 918T412 898Q431 888 442 884T466 879Q503 879 510 926H619Q603 833 563 792T458 751Q434 751 413 758T368 778Q354 785 340 790T314 796Q278 796 269 749H161Q177 842 217 883Z" glyph-name="Otilde" horiz-adv-x="788" unicode="&#xd5;"/><glyph d="M295-7T212 40 79 170 30 357Q30 461 79 544T211 673 395 720Q495 720 578 674T709 544 758 357Q758 253 710 170T578 40 395-7Q295-7 212 40ZM461 200T497 242 533 357Q533 430 497 472T395 515Q328 515 292 473T256 357Q256 285 292 243T395 200Q461 200 497 242ZM245 767T221 791 196 852Q196 889 220 914T281 939Q319 939 343 915T368 852Q368 816 343 792T281 767Q245 767 221 791ZM470 767T446 791 421 852Q421 889 445 914T506 939Q544 939 568 915T593 852Q593 816 568 792T506 767Q470 767 446 791Z" glyph-name="Odieresis" horiz-adv-x="788" unicode="&#xd6;"/><glyph d="M414 78 287 204 163 79 20 221 144 347 24 467 171 612 289 494 406 612 550 470 432 351 561 223 414 78Z" glyph-name="multiply" horiz-adv-x="581" unicode="&#xd7;"/><glyph d="M669 600Q711 552 734 490T757 357Q757 253 709 170T577 40 394-7Q336-7 283 9T184 56L134 1H18L119 113Q76 161 53 223T29 357Q29 461 78 544T210 673 394 720Q510 720 605 657L654 712H769L669 600ZM255 313T268 281L463 499Q433 515 394 515 327 515 291 473T255 357Q255 313 268 281ZM532 401T519 433L325 215Q355 200 394 200 460 200 496 242T532 357Q532 401 519 433Z" glyph-name="Oslash" horiz-adv-x="788" unicode="&#xd8;"/><glyph d="M267 708V309Q267 260 288 232T358 203Q406 203 429 231T452 309V708H673V309Q673 208 631 137T516 29 353-7Q263-7 194 29T85 136 46 309V708H267ZM488 897V749L229 843V1007L488 897Z" glyph-name="Ugrave" horiz-adv-x="719" unicode="&#xd9;"/><glyph d="M267 708V309Q267 260 288 232T358 203Q406 203 429 231T452 309V708H673V309Q673 208 631 137T516 29 353-7Q263-7 194 29T85 136 46 309V708H267ZM488 843 229 749V897L488 1007V843Z" glyph-name="Uacute" horiz-adv-x="719" unicode="&#xda;"/><glyph d="M267 708V309Q267 260 288 232T358 203Q406 203 429 231T452 309V708H673V309Q673 208 631 137T516 29 353-7Q263-7 194 29T85 136 46 309V708H267ZM360 827 194 749V893L360 968 525 893V749L360 827Z" glyph-name="Ucircumflex" horiz-adv-x="719" unicode="&#xdb;"/><glyph d="M267 708V309Q267 260 288 232T358 203Q406 203 429 231T452 309V708H673V309Q673 208 631 137T516 29 353-7Q263-7 194 29T85 136 46 309V708H267ZM210 767T186 791 161 852Q161 889 185 914T246 939Q284 939 308 915T333 852Q333 816 308 792T246 767Q210 767 186 791ZM435 767T411 791 386 852Q386 889 410 914T471 939Q509 939 533 915T558 852Q558 816 533 792T471 767Q435 767 411 791Z" glyph-name="Udieresis" horiz-adv-x="719" unicode="&#xdc;"/><glyph d="M730 708 476 215V0H254V215L0 708H254L367 457 480 708H730ZM494 843 235 749V897L494 1007V843Z" glyph-name="Yacute" horiz-adv-x="730" unicode="&#xdd;"/><glyph d="M629 291T598 239 507 156 360 125H272V0H50V708H270V588H360Q490 588 559 525T629 355Q629 291 598 239ZM404 290T404 355Q404 420 335 420H272V290H335Q404 290 404 355Z" glyph-name="Thorn" horiz-adv-x="649" unicode="&#xde;"/><glyph d="M44 587T85 644 198 732 360 763Q437 763 499 738T598 670 634 572Q634 532 617 503T572 440Q562 428 554 417T546 398Q546 387 560 377T626 346Q705 314 738 277T771 179Q771 123 742 80T660 14 540-10Q433-10 369 40T286 188H480Q486 168 501 156T534 143Q548 143 556 150T564 169Q564 183 550 194T488 223Q398 257 362 286T326 358Q326 384 339 407T377 463Q396 485 405 501T415 531Q415 553 396 566T346 580Q309 580 287 558T264 499V0H44V509Q44 587 85 644Z" glyph-name="germandbls" horiz-adv-x="815" unicode="&#xdf;"/><glyph d="M20 371T50 436 134 536 253 571Q308 571 348 549T409 487V564H630V0H409V77Q388 38 348 16T253-7Q187-7 134 27T51 127 20 282Q20 371 50 436ZM409 327T386 352 327 377Q291 377 268 352T245 282Q245 237 268 212T327 187Q363 187 386 212T409 282Q409 327 386 352ZM475 750V602L216 696V860L475 750Z" glyph-name="agrave" horiz-adv-x="680" unicode="&#xe0;"/><glyph d="M20 371T50 436 134 536 253 571Q308 571 348 549T409 487V564H630V0H409V77Q388 38 348 16T253-7Q187-7 134 27T51 127 20 282Q20 371 50 436ZM409 327T386 352 327 377Q291 377 268 352T245 282Q245 237 268 212T327 187Q363 187 386 212T409 282Q409 327 386 352ZM475 696 216 602V750L475 860V696Z" glyph-name="aacute" horiz-adv-x="680" unicode="&#xe1;"/><glyph d="M20 371T50 436 134 536 253 571Q308 571 348 549T409 487V564H630V0H409V77Q388 38 348 16T253-7Q187-7 134 27T51 127 20 282Q20 371 50 436ZM409 327T386 352 327 377Q291 377 268 352T245 282Q245 237 268 212T327 187Q363 187 386 212T409 282Q409 327 386 352ZM347 680 181 602V746L347 821 512 746V602L347 680Z" glyph-name="acircumflex" horiz-adv-x="680" unicode="&#xe2;"/><glyph d="M20 371T50 436 134 536 253 571Q308 571 348 549T409 487V564H630V0H409V77Q388 38 348 16T253-7Q187-7 134 27T51 127 20 282Q20 371 50 436ZM409 327T386 352 327 377Q291 377 268 352T245 282Q245 237 268 212T327 187Q363 187 386 212T409 282Q409 327 386 352ZM129 695T169 736 274 778Q298 778 319 771T364 751Q383 741 394 737T418 732Q455 732 462 779H571Q555 686 515 645T410 604Q386 604 365 611T320 631Q306 638 292 643T266 649Q230 649 221 602H113Q129 695 169 736Z" glyph-name="atilde" horiz-adv-x="680" unicode="&#xe3;"/><glyph d="M20 371T50 436 134 536 253 571Q308 571 348 549T409 487V564H630V0H409V77Q388 38 348 16T253-7Q187-7 134 27T51 127 20 282Q20 371 50 436ZM409 327T386 352 327 377Q291 377 268 352T245 282Q245 237 268 212T327 187Q363 187 386 212T409 282Q409 327 386 352ZM197 620T173 644 148 705Q148 742 172 767T233 792Q271 792 295 768T320 705Q320 669 295 645T233 620Q197 620 173 644ZM422 620T398 644 373 705Q373 742 397 767T458 792Q496 792 520 768T545 705Q545 669 520 645T458 620Q422 620 398 644Z" glyph-name="adieresis" horiz-adv-x="680" unicode="&#xe4;"/><glyph d="M20 371T50 436 134 536 253 571Q308 571 348 549T409 487V564H630V0H409V77Q388 38 348 16T253-7Q187-7 134 27T51 127 20 282Q20 371 50 436ZM409 327T386 352 327 377Q291 377 268 352T245 282Q245 237 268 212T327 187Q363 187 386 212T409 282Q409 327 386 352ZM479 665T441 629 347 593Q291 593 253 629T215 725Q215 785 253 821T347 857Q403 857 441 821T479 725Q479 665 441 629ZM393 746T380 759 347 772Q327 772 314 759T301 725Q301 704 314 691T347 678Q367 678 380 691T393 725Q393 746 380 759Z" glyph-name="aring" horiz-adv-x="680" unicode="&#xe5;"/><glyph d="M1034 266T1029 243H638Q643 201 663 184T717 167Q771 167 787 203H1022Q1004 111 943 52T796-7Q736-7 694 15T630 77V0H409V77Q388 38 348 16T253-7Q187-7 134 27T51 127 20 282Q20 371 50 436T134 536 253 571Q308 571 348 549T409 487V564H630V487Q650 527 693 549T796 571Q866 571 919 537T1003 438 1034 287Q1034 266 1029 243ZM809 334Q809 365 785 381T724 397Q652 397 639 334H809ZM363 187T386 212 409 282Q409 327 386 352T327 377Q291 377 268 352T245 282Q245 237 268 212T327 187Q363 187 386 212Z" glyph-name="ae" horiz-adv-x="1054" unicode="&#xe6;"/><glyph d="M341 183T354 227H589Q572 134 515 75T373-1V-34Q401-34 431-45T482-84 503-156Q503-221 458-249T353-278H180V-165H330Q342-165 349-161T356-149Q356-134 330-134H245V-2Q142 16 81 91T20 282Q20 370 56 435T158 536 308 571Q418 571 493 509T589 337H354Q341 381 303 381 276 381 261 356T245 282Q245 233 260 208T303 183Q341 183 354 227Z" glyph-name="ccedilla" horiz-adv-x="609" unicode="&#xe7;"/><glyph d="M596 264T593 243H236Q241 170 297 170 333 170 349 203H584Q572 143 534 96T437 21 308-7Q224-7 159 28T57 128 20 282Q20 370 56 435T158 536 308 571Q392 571 457 537T559 438 596 287Q596 264 593 243ZM371 340Q371 368 353 382T308 397Q249 397 239 340H371ZM436 757V609L177 703V867L436 757Z" glyph-name="egrave" horiz-adv-x="616" unicode="&#xe8;"/><glyph d="M596 264T593 243H236Q241 170 297 170 333 170 349 203H584Q572 143 534 96T437 21 308-7Q224-7 159 28T57 128 20 282Q20 370 56 435T158 536 308 571Q392 571 457 537T559 438 596 287Q596 264 593 243ZM371 340Q371 368 353 382T308 397Q249 397 239 340H371ZM436 703 177 609V757L436 867V703Z" glyph-name="eacute" horiz-adv-x="616" unicode="&#xe9;"/><glyph d="M596 264T593 243H236Q241 170 297 170 333 170 349 203H584Q572 143 534 96T437 21 308-7Q224-7 159 28T57 128 20 282Q20 370 56 435T158 536 308 571Q392 571 457 537T559 438 596 287Q596 264 593 243ZM371 340Q371 368 353 382T308 397Q249 397 239 340H371ZM308 687 142 609V753L308 828 473 753V609L308 687Z" glyph-name="ecircumflex" horiz-adv-x="616" unicode="&#xea;"/><glyph d="M596 264T593 243H236Q241 170 297 170 333 170 349 203H584Q572 143 534 96T437 21 308-7Q224-7 159 28T57 128 20 282Q20 370 56 435T158 536 308 571Q392 571 457 537T559 438 596 287Q596 264 593 243ZM371 340Q371 368 353 382T308 397Q249 397 239 340H371ZM158 627T134 651 109 712Q109 749 133 774T194 799Q232 799 256 775T281 712Q281 676 256 652T194 627Q158 627 134 651ZM383 627T359 651 334 712Q334 749 358 774T419 799Q457 799 481 775T506 712Q506 676 481 652T419 627Q383 627 359 651Z" glyph-name="edieresis" horiz-adv-x="616" unicode="&#xeb;"/><glyph d="M297 564V0H75V564H297ZM315 750V602L56 696V860L315 750Z" glyph-name="igrave" horiz-adv-x="372" unicode="&#xec;"/><glyph d="M297 564V0H75V564H297ZM315 696 56 602V750L315 860V696Z" glyph-name="iacute" horiz-adv-x="372" unicode="&#xed;"/><glyph d="M297 564V0H75V564H297ZM187 680 21 602V746L187 821 352 746V602L187 680Z" glyph-name="icircumflex" horiz-adv-x="372" unicode="&#xee;"/><glyph d="M297 564V0H75V564H297ZM293 620T269 644 244 705Q244 742 268 767T329 792Q367 792 391 768T416 705Q416 669 391 645T329 620Q293 620 269 644ZM518 620T494 644 469 705Q469 742 493 767T554 792Q592 792 616 768T641 705Q641 669 616 645T554 620Q518 620 494 644Z" glyph-name="idieresis" horiz-adv-x="372" unicode="&#xef;"/><glyph d="M561 581T592 493 623 317Q623 215 584 142T477 32 328-6Q245-6 175 29T62 131 20 284Q20 371 57 435T158 533 301 568Q334 568 380 560 370 581 350 612L264 588V660L308 673Q276 714 247 740H440L462 716 529 735V663L508 657Q561 581 592 493ZM357 186T377 209 397 282Q397 331 375 354T324 377Q293 377 270 354T246 282Q246 233 272 210T328 186Q357 186 377 209Z" glyph-name="eth" horiz-adv-x="643" unicode="&#xf0;"/><glyph d="M542 568T596 503 651 327V0H430V299Q430 339 409 362T351 386Q314 386 293 363T272 299V0H50V564H272V478Q298 518 341 543T445 568Q542 568 596 503ZM166 695T206 736 311 778Q335 778 356 771T401 751Q420 741 431 737T455 732Q492 732 499 779H608Q592 686 552 645T447 604Q423 604 402 611T357 631Q343 638 329 643T303 649Q267 649 258 602H150Q166 695 206 736Z" glyph-name="ntilde" horiz-adv-x="697" unicode="&#xf1;"/><glyph d="M233-7T165 28 59 128 20 282Q20 370 58 435T165 536 318 571Q403 571 471 536T577 436 616 282Q616 194 578 129T471 28 318-7Q233-7 165 28ZM349 185T370 209 391 282Q391 330 370 354T318 379Q287 379 266 355T245 282Q245 234 265 210T318 185Q349 185 370 209ZM471 750V602L212 696V860L471 750Z" glyph-name="ograve" horiz-adv-x="636" unicode="&#xf2;"/><glyph d="M233-7T165 28 59 128 20 282Q20 370 58 435T165 536 318 571Q403 571 471 536T577 436 616 282Q616 194 578 129T471 28 318-7Q233-7 165 28ZM349 185T370 209 391 282Q391 330 370 354T318 379Q287 379 266 355T245 282Q245 234 265 210T318 185Q349 185 370 209ZM471 696 212 602V750L471 860V696Z" glyph-name="oacute" horiz-adv-x="636" unicode="&#xf3;"/><glyph d="M233-7T165 28 59 128 20 282Q20 370 58 435T165 536 318 571Q403 571 471 536T577 436 616 282Q616 194 578 129T471 28 318-7Q233-7 165 28ZM349 185T370 209 391 282Q391 330 370 354T318 379Q287 379 266 355T245 282Q245 234 265 210T318 185Q349 185 370 209ZM343 680 177 602V746L343 821 508 746V602L343 680Z" glyph-name="ocircumflex" horiz-adv-x="636" unicode="&#xf4;"/><glyph d="M233-7T165 28 59 128 20 282Q20 370 58 435T165 536 318 571Q403 571 471 536T577 436 616 282Q616 194 578 129T471 28 318-7Q233-7 165 28ZM349 185T370 209 391 282Q391 330 370 354T318 379Q287 379 266 355T245 282Q245 234 265 210T318 185Q349 185 370 209ZM125 695T165 736 270 778Q294 778 315 771T360 751Q379 741 390 737T414 732Q451 732 458 779H567Q551 686 511 645T406 604Q382 604 361 611T316 631Q302 638 288 643T262 649Q226 649 217 602H109Q125 695 165 736Z" glyph-name="otilde" horiz-adv-x="636" unicode="&#xf5;"/><glyph d="M233-7T165 28 59 128 20 282Q20 370 58 435T165 536 318 571Q403 571 471 536T577 436 616 282Q616 194 578 129T471 28 318-7Q233-7 165 28ZM349 185T370 209 391 282Q391 330 370 354T318 379Q287 379 266 355T245 282Q245 234 265 210T318 185Q349 185 370 209ZM193 620T169 644 144 705Q144 742 168 767T229 792Q267 792 291 768T316 705Q316 669 291 645T229 620Q193 620 169 644ZM418 620T394 644 369 705Q369 742 393 767T454 792Q492 792 516 768T541 705Q541 669 516 645T454 620Q418 620 394 644Z" glyph-name="odieresis" horiz-adv-x="636" unicode="&#xf6;"/><glyph d="M222 467T187 498 152 576Q152 624 187 655T280 687Q337 687 372 656T407 576Q407 529 372 498T280 467Q222 467 187 498ZM531 441V240H20V441H531ZM222-8T187 23 152 101Q152 149 187 180T280 212Q337 212 372 181T407 101Q407 54 372 23T280-8Q222-8 187 23Z" glyph-name="divide" horiz-adv-x="551" unicode="&#xf7;"/><glyph d="M540 476Q608 399 608 282 608 194 570 129T463 28 310-7Q212-7 138 39L103 0H0L80 87Q12 164 12 282 12 370 50 435T157 536 310 571Q408 571 482 525L518 564H621L540 476ZM237 267T238 260L341 372Q328 379 310 379 279 379 258 355T237 282Q237 267 238 260ZM383 297T382 303L279 192Q293 185 310 185 341 185 362 209T383 282Q383 297 382 303Z" glyph-name="oslash" horiz-adv-x="621" unicode="&#xf8;"/><glyph d="M647 564V0H425V86Q399 46 356 21T252-4Q155-4 101 61T46 237V564H267V265Q267 225 288 202T346 178Q383 178 404 201T425 265V564H647ZM477 750V602L218 696V860L477 750Z" glyph-name="ugrave" horiz-adv-x="697" unicode="&#xf9;"/><glyph d="M647 564V0H425V86Q399 46 356 21T252-4Q155-4 101 61T46 237V564H267V265Q267 225 288 202T346 178Q383 178 404 201T425 265V564H647ZM477 696 218 602V750L477 860V696Z" glyph-name="uacute" horiz-adv-x="697" unicode="&#xfa;"/><glyph d="M647 564V0H425V86Q399 46 356 21T252-4Q155-4 101 61T46 237V564H267V265Q267 225 288 202T346 178Q383 178 404 201T425 265V564H647ZM349 680 183 602V746L349 821 514 746V602L349 680Z" glyph-name="ucircumflex" horiz-adv-x="697" unicode="&#xfb;"/><glyph d="M647 564V0H425V86Q399 46 356 21T252-4Q155-4 101 61T46 237V564H267V265Q267 225 288 202T346 178Q383 178 404 201T425 265V564H647ZM199 620T175 644 150 705Q150 742 174 767T235 792Q273 792 297 768T322 705Q322 669 297 645T235 620Q199 620 175 644ZM424 620T400 644 375 705Q375 742 399 767T460 792Q498 792 522 768T547 705Q547 669 522 645T460 620Q424 620 400 644Z" glyph-name="udieresis" horiz-adv-x="697" unicode="&#xfc;"/><glyph d="M687 564 326-270H83L225 28-10 564H237L343 278 442 564H687ZM467 696 208 602V750L467 860V696Z" glyph-name="yacute" horiz-adv-x="677" unicode="&#xfd;"/><glyph d="M299 543T332 555 411 568Q478 568 535 531T626 427 660 278Q660 195 626 131T535 30 411-6Q367-6 334 10T272 62V-270H50V740H272V514Q299 543 332 555ZM435 327T410 351 354 376Q323 376 298 354T272 282Q272 233 297 210T354 187Q385 187 410 208T435 278Q435 327 410 351Z" glyph-name="thorn" horiz-adv-x="680" unicode="&#xfe;"/><glyph d="M687 564 326-270H83L225 28-10 564H237L343 278 442 564H687ZM189 620T165 644 140 705Q140 742 164 767T225 792Q263 792 287 768T312 705Q312 669 287 645T225 620Q189 620 165 644ZM414 620T390 644 365 705Q365 742 389 767T450 792Q488 792 512 768T537 705Q537 669 512 645T450 620Q414 620 390 644Z" glyph-name="ydieresis" horiz-adv-x="677" unicode="&#xff;"/><glyph d="M628 433V250H55V433H628Z" glyph-name="endash" horiz-adv-x="683" unicode="&#x2013;"/><glyph d="M881 433V250H55V433H881Z" glyph-name="emdash" horiz-adv-x="936" unicode="&#x2014;"/><glyph d="M270 413H50L168 708H314L270 413Z" glyph-name="quoteleft" horiz-adv-x="378" unicode="&#x2018;"/><glyph d="M108 708H328L210 413H64L108 708Z" glyph-name="quoteright" horiz-adv-x="378" unicode="&#x2019;"/><glyph d="M87 188H307L189-107H43L87 188Z" glyph-name="quotesinglbase" horiz-adv-x="360" unicode="&#x201a;"/><glyph d="M270 413H50L168 708H314L270 413ZM540 413H320L438 708H584L540 413Z" glyph-name="quotedblleft" horiz-adv-x="648" unicode="&#x201c;"/><glyph d="M108 708H328L210 413H64L108 708ZM378 708H598L480 413H334L378 708Z" glyph-name="quotedblright" horiz-adv-x="648" unicode="&#x201d;"/><glyph d="M89 188H309L191-107H45L89 188ZM355 188H575L457-107H311L355 188Z" glyph-name="quotedblbase" horiz-adv-x="629" unicode="&#x201e;"/><glyph d="M222 166T184 188 123 248 100 333Q100 380 122 418T183 479 268 502Q315 502 353 480T414 419 436 333Q436 287 414 249T354 188 268 166Q222 166 184 188Z" glyph-name="bullet" horiz-adv-x="536" unicode="&#x2022;"/><glyph d="M122 120 45 295 122 470H323L244 295 323 120H122Z" glyph-name="guilsinglleft" horiz-adv-x="373" unicode="&#x2039;"/><glyph d="M130 295 50 470H252L328 295 252 120H50L130 295Z" glyph-name="guilsinglright" horiz-adv-x="373" unicode="&#x203a;"/></font>
</defs>
</svg>
