<svg xmlns="http://www.w3.org/2000/svg"><defs><font horiz-adv-x="1092"><font-face alphabetic="0" ascent="2189" descent="-600" panose-1="2 11 3 6 3 5 4 2 2 4" units-per-em="2048"/><glyph glyph-name="space" horiz-adv-x="532" unicode="&#x20;"/><glyph d="M248 377H186L389 1462H508L248 377ZM80 57Q80 113 105 145T174 178Q240 178 240 106 240 53 215 19T147-16Q80-16 80 57Z" glyph-name="exclam" horiz-adv-x="502" unicode="&#x21;"/><glyph d="M455 1462 309 934H248L328 1462H455ZM784 1462 639 934H578L657 1462H784Z" glyph-name="quotedbl" horiz-adv-x="721" unicode="&#x26;&#x71;&#x75;&#x6f;&#x74;&#x3b;"/><glyph d="M389 530 508 928H211L219 1008H530L664 1462H754L618 1008H983L1118 1462H1204L1069 1008H1354L1346 928H1044L926 530H1229L1221 451H901L768 0H678L813 451H453L319 0H231L365 451H82L90 530H389ZM475 530H838L958 928H596L475 530Z" glyph-name="numbersign" horiz-adv-x="1323" unicode="&#x23;"/><glyph d="M928 467Q928 316 818 224T520 121L467-119H385L436 121Q357 123 278 139T141 182V276Q206 242 294 223T455 203L565 715Q455 768 412 806T346 893 322 1010Q322 1165 427 1260T700 1360L741 1552H821L780 1360Q929 1355 1057 1292L1022 1214Q912 1275 766 1284L657 770Q781 710 829 671T903 582 928 467ZM537 203Q679 210 760 277T842 461Q842 537 794 590T637 688L537 203ZM686 1284Q552 1275 481 1204T410 1018Q410 940 447 890T584 793L686 1284Z" glyph-name="dollar" horiz-adv-x="1128" unicode="&#x24;"/><glyph d="M1458 1462 319 0H213L1348 1462H1458ZM1520 612Q1520 437 1470 285T1334 55 1137-23Q1025-23 965 52T905 276Q905 436 957 588T1095 817 1288 895Q1409 895 1464 824T1520 612ZM1284 821Q1204 821 1138 749T1031 546 991 283Q991 167 1032 109T1145 51Q1275 51 1354 217T1434 604Q1434 713 1398 767T1284 821ZM760 1198Q760 1023 710 871T574 641 377 563Q265 563 205 638T145 862Q145 1022 197 1174T335 1403 528 1481Q760 1481 760 1198ZM524 1407Q445 1407 379 1336T272 1133 231 868Q231 753 272 695T385 637Q469 637 533 709T636 913 674 1190Q674 1299 638 1353T524 1407Z" glyph-name="percent" horiz-adv-x="1556" unicode="&#x25;"/><glyph d="M748 1395Q623 1395 554 1327T485 1135Q485 1003 594 854 797 943 873 1017T950 1200Q950 1291 894 1343T748 1395ZM465 63Q573 63 676 105T899 252L547 745Q383 666 315 611T212 487 176 328Q176 209 254 136T465 63ZM78 324Q78 486 177 601T502 817L461 884Q383 1012 383 1135 383 1292 484 1388T748 1485Q893 1485 975 1409T1057 1202Q1057 1117 1016 1048T895 920 639 782L969 319Q1042 394 1104 495T1196 682H1307Q1205 435 1022 246L1206 0H1083L952 184Q831 76 710 28T444-20Q277-20 178 74T78 324Z" glyph-name="ampersand" horiz-adv-x="1331" unicode="&#x26;&#x61;&#x6d;&#x70;&#x3b;"/><glyph d="M461 1462 315 934H254L334 1462H461Z" glyph-name="quotesingle" horiz-adv-x="403" unicode="&#x26;&#x61;&#x70;&#x6f;&#x73;&#x3b;"/><glyph d="M104 270Q104 613 226 903T608 1462H713Q454 1186 329 894T203 276Q203-41 330-324H250Q104-62 104 270Z" glyph-name="parenleft" horiz-adv-x="526" unicode="&#x28;"/><glyph d="M453 868Q453 523 330 232T-51-324H-156Q101-50 227 242T354 862Q354 1010 326 1156T227 1462H307Q453 1200 453 868Z" glyph-name="parenright" horiz-adv-x="526" unicode="&#x29;"/><glyph d="M834 1540 725 1135 1163 1143 1155 1036 739 1065 920 664 805 627 670 1044 385 696 307 774 625 1092 233 1217 272 1319 666 1151 713 1559 834 1540Z" glyph-name="asterisk" horiz-adv-x="1137" unicode="&#x2a;"/><glyph d="M563 672H162V772H563V1176H664V772H1065V672H664V272H563V672Z" glyph-name="plus" horiz-adv-x="1128" unicode="&#x2b;"/><glyph d="M250 238 258 215Q224 123 144-18T-16-264H-90Q-11-132 51 7T139 238H250Z" glyph-name="comma" horiz-adv-x="451" unicode="&#x2c;"/><glyph d="M82 502 100 592H557L541 502H82Z" glyph-name="hyphen" horiz-adv-x="629" unicode="&#x2d;"/><glyph d="M82 55Q82 111 107 143T176 176Q242 176 242 104 242 51 217 17T150-18Q82-18 82 55Z" glyph-name="period" horiz-adv-x="485" unicode="&#x2e;"/><glyph d="M827 1462 10 0H-100L715 1462H827Z" glyph-name="slash" horiz-adv-x="641" unicode="&#x2f;"/><glyph d="M1075 1016Q1075 815 1034 611T918 265 734 52 492-20Q316-20 228 106T139 494Q139 680 183 875T307 1209 494 1416 735 1485Q1075 1485 1075 1016ZM723 1397Q589 1397 482 1284T308 955 242 504Q242 282 304 175T502 68Q641 68 746 180T912 517 973 1006Q973 1205 914 1301T723 1397Z" glyph-name="zero" horiz-adv-x="1128" unicode="&#x30;"/><glyph d="M537 0H432L657 1055Q676 1147 731 1348 689 1312 656 1287T406 1126L354 1204 760 1462H850L537 0Z" glyph-name="one" horiz-adv-x="1128" unicode="&#x31;"/><glyph d="M909 0H39L61 104 510 506Q708 683 794 782T920 969 961 1149Q961 1261 895 1327T698 1393Q522 1393 365 1264L311 1337Q491 1483 705 1483 878 1483 973 1398T1069 1161Q1069 1051 1026 953T884 741 573 438L190 100V96H926L909 0Z" glyph-name="two" horiz-adv-x="1128" unicode="&#x32;"/><glyph d="M1049 1174Q1049 1012 943 899T657 756V752Q774 728 842 637T911 410Q911 276 847 177T668 29 393-20Q297-20 209 0T55 53V154Q227 68 399 68 596 68 702 157T809 410Q809 555 720 633T473 711H356L377 807H487Q696 807 820 902T944 1161Q944 1275 881 1336T692 1397Q525 1397 348 1266L299 1341Q383 1408 487 1445T705 1483Q866 1483 957 1401T1049 1174Z" glyph-name="three" horiz-adv-x="1128" unicode="&#x33;"/><glyph d="M1071 371H807L727 0H631L711 371H23L43 467 924 1477H1042L827 459H1092L1071 371ZM729 459Q808 828 848 1017T934 1372H930Q864 1281 801 1206L150 459H729Z" glyph-name="four" horiz-adv-x="1128" unicode="&#x34;"/><glyph d="M582 879Q770 879 874 777T979 498Q979 261 831 121T424-20Q340-20 247 0T88 51V158Q258 68 428 68 636 68 756 182T877 496Q877 636 792 715T567 795Q434 795 324 754L258 803 451 1462H1075L1057 1366H516L367 850Q465 879 582 879Z" glyph-name="five" horiz-adv-x="1128" unicode="&#x35;"/><glyph d="M170 428Q170 711 275 972T544 1357 928 1481Q1051 1481 1110 1460L1092 1370Q1006 1393 922 1393 689 1393 529 1219T295 717H303Q371 811 467 860T678 909Q839 909 928 809T1018 526Q1018 370 958 245T787 50 530-20Q359-20 265 99T170 428ZM543 68Q655 68 739 126T869 288 915 518Q915 664 848 742T653 821Q572 821 499 790T370 703 292 588 270 414Q270 250 342 159T543 68Z" glyph-name="six" horiz-adv-x="1128" unicode="&#x36;"/><glyph d="M244 0 1040 1366H274L297 1462H1155L1135 1352 356 0H244Z" glyph-name="seven" horiz-adv-x="1128" unicode="&#x37;"/><glyph d="M737 1485Q900 1485 995 1400T1090 1171Q1090 1033 1006 937T721 764Q851 686 911 594T971 385Q971 269 913 177T748 33 487-20Q309-20 204 72T98 326Q98 485 198 594T520 782Q420 854 376 934T332 1114Q332 1273 446 1379T737 1485ZM610 733Q392 660 297 566T201 340Q201 204 278 134T498 63Q666 63 768 154T870 387Q870 491 808 576T610 733ZM727 1399Q597 1399 513 1317T428 1114Q428 1023 469 955T627 813Q819 875 906 957T993 1163Q993 1272 923 1335T727 1399Z" glyph-name="eight" horiz-adv-x="1128" unicode="&#x38;"/><glyph d="M1059 1032Q1059 744 958 484T694 102 301-20Q187-20 115 2V92Q202 63 307 63 781 63 934 737H926Q786 545 559 545 397 545 304 650T211 934Q211 1089 270 1215T441 1411 698 1481Q872 1481 965 1366T1059 1032ZM686 1393Q574 1393 489 1335T358 1172 313 942Q313 797 380 717T573 637Q656 637 730 669T859 757 936 871 958 1047Q958 1213 887 1303T686 1393Z" glyph-name="nine" horiz-adv-x="1128" unicode="&#x39;"/><glyph d="M260 989Q260 1046 285 1078T354 1110Q420 1110 420 1038 420 983 395 949T328 915Q260 915 260 989ZM102 55Q102 111 127 143T197 176Q262 176 262 104 262 49 237 16T170-18Q102-18 102 55Z" glyph-name="colon" horiz-adv-x="485" unicode="&#x3a;"/><glyph d="M287 238 295 215Q260 119 177-27T20-264H-53Q26-132 88 7T176 238H287ZM266 989Q266 1046 291 1078T360 1110Q426 1110 426 1038 426 983 401 949T334 915Q266 915 266 989Z" glyph-name="semicolon" horiz-adv-x="485" unicode="&#x3b;"/><glyph d="M1051 262 137 676V750L1051 1221V1118L250 719 1051 369V262Z" glyph-name="less" horiz-adv-x="1128" unicode="&#x26;&#x6c;&#x74;&#x3b;"/><glyph d="M168 885V985H1071V885H168ZM168 461V559H1071V461H168Z" glyph-name="equal" horiz-adv-x="1128" unicode="&#x3d;"/><glyph d="M170 369 971 719 170 1118V1221L1085 750V676L170 262V369Z" glyph-name="greater" horiz-adv-x="1128" unicode="&#x26;&#x67;&#x74;&#x3b;"/><glyph d="M242 362 248 391Q277 523 330 597T487 745Q605 829 662 890T748 1018 778 1159Q778 1267 711 1329T528 1391Q389 1391 221 1290L182 1376Q267 1425 353 1454T541 1483Q700 1483 791 1399T883 1169Q883 1042 817 935T586 709Q501 648 454 601T381 506 334 362H242ZM170 59Q170 115 195 147T264 180Q330 180 330 109 330 55 306 21T238-14Q170-14 170 59Z" glyph-name="question" horiz-adv-x="799" unicode="&#x3f;"/><glyph d="M1688 858Q1688 679 1632 535T1478 308 1266 225Q1168 225 1112 280T1055 424H1051Q997 327 919 276T750 225Q638 225 572 298T506 500Q506 656 569 783T747 981 1008 1053Q1130 1053 1260 1001L1176 686Q1137 546 1137 465 1137 394 1171 354T1272 313Q1358 313 1432 386T1549 584 1593 836Q1593 992 1528 1113T1341 1301 1049 1368Q814 1368 625 1260T329 956 223 516Q223 228 378 67T813-94Q1020-94 1233-12V-102Q1023-184 805-184 602-184 448-102T209 137 125 508Q125 784 246 1001T583 1338 1057 1458Q1246 1458 1387 1386T1608 1173 1688 858ZM1008 969Q895 969 804 910T661 745 610 506Q610 414 650 364T764 313Q865 313 944 402T1069 657L1147 946Q1081 969 1008 969Z" glyph-name="at" horiz-adv-x="1724" unicode="&#x40;"/><glyph d="M805 520H293L6 0H-111L711 1468H778L979 0H874L805 520ZM793 612 754 903Q723 1145 715 1305 685 1242 651 1175T344 612H793Z" glyph-name="A" horiz-adv-x="1059" unicode="&#x41;"/><glyph d="M412 1462H791Q981 1462 1081 1378T1182 1137Q1182 984 1092 888T838 764V760Q963 729 1026 647T1090 442Q1090 237 950 119T559 0H102L412 1462ZM377 811H655Q861 811 968 892T1075 1130Q1075 1249 997 1310T768 1372H496L377 811ZM358 721 223 90H565Q766 90 874 177T983 434Q983 579 893 650T618 721H358Z" glyph-name="B" horiz-adv-x="1202" unicode="&#x42;"/><glyph d="M961 1389Q764 1389 610 1285T365 980 274 539Q274 314 384 193T702 72Q842 72 1006 123V29Q850-20 690-20 438-20 304 125T170 535Q170 801 274 1023T559 1364 961 1483Q1138 1483 1268 1415L1223 1325Q1168 1355 1099 1372T961 1389Z" glyph-name="C" horiz-adv-x="1169" unicode="&#x43;"/><glyph d="M1288 879Q1288 626 1179 418T878 105 432 0H102L412 1462H717Q999 1462 1143 1315T1288 879ZM430 90Q656 90 824 184T1085 460 1178 872Q1178 1370 702 1370H496L221 90H430Z" glyph-name="D" horiz-adv-x="1350" unicode="&#x44;"/><glyph d="M829 0H102L412 1462H1139L1118 1368H494L377 815H967L946 721H358L223 94H850L829 0Z" glyph-name="E" horiz-adv-x="1067" unicode="&#x45;"/><glyph d="M205 0H102L412 1462H1120L1100 1368H496L362 748H932L911 653H342L205 0Z" glyph-name="F" horiz-adv-x="981" unicode="&#x46;"/><glyph d="M856 735H1262L1112 53Q901-20 707-20 450-20 310 126T170 547Q170 812 275 1030T558 1366 954 1483Q1067 1483 1157 1464T1341 1405L1303 1311Q1193 1357 1114 1373T946 1389Q762 1389 607 1282T363 980 274 547Q274 318 388 195T715 72Q870 72 1024 119L1141 645H838L856 735Z" glyph-name="G" horiz-adv-x="1374" unicode="&#x47;"/><glyph d="M1063 0H963L1114 719H354L205 0H102L412 1462H514L375 813H1135L1272 1462H1372L1063 0Z" glyph-name="H" horiz-adv-x="1366" unicode="&#x48;"/><glyph d="M102 0 412 1462H510L201 0H102Z" glyph-name="I" horiz-adv-x="504" unicode="&#x49;"/><glyph d="M-180-360Q-228-360-268-352T-324-336L-313-244Q-256-264-176-264 37-264 86-23L395 1462H500L186-29Q151-199 61-279T-180-360Z" glyph-name="J" horiz-adv-x="477" unicode="&#x4a;"/><glyph d="M979 0H868L526 788 336 635 205 0H102L412 1462H514L356 739 489 860 1169 1462H1307L608 852 979 0Z" glyph-name="K" horiz-adv-x="1122" unicode="&#x4b;"/><glyph d="M102 0 412 1462H514L225 96H846L823 0H102Z" glyph-name="L" horiz-adv-x="938" unicode="&#x4c;"/><glyph d="M772 205 1505 1462H1655L1354 0H1253L1444 901Q1523 1270 1544 1348H1538L758 0H707L485 1348H479Q459 1194 401 922L205 0H109L418 1462H561L766 205H772Z" glyph-name="M" horiz-adv-x="1669" unicode="&#x4d;"/><glyph d="M1069 0H983L467 1284H459Q436 1135 411 1011T197 0H102L412 1462H492L1014 168H1022Q1045 344 1096 584L1284 1462H1378L1069 0Z" glyph-name="N" horiz-adv-x="1372" unicode="&#x4e;"/><glyph d="M1403 911Q1403 656 1309 430T1057 92 692-20Q442-20 307 129T172 559Q172 821 265 1036T520 1367 893 1483Q1140 1483 1271 1335T1403 911ZM879 1389Q705 1389 571 1288T356 990 276 573Q276 328 385 200T705 72Q874 72 1005 170T1215 470 1294 901Q1294 1141 1190 1265T879 1389Z" glyph-name="O" horiz-adv-x="1464" unicode="&#x4f;"/><glyph d="M1145 1102Q1145 602 535 602H334L205 0H102L412 1462H727Q929 1462 1037 1370T1145 1102ZM350 694H541Q793 694 914 790T1036 1096Q1036 1370 707 1370H496L350 694Z" glyph-name="P" horiz-adv-x="1145" unicode="&#x50;"/><glyph d="M1403 911Q1403 695 1333 493T1147 169 872 2L1139-348H997L766-16 692-20Q442-20 307 129T172 559Q172 821 265 1036T520 1367 893 1483Q1140 1483 1271 1335T1403 911ZM879 1389Q705 1389 571 1288T356 990 276 573Q276 328 385 200T705 72Q874 72 1005 170T1215 470 1294 901Q1294 1141 1190 1265T879 1389Z" glyph-name="Q" horiz-adv-x="1464" unicode="&#x51;"/><glyph d="M336 633 205 0H102L412 1462H715Q1145 1462 1145 1102 1145 920 1042 799T760 647Q961 56 981 0H870L659 633H336ZM358 725H610Q818 725 927 820T1036 1102Q1036 1370 707 1370H496L358 725Z" glyph-name="R" horiz-adv-x="1145" unicode="&#x52;"/><glyph d="M895 403Q895 277 830 179T650 30 381-20Q293-20 209-3T37 55V164Q200 72 385 72 573 72 680 158T788 391Q788 452 771 495T719 574 628 642 496 717Q346 793 287 881T227 1087Q227 1205 286 1294T451 1433 688 1483Q787 1483 868 1466T1036 1405L1004 1311Q938 1351 853 1374T688 1397Q525 1397 429 1315T332 1096Q332 993 381 926T563 793Q717 714 776 663T865 550 895 403Z" glyph-name="S" horiz-adv-x="1020" unicode="&#x53;"/><glyph d="M438 0H336L625 1368H193L213 1462H1186L1167 1368H727L438 0Z" glyph-name="T" horiz-adv-x="985" unicode="&#x54;"/><glyph d="M1395 1462 1188 485Q1130 215 991 98T616-20Q176-20 176 381 176 464 203 582L389 1462H492L299 563Q279 474 279 379 279 70 621 70 816 70 928 166T1087 485L1294 1462H1395Z" glyph-name="U" horiz-adv-x="1370" unicode="&#x55;"/><glyph d="M457 147Q508 258 581 394L1153 1462H1270L471 0H383L201 1462H301L418 512Q444 295 453 147H457Z" glyph-name="V" horiz-adv-x="1079" unicode="&#x56;"/><glyph d="M1018 1341Q991 1265 956 1188T393 0H311L238 1462H338L385 431 389 266 387 180H393Q478 406 563 578L997 1462H1102L1163 584Q1182 318 1182 174H1188Q1218 260 1249 337T1743 1462H1851Q1682 1097 1521 731T1192 0H1114L1036 1075Q1025 1217 1025 1294L1026 1341H1018Z" glyph-name="W" horiz-adv-x="1702" unicode="&#x57;"/><glyph d="M879 0H772L518 678-8 0H-135L473 766 201 1462H307L547 836 1030 1462H1149L594 743 879 0Z" glyph-name="X" horiz-adv-x="971" unicode="&#x58;"/><glyph d="M494 645 1038 1462H1155L524 530 416 0H311L430 545 193 1462H293L494 645Z" glyph-name="Y" horiz-adv-x="965" unicode="&#x59;"/><glyph d="M913 0H-12L10 92 1079 1368H315L338 1462H1225L1206 1374 137 94H936L913 0Z" glyph-name="Z" horiz-adv-x="1128" unicode="&#x5a;"/><glyph d="M369-324H-57L319 1462H748L729 1372H399L59-233H389L369-324Z" glyph-name="bracketleft" horiz-adv-x="537" unicode="&#x5b;"/><glyph d="M295 1462 537 0H455L209 1462H295Z" glyph-name="backslash" horiz-adv-x="641" unicode="&#x5c;"/><glyph d="M203 1462H629L252-324H-176L-158-233H172L512 1372H182L203 1462Z" glyph-name="bracketright" horiz-adv-x="537" unicode="&#x5d;"/><glyph d="M70 569 657 1475H748L1008 569H903L686 1378 186 569H70Z" glyph-name="asciicircum" horiz-adv-x="1047" unicode="&#x5e;"/><glyph d="M625-291H-182L-164-205H643L625-291Z" glyph-name="underscore" horiz-adv-x="801" unicode="&#x5f;"/><glyph d="M766 1241H700Q650 1293 586 1385T487 1548V1569H602Q648 1440 766 1266V1241Z" glyph-name="grave" horiz-adv-x="1135" unicode="&#x60;"/><glyph d="M655 1104Q887 1104 934 885H940L999 1087H1079L850 0H768L813 274H807Q723 132 620 56T383-20Q102-20 102 354 102 551 177 730T377 1006 655 1104ZM406 70Q495 70 583 132T742 298 850 528 887 741Q887 820 861 882T784 981 657 1018Q533 1018 433 936T269 691 205 365Q205 213 255 142T406 70Z" glyph-name="a" horiz-adv-x="1133" unicode="&#x61;"/><glyph d="M500-16Q387-16 314 43T217 209H211L156 0H76L403 1556H498Q367 928 336 805H342Q435 961 541 1034T772 1108Q1053 1108 1053 733 1053 530 977 353T776 80 500-16ZM750 1018Q659 1018 570 957T410 787 303 552 268 346Q268 217 332 144T498 70Q622 70 722 153T886 398 950 723Q950 875 901 946T750 1018Z" glyph-name="b" horiz-adv-x="1151" unicode="&#x62;"/><glyph d="M477-20Q303-20 203 90T102 397Q102 590 175 758T374 1015 664 1104Q798 1104 905 1061L877 971Q770 1018 659 1018 530 1018 427 941T264 719 205 399Q205 241 278 156T487 70Q558 70 618 83T750 129V37Q634-20 477-20Z" glyph-name="c" horiz-adv-x="887" unicode="&#x63;"/><glyph d="M655 1104Q885 1104 934 885H938Q950 951 1081 1556H1180L850 0H768L813 274H807Q634-20 383-20 102-20 102 354 102 547 173 724T371 1002 655 1104ZM406 70Q495 70 584 132T744 300 851 531 887 741Q887 867 826 942T657 1018Q533 1018 433 935T269 693 205 365Q205 70 406 70Z" glyph-name="d" horiz-adv-x="1133" unicode="&#x64;"/><glyph d="M469-20Q296-20 199 89T102 395Q102 576 173 742T368 1006 643 1104Q757 1104 825 1043T893 877Q893 696 730 601T244 506H211Q205 462 205 408 205 243 279 157T492 70Q624 70 768 143V49Q628-20 469-20ZM631 1018Q500 1018 388 903T225 594H274Q791 594 791 864 791 931 748 974T631 1018Z" glyph-name="e" horiz-adv-x="928" unicode="&#x65;"/><glyph d="M-131-492Q-179-492-233-473V-383Q-180-399-133-399-45-399 1-346T76-160L322 1006H117L131 1073 336 1087 371 1247Q406 1415 487 1491T715 1567Q788 1567 881 1536L856 1456Q769 1483 709 1483 613 1483 556 1430T471 1251L436 1087H684L668 1006H420L168-184Q135-345 64-418T-131-492Z" glyph-name="f" horiz-adv-x="578" unicode="&#x66;"/><glyph d="M1100 1087 1083 1008 840 997Q866 969 883 913T901 799Q901 690 847 593T699 447 485 399Q422 399 408 408 328 375 284 335T240 254Q240 213 271 190T385 158L506 147Q852 116 852-117 852-229 787-314T600-446 309-492Q123-492 18-420T-88-217Q-88 19 221 117 143 159 143 240 143 363 334 442 263 478 224 547T184 705Q184 816 237 909T385 1055 592 1108Q661 1108 739 1087H1100ZM14-207Q14-308 95-357T319-406Q522-406 636-332T750-127Q750-42 688 3T469 61L309 76Q152 31 83-38T14-207ZM285 711Q285 599 343 541T508 483Q596 483 662 520T764 634 801 803Q801 907 745 964T588 1022Q495 1022 427 979T322 863 285 711Z" glyph-name="g" horiz-adv-x="1040" unicode="&#x67;"/><glyph d="M764 0 913 692Q934 784 934 848 934 928 891 973T756 1018Q644 1018 546 951T380 763 276 477L174 0H76L408 1556H504L418 1145Q374 945 352 866H358Q436 979 544 1041T774 1104Q898 1104 966 1039T1034 856Q1034 786 1010 674L862 0H764Z" glyph-name="h" horiz-adv-x="1143" unicode="&#x68;"/><glyph d="M174 0H76L307 1087H403L174 0ZM350 1366Q350 1421 372 1454T432 1487Q489 1487 489 1415 489 1358 467 1325T410 1292Q381 1292 366 1311T350 1366Z" glyph-name="i" horiz-adv-x="475" unicode="&#x69;"/><glyph d="M-166-492Q-228-492-279-473V-381Q-232-403-166-403-84-403-38-352T35-174L301 1087H397L129-184Q94-349 23-420T-166-492ZM350 1366Q350 1421 372 1454T432 1487Q489 1487 489 1415 489 1358 467 1325T410 1292Q381 1292 366 1311T350 1366Z" glyph-name="j" horiz-adv-x="475" unicode="&#x6a;"/><glyph d="M270 477 879 1087H1004L530 618 827 0H721L457 559 252 371 172 0H76L406 1556H502L336 776 266 477H270Z" glyph-name="k" horiz-adv-x="944" unicode="&#x6b;"/><glyph d="M170 0H76L410 1556H504L170 0Z" glyph-name="l" horiz-adv-x="475" unicode="&#x6c;"/><glyph d="M711 0 858 674Q883 799 883 836 883 1018 729 1018 623 1018 529 951T370 762 270 475L170 0H72L303 1087H383L350 877H356Q436 990 537 1047T750 1104Q856 1104 913 1037T973 842H979Q1056 971 1160 1037T1382 1104Q1499 1104 1564 1043T1630 866Q1630 837 1628 810T1608 690L1456 0H1356L1505 680Q1530 800 1530 856 1530 933 1487 975T1368 1018Q1211 1018 1091 881T922 518L813 0H711Z" glyph-name="m" horiz-adv-x="1751" unicode="&#x6d;"/><glyph d="M764 0 913 692Q934 784 934 848 934 928 891 973T756 1018Q644 1018 546 951T380 764 276 477L174 0H76L307 1087H389L352 866H358Q522 1104 774 1104 904 1104 969 1040T1034 856Q1034 786 1010 674L862 0H764Z" glyph-name="n" horiz-adv-x="1143" unicode="&#x6e;"/><glyph d="M649 1108Q829 1108 927 1000T1026 700Q1026 503 955 332T759 70 473-20Q289-20 194 89T98 403Q98 594 171 761T368 1018 649 1108ZM641 1022Q517 1022 418 944T260 719 201 408Q201 66 483 66 610 66 708 143T865 371 924 702Q924 856 851 939T641 1022Z" glyph-name="o" horiz-adv-x="1124" unicode="&#x6f;"/><glyph d="M498-16Q268-16 219 203H215Q202 131 66-492H-33L303 1087H385L340 813H346Q437 966 541 1037T770 1108Q905 1108 978 1016T1051 733Q1051 538 979 362T782 85 498-16ZM748 1018Q661 1018 574 960T413 792 302 555 266 346Q266 221 327 146T496 70Q620 70 721 154T885 397 948 723Q948 1018 748 1018Z" glyph-name="p" horiz-adv-x="1149" unicode="&#x70;"/><glyph d="M651 1104Q760 1104 834 1046T934 879H940L995 1087H1075L748-469H653L751 1 815 283H809Q716 127 610 54T379-20Q98-20 98 354 98 555 173 733T374 1007 651 1104ZM401 70Q493 70 583 132T743 304 848 540 883 741Q883 871 820 944T653 1018Q529 1018 429 935T265 690 201 365Q201 222 246 146T401 70Z" glyph-name="q" horiz-adv-x="1157" unicode="&#x71;"/><glyph d="M713 1106Q782 1106 836 1092L815 999Q768 1014 702 1014 608 1014 523 950T370 758 270 481L170 0H72L303 1087H383L354 883H360Q433 977 483 1018T589 1083 713 1106Z" glyph-name="r" horiz-adv-x="752" unicode="&#x72;"/><glyph d="M713 295Q713 151 610 66T330-20Q157-20 25 55V162Q99 116 178 91T326 66Q464 66 537 123T610 287Q610 329 595 361T545 422 412 508Q264 588 212 653T160 813Q160 941 258 1022T518 1104Q593 1104 676 1087T817 1040L782 952Q646 1016 518 1016 402 1016 332 963T262 825Q262 770 279 737T339 669 459 592Q573 529 620 489T690 402 713 295Z" glyph-name="s" horiz-adv-x="827" unicode="&#x73;"/><glyph d="M694 1087 676 1006H393L258 371Q236 272 236 207 236 68 362 68 430 68 514 94V8Q413-20 344-20 245-20 191 34T137 193Q137 266 166 399L295 1006H113L127 1073 311 1090 408 1343H463L408 1087H694Z" glyph-name="t" horiz-adv-x="616" unicode="&#x74;"/><glyph d="M381 1087 229 389Q207 283 207 231 207 157 254 114T393 70Q503 70 600 135T764 322 864 602L969 1087H1067L836 0H756L784 205H778Q611-16 375-16 244-16 177 46T109 227Q109 287 131 397L281 1087H381Z" glyph-name="u" horiz-adv-x="1143" unicode="&#x75;"/><glyph d="M276 0 104 1087H205L313 352Q339 187 346 98H352Q403 213 481 354L887 1087H989L389 0H276Z" glyph-name="v" horiz-adv-x="895" unicode="&#x76;"/><glyph d="M838 0 778 686Q764 910 764 952H758Q724 860 614 662L258 0H141L121 1087H213L226 266 223 109H229Q290 243 379 406L752 1087H829L893 406Q907 259 907 109H913L937 170 1038 406 1358 1087H1454L946 0H838Z" glyph-name="w" horiz-adv-x="1393" unicode="&#x77;"/><glyph d="M442 483 49 0H-72L399 559 154 1087H254L461 625 834 1087H954L506 553 764 0H666L442 483Z" glyph-name="x" horiz-adv-x="922" unicode="&#x78;"/><glyph d="M123 1087H223L305 539Q356 188 360 90H371Q414 195 557 457L905 1087H1008L295-203Q223-330 173-381T59-462-88-492Q-156-492-217-471V-379Q-146-406-80-406 0-406 67-357T197-192 297-8L123 1087Z" glyph-name="y" horiz-adv-x="920" unicode="&#x79;"/><glyph d="M700 0H-29L-14 72 762 1004H219L236 1087H895L877 1004 115 84H717L700 0Z" glyph-name="z" horiz-adv-x="887" unicode="&#x7a;"/><glyph d="M424-324Q168-324 168-125 168-80 184-10L240 242Q258 332 258 369 258 528 59 528L80 606Q206 606 271 655T360 813L449 1206Q479 1341 555 1401T770 1462H799L782 1376Q696 1374 653 1356T584 1294 539 1174L465 836Q435 702 374 642T209 563V559Q277 541 314 491T352 369Q352 317 328 205L281-20Q268-78 268-121 268-182 305-210T444-238V-324H424Z" glyph-name="braceleft" horiz-adv-x="709" unicode="&#x7b;"/><glyph d="M584 1561H684V-510H584V1561Z" glyph-name="bar" horiz-adv-x="1128" unicode="&#x7c;"/><glyph d="M332 1462Q463 1462 521 1411T580 1264Q580 1223 563 1149L508 897Q489 802 489 770 489 693 538 652T688 610L668 532Q543 532 477 484T387 326L299-68Q267-207 191-265T-23-324H-41V-238Q55-236 97-217T165-156 209-35L283 303Q310 429 370 492T539 575V580Q464 600 430 652T395 770Q395 825 413 901L467 1159Q479 1220 479 1260 479 1304 461 1329T407 1365 291 1376L311 1462H332Z" glyph-name="braceright" horiz-adv-x="709" unicode="&#x7d;"/><glyph d="M350 745Q301 745 242 715T127 625V719Q235 829 360 829 421 829 475 816T631 758Q757 700 850 700 904 700 957 729T1075 825V729Q964 616 842 616 725 616 571 688 509 717 459 731T350 745Z" glyph-name="asciitilde" horiz-adv-x="1128" unicode="&#x7e;"/><glyph glyph-name="nbspace" horiz-adv-x="532" unicode="&#xa0;"/><glyph d="M264 711H326L123-375H4L264 711ZM432 1030Q432 974 407 942T338 909Q272 909 272 981 272 1036 297 1070T365 1104Q432 1104 432 1030Z" glyph-name="exclamdown" horiz-adv-x="502" unicode="&#xa1;"/><glyph d="M578-20H485L530 195Q398 220 324 327T250 600Q250 784 313 941T491 1194 748 1305L784 1483H874L836 1307Q952 1303 1053 1264L1024 1174Q917 1221 807 1221 677 1221 574 1145T412 924 352 602Q352 438 426 355T635 272Q762 272 899 332V240Q781 182 618 182L578-20Z" glyph-name="cent" horiz-adv-x="1128" unicode="&#xa2;"/><glyph d="M879 1479Q1049 1479 1192 1401L1153 1317 1099 1343Q991 1393 868 1393 734 1393 648 1319T530 1098L457 758H866L848 676H440L383 408Q333 183 195 94H954L934 0H-4L12 84Q105 95 177 179T285 416L342 676H143L160 758H358L434 1108Q475 1295 589 1387T879 1479Z" glyph-name="sterling" horiz-adv-x="1128" unicode="&#xa3;"/><glyph d="M262 723Q262 841 336 948L207 1077 270 1141 397 1012Q502 1090 627 1090 745 1090 850 1012L981 1141 1042 1079 913 950Q991 844 991 723 991 588 913 496L1042 369 981 307 850 434Q746 358 627 358 501 358 399 438L270 309 209 371 336 498Q262 596 262 723ZM350 723Q350 607 430 527T627 446Q744 446 825 527T907 723Q907 798 871 863T768 967 627 1006Q513 1006 432 924T350 723Z" glyph-name="currency" horiz-adv-x="1128" unicode="&#xa4;"/><glyph d="M584 645 1128 1462H1245L686 639H952L936 563H621L582 373H899L881 289H565L506 0H401L465 289H166L184 373H483L524 563H223L240 639H498L283 1462H383L584 645Z" glyph-name="yen" horiz-adv-x="1128" unicode="&#xa5;"/><glyph d="M578 1561H678V805H578V1561ZM578 246H678V-510H578V246Z" glyph-name="brokenbar" horiz-adv-x="1128" unicode="&#xa6;"/><glyph d="M211 778Q211 879 280 960T479 1090Q415 1121 376 1175T336 1296Q336 1370 382 1430T514 1525 717 1559Q880 1559 1006 1501L975 1421Q837 1475 711 1475 587 1475 509 1429T430 1305Q430 1246 476 1201T659 1094Q771 1042 817 1005T888 920 913 809Q913 612 664 492 786 428 786 295 786 209 738 142T599 36 377-2Q220-2 102 51V150Q149 123 228 104T381 84Q530 84 609 136T688 287Q688 349 646 393T479 489Q324 554 268 619T211 778ZM559 1038Q440 1008 372 941T303 786Q303 729 327 690T408 617 596 535Q699 584 758 648T817 805Q817 877 760 931T559 1038Z" glyph-name="section" horiz-adv-x="995" unicode="&#xa7;"/><glyph d="M836 1366Q836 1415 856 1444T913 1473Q967 1473 967 1409 967 1361 946 1332T891 1303Q836 1303 836 1366ZM492 1366Q492 1415 512 1444T569 1473Q623 1473 623 1409 623 1361 602 1332T547 1303Q492 1303 492 1366Z" glyph-name="dieresis" horiz-adv-x="1135" unicode="&#xa8;"/><glyph d="M944 1092Q802 1092 722 998T641 733Q641 547 715 458T936 369Q1021 369 1135 412V324Q1031 279 926 279 739 279 638 395T537 725Q537 932 647 1057T944 1182Q1063 1182 1171 1130L1135 1047Q1036 1092 944 1092ZM147 731Q147 931 247 1106T522 1382 899 1483Q1099 1483 1274 1383T1550 1108 1651 731Q1651 534 1554 361T1282 84 899-20Q692-20 517 83T245 360 147 731ZM240 731Q240 553 328 402T569 161 899 72Q1073 72 1224 157T1467 396 1559 731Q1559 909 1470 1061T1230 1302 899 1391Q717 1391 564 1299T326 1056 240 731Z" glyph-name="copyright" horiz-adv-x="1704" unicode="&#xa9;"/><glyph d="M487 1485Q542 1485 584 1456T651 1370H657L692 1473H758L621 823H549L571 948H567Q471 811 344 811 264 811 217 867T170 1032Q170 1221 260 1353T487 1485ZM369 885Q435 885 502 960T600 1145Q616 1196 616 1268 616 1326 580 1368T487 1411Q393 1411 326 1300T258 1028Q258 885 369 885Z" glyph-name="ordfeminine" horiz-adv-x="643" unicode="&#xaa;"/><glyph d="M426 932 483 883 166 547 379 162 315 123 61 541 63 567 426 932ZM786 932 844 883 530 547 739 162 676 123 422 541 424 567 786 932Z" glyph-name="guillemotleft" horiz-adv-x="860" unicode="&#xab;"/><glyph d="M1028 772V272H928V672H125V772H1028Z" glyph-name="logicalnot" horiz-adv-x="1128" unicode="&#xac;"/><glyph d="M333 502 351 592H808L792 502H333Z" glyph-name="uni00AD" horiz-adv-x="629" unicode="&#xad;"/><glyph d="M758 731H870Q963 731 1014 777T1065 913Q1065 1085 868 1085H758V731ZM1169 918Q1169 838 1130 777T1020 684L1257 291H1137L926 651H758V291H657V1171H868Q1011 1171 1090 1109T1169 918ZM150 731Q150 938 253 1113T530 1385 901 1483Q1101 1483 1276 1383T1552 1108 1653 731Q1653 534 1556 361T1284 84 901-20Q697-20 525 80T251 353 150 731ZM242 731Q242 553 330 402T571 161 901 72Q1075 72 1226 157T1469 396 1561 731Q1561 909 1472 1061T1232 1302 901 1391Q719 1391 566 1299T328 1056 242 731Z" glyph-name="registered" horiz-adv-x="1704" unicode="&#xae;"/><glyph d="M1001 1556H348L401 1653H1055L1001 1556Z" glyph-name="overscore" horiz-adv-x="655" unicode="&#xaf;"/><glyph d="M242 1190Q242 1310 327 1396T535 1483Q657 1483 742 1397T827 1190Q827 1068 742 983T535 897Q413 897 328 982T242 1190ZM315 1190Q315 1101 379 1037T535 973Q627 973 690 1037T754 1190Q754 1280 690 1345T535 1411Q445 1411 380 1346T315 1190Z" glyph-name="degree" horiz-adv-x="877" unicode="&#xb0;"/><glyph d="M528 629H127V727H528V1133H629V727H1030V629H629V229H528V629ZM127 0V100H1030V0H127Z" glyph-name="plusminus" horiz-adv-x="1128" unicode="&#xb1;"/><glyph d="M604 586H82L98 666 395 924Q532 1042 577 1114T623 1268Q623 1327 585 1365T479 1403Q384 1403 285 1327L244 1389Q352 1479 483 1479 556 1479 608 1452T686 1380 713 1280Q713 1174 654 1082T471 887L205 664H621L604 586Z" glyph-name="twosuperior" horiz-adv-x="643" unicode="&#xb2;"/><glyph d="M705 1276Q705 1191 657 1128T502 1040V1036Q568 1020 607 968T647 844Q647 767 608 703T499 604 338 569Q279 569 215 584T109 625V715Q155 687 217 667T342 647Q441 647 501 699T561 842Q561 1004 365 1004H281L297 1083H383Q485 1083 551 1132T618 1262Q618 1330 581 1364T475 1399Q375 1399 276 1331L236 1395Q345 1481 487 1481 587 1481 646 1425T705 1276Z" glyph-name="threesuperior" horiz-adv-x="643" unicode="&#xb3;"/><glyph d="M580 1262Q646 1313 730 1404T860 1569H997V1546Q946 1480 840 1388T647 1241H580V1262Z" glyph-name="acute" horiz-adv-x="1135" unicode="&#xb4;"/><glyph d="M238 242Q238 160 286 115T422 70Q532 70 629 134T791 317 893 602L997 1087H1096L862 0H784L813 205H807Q643-16 403-16 318-16 264 16T188 106H182Q164-26 131-178L68-492H-29L309 1087H410L258 389Q238 293 238 242Z" glyph-name="mu" horiz-adv-x="1171" unicode="&#xb5;"/><glyph d="M1208-260H1108V1462H881V-260H780V559Q716 541 635 541 419 541 317 666T215 1042Q215 1302 324 1429T666 1556H1208V-260Z" glyph-name="paragraph" horiz-adv-x="1341" unicode="&#xb6;"/><glyph d="M207 698Q207 754 232 786T301 819Q367 819 367 747 367 694 342 660T275 625Q207 625 207 698Z" glyph-name="middot" horiz-adv-x="485" unicode="&#xb7;"/><glyph d="M197-289Q197-383 122-437T-96-492Q-142-492-174-485V-406Q-144-412-102-412 96-412 96-297 96-200-55-190L55 0H135L57-137Q197-167 197-289Z" glyph-name="cedilla" horiz-adv-x="420" unicode="&#xb8;"/><glyph d="M512 1462H592L406 586H322L440 1155Q445 1176 451 1205T465 1265 481 1324 496 1374Q462 1343 436 1323T293 1229L254 1288 512 1462Z" glyph-name="onesuperior" horiz-adv-x="643" unicode="&#xb9;"/><glyph d="M518 1479Q623 1479 683 1415T743 1235Q743 1120 703 1021T589 865 414 807Q300 807 245 874T190 1059Q190 1171 231 1268T347 1422 518 1479ZM508 1405Q438 1405 384 1359T300 1234 270 1067Q270 881 426 881 499 881 551 927T633 1055 662 1231Q662 1314 623 1359T508 1405Z" glyph-name="ordmasculine" horiz-adv-x="655" unicode="&#xba;"/><glyph d="M451 123 393 172 707 508 498 893 561 932 815 514 813 487 451 123ZM90 123 33 172 346 508 137 893 201 932 455 514 453 487 90 123Z" glyph-name="guillemotright" horiz-adv-x="860" unicode="&#xbb;"/><glyph d="M1319 230H1188L1139 1H1057L1106 230H715L736 306 1242 883H1328L1203 302H1336L1319 230ZM1121 302Q1182 596 1200 667T1229 773Q1219 757 1168 694T830 302H1121ZM1323 1462 236 0H129L1215 1462H1323ZM765 1462H845L659 586H575L693 1155Q698 1176 704 1205T718 1265 734 1324 749 1374Q715 1343 689 1323T546 1229L507 1288 765 1462Z" glyph-name="onequarter" horiz-adv-x="1481" unicode="&#xbc;"/><glyph d="M1278 1H756L772 81 1069 339Q1206 457 1251 529T1297 683Q1297 742 1259 780T1153 818Q1058 818 959 742L918 804Q1026 894 1157 894 1230 894 1282 867T1360 795 1387 695Q1387 589 1328 497T1145 302L879 79H1295L1278 1ZM687 1462H767L581 586H497L615 1155Q620 1176 626 1205T640 1265 656 1324 671 1374Q637 1343 611 1323T468 1229L429 1288 687 1462ZM1247 1462 160 0H53L1139 1462H1247Z" glyph-name="onehalf" horiz-adv-x="1458" unicode="&#xbd;"/><glyph d="M1380 230H1249L1200 1H1118L1167 230H776L797 306 1303 883H1389L1264 302H1397L1380 230ZM1182 302Q1243 596 1261 667T1290 773Q1280 757 1229 694T891 302H1182ZM923 1276Q923 1191 875 1128T720 1040V1036Q786 1020 825 968T865 844Q865 767 826 703T717 604 556 569Q497 569 433 584T327 625V715Q373 687 435 667T560 647Q659 647 719 699T779 842Q779 1004 583 1004H499L515 1083H601Q703 1083 769 1132T836 1262Q836 1330 799 1364T693 1399Q593 1399 494 1331L454 1395Q563 1481 705 1481 805 1481 864 1425T923 1276ZM1407 1462 320 0H213L1299 1462H1407Z" glyph-name="threequarters" horiz-adv-x="1458" unicode="&#xbe;"/><glyph d="M641 717 635 688Q607 561 556 488T395 334Q277 250 220 189T134 61 104-80Q104-186 169-248T354-311Q495-311 662-211L700-297Q615-346 530-374T342-403Q183-403 92-319T0-90Q0 43 70 150T297 371Q382 432 430 480T503 575 549 717H641ZM713 1020Q713 964 688 932T618 899Q553 899 553 971 553 1027 578 1060T645 1094Q713 1094 713 1020Z" glyph-name="questiondown" horiz-adv-x="799" unicode="&#xbf;"/><glyph d="M805 520H293L6 0H-111L711 1468H778L979 0H874L805 520ZM793 612 754 903Q723 1145 715 1305 685 1242 651 1175T344 612H793ZM815 1579H749Q699 1631 635 1723T536 1886V1907H651Q697 1778 815 1604V1579Z" glyph-name="Agrave" horiz-adv-x="1059" unicode="&#xc0;"/><glyph d="M805 520H293L6 0H-111L711 1468H778L979 0H874L805 520ZM793 612 754 903Q723 1145 715 1305 685 1242 651 1175T344 612H793ZM668 1600Q734 1651 818 1742T948 1907H1085V1884Q1034 1818 928 1726T735 1579H668V1600Z" glyph-name="Aacute" horiz-adv-x="1059" unicode="&#xc1;"/><glyph d="M805 520H293L6 0H-111L711 1468H778L979 0H874L805 520ZM793 612 754 903Q723 1145 715 1305 685 1242 651 1175T344 612H793ZM1007 1579H958Q888 1639 797 1786 742 1729 672 1672T547 1579H493V1608Q561 1664 650 1756T778 1907H842Q865 1843 914 1755T1007 1608V1579Z" glyph-name="Acircumflex" horiz-adv-x="1059" unicode="&#xc2;"/><glyph d="M805 520H293L6 0H-111L711 1468H778L979 0H874L805 520ZM793 612 754 903Q723 1145 715 1305 685 1242 651 1175T344 612H793ZM911 1587Q871 1587 834 1606T758 1651Q724 1674 694 1692T625 1710Q580 1710 551 1682T500 1581H426Q445 1689 497 1747T631 1806Q672 1806 704 1792T822 1720Q874 1684 916 1684 959 1684 987 1714T1034 1815H1110Q1084 1697 1036 1642T911 1587Z" glyph-name="Atilde" horiz-adv-x="1059" unicode="&#xc3;"/><glyph d="M805 520H293L6 0H-111L711 1468H778L979 0H874L805 520ZM793 612 754 903Q723 1145 715 1305 685 1242 651 1175T344 612H793ZM879 1704Q879 1753 899 1782T956 1811Q1010 1811 1010 1747 1010 1699 989 1670T934 1641Q879 1641 879 1704ZM535 1704Q535 1753 555 1782T612 1811Q666 1811 666 1747 666 1699 645 1670T590 1641Q535 1641 535 1704Z" glyph-name="Adieresis" horiz-adv-x="1059" unicode="&#xc4;"/><glyph d="M805 520H293L6 0H-111L711 1468H778L979 0H874L805 520ZM793 612 754 903Q723 1145 715 1305 685 1242 651 1175T344 612H793ZM945 1600Q945 1508 888 1452T742 1395Q649 1395 594 1447T539 1592Q539 1680 598 1736T748 1792Q836 1792 890 1742T945 1600ZM867 1598Q867 1655 834 1688T746 1721Q686 1721 653 1685T619 1592Q619 1535 652 1502T742 1469Q798 1469 832 1505T867 1598Z" glyph-name="Aring" horiz-adv-x="1059" unicode="&#xc5;"/><glyph d="M1403 0H676L786 522H342L14 0H-117L829 1462H1712L1692 1368H1067L950 815H1540L1520 721H932L797 94H1423L1403 0ZM408 627H809L965 1368H877L408 627Z" glyph-name="AE" horiz-adv-x="1640" unicode="&#xc6;"/><glyph d="M961 1389Q764 1389 610 1285T365 980 274 539Q274 314 384 193T702 72Q842 72 1006 123V29Q850-20 690-20 438-20 304 125T170 535Q170 801 274 1023T559 1364 961 1483Q1138 1483 1268 1415L1223 1325Q1168 1355 1099 1372T961 1389ZM752-289Q752-383 677-437T459-492Q413-492 381-485V-406Q411-412 453-412 651-412 651-297 651-200 500-190L610 0H690L612-137Q752-167 752-289Z" glyph-name="Ccedilla" horiz-adv-x="1169" unicode="&#xc7;"/><glyph d="M829 0H102L412 1462H1139L1118 1368H494L377 815H967L946 721H358L223 94H850L829 0ZM891 1579H825Q775 1631 711 1723T612 1886V1907H727Q773 1778 891 1604V1579Z" glyph-name="Egrave" horiz-adv-x="1067" unicode="&#xc8;"/><glyph d="M829 0H102L412 1462H1139L1118 1368H494L377 815H967L946 721H358L223 94H850L829 0ZM654 1600Q720 1651 804 1742T934 1907H1071V1884Q1020 1818 914 1726T721 1579H654V1600Z" glyph-name="Eacute" horiz-adv-x="1067" unicode="&#xc9;"/><glyph d="M829 0H102L412 1462H1139L1118 1368H494L377 815H967L946 721H358L223 94H850L829 0ZM1036 1579H987Q917 1639 826 1786 771 1729 701 1672T576 1579H522V1608Q590 1664 679 1756T807 1907H871Q894 1843 943 1755T1036 1608V1579Z" glyph-name="Ecircumflex" horiz-adv-x="1067" unicode="&#xca;"/><glyph d="M829 0H102L412 1462H1139L1118 1368H494L377 815H967L946 721H358L223 94H850L829 0ZM902 1704Q902 1753 922 1782T979 1811Q1033 1811 1033 1747 1033 1699 1012 1670T957 1641Q902 1641 902 1704ZM558 1704Q558 1753 578 1782T635 1811Q689 1811 689 1747 689 1699 668 1670T613 1641Q558 1641 558 1704Z" glyph-name="Edieresis" horiz-adv-x="1067" unicode="&#xcb;"/><glyph d="M102 0 412 1462H510L201 0H102ZM525 1579H459Q409 1631 345 1723T246 1886V1907H361Q407 1778 525 1604V1579Z" glyph-name="Igrave" horiz-adv-x="504" unicode="&#xcc;"/><glyph d="M102 0 412 1462H510L201 0H102ZM419 1600Q485 1651 569 1742T699 1907H836V1884Q785 1818 679 1726T486 1579H419V1600Z" glyph-name="Iacute" horiz-adv-x="504" unicode="&#xcd;"/><glyph d="M102 0 412 1462H510L201 0H102ZM738 1579H689Q619 1639 528 1786 473 1729 403 1672T278 1579H224V1608Q292 1664 381 1756T509 1907H573Q596 1843 645 1755T738 1608V1579Z" glyph-name="Icircumflex" horiz-adv-x="504" unicode="&#xce;"/><glyph d="M102 0 412 1462H510L201 0H102ZM604 1704Q604 1753 624 1782T681 1811Q735 1811 735 1747 735 1699 714 1670T659 1641Q604 1641 604 1704ZM260 1704Q260 1753 280 1782T337 1811Q391 1811 391 1747 391 1699 370 1670T315 1641Q260 1641 260 1704Z" glyph-name="Idieresis" horiz-adv-x="504" unicode="&#xcf;"/><glyph d="M1288 879Q1288 626 1179 418T878 105 432 0H102L246 676H90L111 772H266L412 1462H717Q999 1462 1143 1315T1288 879ZM430 90Q656 90 824 184T1085 460 1178 872Q1178 1370 702 1370H496L367 772H745L725 676H346L221 90H430Z" glyph-name="Eth" horiz-adv-x="1352" unicode="&#xd0;"/><glyph d="M1069 0H983L467 1284H459Q436 1135 411 1011T197 0H102L412 1462H492L1014 168H1022Q1045 344 1096 584L1284 1462H1378L1069 0ZM1062 1587Q1022 1587 985 1606T909 1651Q875 1674 845 1692T776 1710Q731 1710 702 1682T651 1581H577Q596 1689 648 1747T782 1806Q823 1806 855 1792T973 1720Q1025 1684 1067 1684 1110 1684 1138 1714T1185 1815H1261Q1235 1697 1187 1642T1062 1587Z" glyph-name="Ntilde" horiz-adv-x="1372" unicode="&#xd1;"/><glyph d="M1403 911Q1403 656 1309 430T1057 92 692-20Q442-20 307 129T172 559Q172 821 265 1036T520 1367 893 1483Q1140 1483 1271 1335T1403 911ZM879 1389Q705 1389 571 1288T356 990 276 573Q276 328 385 200T705 72Q874 72 1005 170T1215 470 1294 901Q1294 1141 1190 1265T879 1389ZM989 1579H923Q873 1631 809 1723T710 1886V1907H825Q871 1778 989 1604V1579Z" glyph-name="Ograve" horiz-adv-x="1464" unicode="&#xd2;"/><glyph d="M1403 911Q1403 656 1309 430T1057 92 692-20Q442-20 307 129T172 559Q172 821 265 1036T520 1367 893 1483Q1140 1483 1271 1335T1403 911ZM879 1389Q705 1389 571 1288T356 990 276 573Q276 328 385 200T705 72Q874 72 1005 170T1215 470 1294 901Q1294 1141 1190 1265T879 1389ZM844 1600Q910 1651 994 1742T1124 1907H1261V1884Q1210 1818 1104 1726T911 1579H844V1600Z" glyph-name="Oacute" horiz-adv-x="1464" unicode="&#xd3;"/><glyph d="M1403 911Q1403 656 1309 430T1057 92 692-20Q442-20 307 129T172 559Q172 821 265 1036T520 1367 893 1483Q1140 1483 1271 1335T1403 911ZM879 1389Q705 1389 571 1288T356 990 276 573Q276 328 385 200T705 72Q874 72 1005 170T1215 470 1294 901Q1294 1141 1190 1265T879 1389ZM1171 1579H1122Q1052 1639 961 1786 906 1729 836 1672T711 1579H657V1608Q725 1664 814 1756T942 1907H1006Q1029 1843 1078 1755T1171 1608V1579Z" glyph-name="Ocircumflex" horiz-adv-x="1464" unicode="&#xd4;"/><glyph d="M1403 911Q1403 656 1309 430T1057 92 692-20Q442-20 307 129T172 559Q172 821 265 1036T520 1367 893 1483Q1140 1483 1271 1335T1403 911ZM879 1389Q705 1389 571 1288T356 990 276 573Q276 328 385 200T705 72Q874 72 1005 170T1215 470 1294 901Q1294 1141 1190 1265T879 1389ZM1077 1587Q1037 1587 1000 1606T924 1651Q890 1674 860 1692T791 1710Q746 1710 717 1682T666 1581H592Q611 1689 663 1747T797 1806Q838 1806 870 1792T988 1720Q1040 1684 1082 1684 1125 1684 1153 1714T1200 1815H1276Q1250 1697 1202 1642T1077 1587Z" glyph-name="Otilde" horiz-adv-x="1464" unicode="&#xd5;"/><glyph d="M1403 911Q1403 656 1309 430T1057 92 692-20Q442-20 307 129T172 559Q172 821 265 1036T520 1367 893 1483Q1140 1483 1271 1335T1403 911ZM879 1389Q705 1389 571 1288T356 990 276 573Q276 328 385 200T705 72Q874 72 1005 170T1215 470 1294 901Q1294 1141 1190 1265T879 1389ZM1031 1704Q1031 1753 1051 1782T1108 1811Q1162 1811 1162 1747 1162 1699 1141 1670T1086 1641Q1031 1641 1031 1704ZM687 1704Q687 1753 707 1782T764 1811Q818 1811 818 1747 818 1699 797 1670T742 1641Q687 1641 687 1704Z" glyph-name="Odieresis" horiz-adv-x="1464" unicode="&#xd6;"/><glyph d="M551 723 221 1055 291 1124 621 795 954 1124 1022 1057 690 723 1022 391 954 324 621 653 291 326 223 393 551 723Z" glyph-name="multiply" horiz-adv-x="1128" unicode="&#xd7;"/><glyph d="M1403 911Q1403 724 1351 546T1207 241 984 48 692-20Q477-20 344 92L205-78 139-14 285 158Q172 307 172 559 172 822 266 1038T522 1369 893 1483Q1112 1483 1245 1362L1378 1530 1448 1477 1303 1294Q1348 1243 1375 1133T1403 911ZM879 1389Q745 1389 635 1330T447 1160 322 892 276 573Q276 468 297 382T354 244L1180 1276Q1073 1389 879 1389ZM1294 901Q1294 986 1277 1073T1233 1202L412 172Q519 72 705 72 875 72 1006 172T1215 468 1294 901Z" glyph-name="Oslash" horiz-adv-x="1464" unicode="&#xd8;"/><glyph d="M1395 1462 1188 485Q1130 215 991 98T616-20Q176-20 176 381 176 464 203 582L389 1462H492L299 563Q279 474 279 379 279 70 621 70 816 70 928 166T1087 485L1294 1462H1395ZM946 1579H880Q830 1631 766 1723T667 1886V1907H782Q828 1778 946 1604V1579Z" glyph-name="Ugrave" horiz-adv-x="1370" unicode="&#xd9;"/><glyph d="M1395 1462 1188 485Q1130 215 991 98T616-20Q176-20 176 381 176 464 203 582L389 1462H492L299 563Q279 474 279 379 279 70 621 70 816 70 928 166T1087 485L1294 1462H1395ZM838 1600Q904 1651 988 1742T1118 1907H1255V1884Q1204 1818 1098 1726T905 1579H838V1600Z" glyph-name="Uacute" horiz-adv-x="1370" unicode="&#xda;"/><glyph d="M1395 1462 1188 485Q1130 215 991 98T616-20Q176-20 176 381 176 464 203 582L389 1462H492L299 563Q279 474 279 379 279 70 621 70 816 70 928 166T1087 485L1294 1462H1395ZM1148 1579H1099Q1029 1639 938 1786 883 1729 813 1672T688 1579H634V1608Q702 1664 791 1756T919 1907H983Q1006 1843 1055 1755T1148 1608V1579Z" glyph-name="Ucircumflex" horiz-adv-x="1370" unicode="&#xdb;"/><glyph d="M1395 1462 1188 485Q1130 215 991 98T616-20Q176-20 176 381 176 464 203 582L389 1462H492L299 563Q279 474 279 379 279 70 621 70 816 70 928 166T1087 485L1294 1462H1395ZM1022 1704Q1022 1753 1042 1782T1099 1811Q1153 1811 1153 1747 1153 1699 1132 1670T1077 1641Q1022 1641 1022 1704ZM678 1704Q678 1753 698 1782T755 1811Q809 1811 809 1747 809 1699 788 1670T733 1641Q678 1641 678 1704Z" glyph-name="Udieresis" horiz-adv-x="1370" unicode="&#xdc;"/><glyph d="M494 645 1038 1462H1155L524 530 416 0H311L430 545 193 1462H293L494 645ZM563 1600Q629 1651 713 1742T843 1907H980V1884Q929 1818 823 1726T630 1579H563V1600Z" glyph-name="Yacute" horiz-adv-x="965" unicode="&#xdd;"/><glyph d="M1087 836Q1087 589 934 463T477 336H276L205 0H102L412 1462H514L457 1196H670Q870 1196 978 1104T1087 836ZM293 428H483Q739 428 859 526T979 829Q979 1104 649 1104H438L293 428Z" glyph-name="Thorn" horiz-adv-x="1145" unicode="&#xde;"/><glyph d="M-162-492Q-235-492-281-469V-379Q-228-403-166-403-87-403-43-353T23-199L328 1210Q408 1567 733 1567 870 1567 948 1506T1026 1331Q1026 1256 982 1191T815 1042Q708 966 674 918T639 811Q639 760 673 723T766 647Q862 584 904 514T946 348Q946 178 840 79T553-20Q410-20 319 45V154Q364 118 431 95T561 72Q693 72 769 143T846 338Q846 413 815 467T705 575Q623 633 586 685T549 807Q549 864 570 910T630 998 768 1112Q869 1182 899 1228T930 1329Q930 1399 875 1439T725 1479Q596 1479 520 1403T412 1174L121-203Q88-355 18-423T-162-492Z" glyph-name="germandbls" horiz-adv-x="1094" unicode="&#xdf;"/><glyph d="M655 1104Q887 1104 934 885H940L999 1087H1079L850 0H768L813 274H807Q723 132 620 56T383-20Q102-20 102 354 102 551 177 730T377 1006 655 1104ZM406 70Q495 70 583 132T742 298 850 528 887 741Q887 820 861 882T784 981 657 1018Q533 1018 433 936T269 691 205 365Q205 213 255 142T406 70ZM809 1241H743Q693 1293 629 1385T530 1548V1569H645Q691 1440 809 1266V1241Z" glyph-name="agrave" horiz-adv-x="1133" unicode="&#xe0;"/><glyph d="M655 1104Q887 1104 934 885H940L999 1087H1079L850 0H768L813 274H807Q723 132 620 56T383-20Q102-20 102 354 102 551 177 730T377 1006 655 1104ZM406 70Q495 70 583 132T742 298 850 528 887 741Q887 820 861 882T784 981 657 1018Q533 1018 433 936T269 691 205 365Q205 213 255 142T406 70ZM586 1262Q652 1313 736 1404T866 1569H1003V1546Q952 1480 846 1388T653 1241H586V1262Z" glyph-name="aacute" horiz-adv-x="1133" unicode="&#xe1;"/><glyph d="M655 1104Q887 1104 934 885H940L999 1087H1079L850 0H768L813 274H807Q723 132 620 56T383-20Q102-20 102 354 102 551 177 730T377 1006 655 1104ZM406 70Q495 70 583 132T742 298 850 528 887 741Q887 820 861 882T784 981 657 1018Q533 1018 433 936T269 691 205 365Q205 213 255 142T406 70ZM1211 1243H1162Q1092 1303 1001 1450 946 1393 876 1336T751 1243H697V1272Q765 1328 854 1420T982 1571H1046Q1069 1507 1118 1419T1211 1272V1243Z" glyph-name="acircumflex" horiz-adv-x="1133" unicode="&#xe2;"/><glyph d="M655 1104Q887 1104 934 885H940L999 1087H1079L850 0H768L813 274H807Q723 132 620 56T383-20Q102-20 102 354 102 551 177 730T377 1006 655 1104ZM406 70Q495 70 583 132T742 298 850 528 887 741Q887 820 861 882T784 981 657 1018Q533 1018 433 936T269 691 205 365Q205 213 255 142T406 70ZM858 1249Q818 1249 781 1268T705 1313Q671 1336 641 1354T572 1372Q527 1372 498 1344T447 1243H373Q392 1351 444 1409T578 1468Q619 1468 651 1454T769 1382Q821 1346 863 1346 906 1346 934 1376T981 1477H1057Q1031 1359 983 1304T858 1249Z" glyph-name="atilde" horiz-adv-x="1133" unicode="&#xe3;"/><glyph d="M655 1104Q887 1104 934 885H940L999 1087H1079L850 0H768L813 274H807Q723 132 620 56T383-20Q102-20 102 354 102 551 177 730T377 1006 655 1104ZM406 70Q495 70 583 132T742 298 850 528 887 741Q887 820 861 882T784 981 657 1018Q533 1018 433 936T269 691 205 365Q205 213 255 142T406 70ZM1091 1366Q1091 1415 1111 1444T1168 1473Q1222 1473 1222 1409 1222 1361 1201 1332T1146 1303Q1091 1303 1091 1366ZM747 1366Q747 1415 767 1444T824 1473Q878 1473 878 1409 878 1361 857 1332T802 1303Q747 1303 747 1366Z" glyph-name="adieresis" horiz-adv-x="1133" unicode="&#xe4;"/><glyph d="M655 1104Q887 1104 934 885H940L999 1087H1079L850 0H768L813 274H807Q723 132 620 56T383-20Q102-20 102 354 102 551 177 730T377 1006 655 1104ZM406 70Q495 70 583 132T742 298 850 528 887 741Q887 820 861 882T784 981 657 1018Q533 1018 433 936T269 691 205 365Q205 213 255 142T406 70ZM1183 1448Q1183 1356 1126 1300T980 1243Q887 1243 832 1295T777 1440Q777 1528 836 1584T986 1640Q1074 1640 1128 1590T1183 1448ZM1105 1446Q1105 1503 1072 1536T984 1569Q924 1569 891 1533T857 1440Q857 1383 890 1350T980 1317Q1036 1317 1070 1353T1105 1446Z" glyph-name="aring" horiz-adv-x="1133" unicode="&#xe5;"/><glyph d="M1155-20Q1032-20 944 40T827 205L788 0H711L752 254H743Q649 112 554 46T346-20Q226-20 164 74T102 344Q102 550 172 728T365 1005 639 1104Q745 1104 805 1048T879 891H889L948 1083H1014L979 897Q1118 1104 1329 1104 1441 1104 1504 1043T1567 870Q1567 691 1409 599T938 506H899Q891 455 891 410 891 249 960 160T1178 70Q1247 70 1311 91T1442 143V49Q1362 12 1295-4T1155-20ZM369 70Q436 70 507 112T641 229 747 400 811 599 831 764Q831 882 782 950T641 1018Q518 1018 418 932T262 692 205 352Q205 202 247 136T369 70ZM1317 1018Q1198 1018 1085 903T913 594H961Q1224 594 1344 661T1464 864Q1464 935 1426 976T1317 1018Z" glyph-name="ae" horiz-adv-x="1602" unicode="&#xe6;"/><glyph d="M477-20Q303-20 203 90T102 397Q102 590 175 758T374 1015 664 1104Q798 1104 905 1061L877 971Q770 1018 659 1018 530 1018 427 941T264 719 205 399Q205 241 278 156T487 70Q558 70 618 83T750 129V37Q634-20 477-20ZM574-289Q574-383 499-437T281-492Q235-492 203-485V-406Q233-412 275-412 473-412 473-297 473-200 322-190L432 0H512L434-137Q574-167 574-289Z" glyph-name="ccedilla" horiz-adv-x="887" unicode="&#xe7;"/><glyph d="M469-20Q296-20 199 89T102 395Q102 576 173 742T368 1006 643 1104Q757 1104 825 1043T893 877Q893 696 730 601T244 506H211Q205 462 205 408 205 243 279 157T492 70Q624 70 768 143V49Q628-20 469-20ZM631 1018Q500 1018 388 903T225 594H274Q791 594 791 864 791 931 748 974T631 1018ZM1007 1241H941Q891 1293 827 1385T728 1548V1569H843Q889 1440 1007 1266V1241Z" glyph-name="egrave" horiz-adv-x="928" unicode="&#xe8;"/><glyph d="M469-20Q296-20 199 89T102 395Q102 576 173 742T368 1006 643 1104Q757 1104 825 1043T893 877Q893 696 730 601T244 506H211Q205 462 205 408 205 243 279 157T492 70Q624 70 768 143V49Q628-20 469-20ZM631 1018Q500 1018 388 903T225 594H274Q791 594 791 864 791 931 748 974T631 1018ZM788 1262Q854 1313 938 1404T1068 1569H1205V1546Q1154 1480 1048 1388T855 1241H788V1262Z" glyph-name="eacute" horiz-adv-x="928" unicode="&#xe9;"/><glyph d="M469-20Q296-20 199 89T102 395Q102 576 173 742T368 1006 643 1104Q757 1104 825 1043T893 877Q893 696 730 601T244 506H211Q205 462 205 408 205 243 279 157T492 70Q624 70 768 143V49Q628-20 469-20ZM631 1018Q500 1018 388 903T225 594H274Q791 594 791 864 791 931 748 974T631 1018ZM1160 1241H1111Q1041 1301 950 1448 895 1391 825 1334T700 1241H646V1270Q714 1326 803 1418T931 1569H995Q1018 1505 1067 1417T1160 1270V1241Z" glyph-name="ecircumflex" horiz-adv-x="928" unicode="&#xea;"/><glyph d="M469-20Q296-20 199 89T102 395Q102 576 173 742T368 1006 643 1104Q757 1104 825 1043T893 877Q893 696 730 601T244 506H211Q205 462 205 408 205 243 279 157T492 70Q624 70 768 143V49Q628-20 469-20ZM631 1018Q500 1018 388 903T225 594H274Q791 594 791 864 791 931 748 974T631 1018ZM1036 1366Q1036 1415 1056 1444T1113 1473Q1167 1473 1167 1409 1167 1361 1146 1332T1091 1303Q1036 1303 1036 1366ZM692 1366Q692 1415 712 1444T769 1473Q823 1473 823 1409 823 1361 802 1332T747 1303Q692 1303 692 1366Z" glyph-name="edieresis" horiz-adv-x="928" unicode="&#xeb;"/><glyph d="M174 0H76L307 1087H403L174 0ZM454 1241H388Q338 1293 274 1385T175 1548V1569H290Q336 1440 454 1266V1241Z" glyph-name="igrave" horiz-adv-x="475" unicode="&#xec;"/><glyph d="M174 0H76L307 1087H403L174 0ZM284 1262Q350 1313 434 1404T564 1569H701V1546Q650 1480 544 1388T351 1241H284V1262Z" glyph-name="iacute" horiz-adv-x="475" unicode="&#xed;"/><glyph d="M174 0H76L307 1087H403L174 0ZM642 1241H593Q523 1301 432 1448 377 1391 307 1334T182 1241H128V1270Q196 1326 285 1418T413 1569H477Q500 1505 549 1417T642 1270V1241Z" glyph-name="icircumflex" horiz-adv-x="475" unicode="&#xee;"/><glyph d="M174 0H76L307 1087H403L174 0ZM515 1366Q515 1415 535 1444T592 1473Q646 1473 646 1409 646 1361 625 1332T570 1303Q515 1303 515 1366ZM171 1366Q171 1415 191 1444T248 1473Q302 1473 302 1409 302 1361 281 1332T226 1303Q171 1303 171 1366Z" glyph-name="idieresis" horiz-adv-x="475" unicode="&#xef;"/><glyph d="M713 1364Q659 1424 555 1503L614 1571Q646 1545 695 1505T795 1411L1061 1561 1100 1487 844 1346Q931 1230 975 1070T1020 735Q1020 380 879 180T479-20Q302-20 202 86T102 381Q102 551 165 682T343 886 606 958Q713 958 794 909T915 766H920Q920 905 877 1055T762 1298L467 1135 428 1208 713 1364ZM489 70Q607 70 697 131T841 317 895 588Q895 665 860 730T760 831 604 868Q480 868 391 807T253 637 205 389Q205 236 278 153T489 70Z" glyph-name="eth" horiz-adv-x="1124" unicode="&#xf0;"/><glyph d="M764 0 913 692Q934 784 934 848 934 928 891 973T756 1018Q644 1018 546 951T380 764 276 477L174 0H76L307 1087H389L352 866H358Q522 1104 774 1104 904 1104 969 1040T1034 856Q1034 786 1010 674L862 0H764ZM874 1249Q834 1249 797 1268T721 1313Q687 1336 657 1354T588 1372Q543 1372 514 1344T463 1243H389Q408 1351 460 1409T594 1468Q635 1468 667 1454T785 1382Q837 1346 879 1346 922 1346 950 1376T997 1477H1073Q1047 1359 999 1304T874 1249Z" glyph-name="ntilde" horiz-adv-x="1143" unicode="&#xf1;"/><glyph d="M649 1108Q829 1108 927 1000T1026 700Q1026 503 955 332T759 70 473-20Q289-20 194 89T98 403Q98 594 171 761T368 1018 649 1108ZM641 1022Q517 1022 418 944T260 719 201 408Q201 66 483 66 610 66 708 143T865 371 924 702Q924 856 851 939T641 1022ZM1000 1241H934Q884 1293 820 1385T721 1548V1569H836Q882 1440 1000 1266V1241Z" glyph-name="ograve" horiz-adv-x="1124" unicode="&#xf2;"/><glyph d="M649 1108Q829 1108 927 1000T1026 700Q1026 503 955 332T759 70 473-20Q289-20 194 89T98 403Q98 594 171 761T368 1018 649 1108ZM641 1022Q517 1022 418 944T260 719 201 408Q201 66 483 66 610 66 708 143T865 371 924 702Q924 856 851 939T641 1022ZM829 1262Q895 1313 979 1404T1109 1569H1246V1546Q1195 1480 1089 1388T896 1241H829V1262Z" glyph-name="oacute" horiz-adv-x="1124" unicode="&#xf3;"/><glyph d="M649 1108Q829 1108 927 1000T1026 700Q1026 503 955 332T759 70 473-20Q289-20 194 89T98 403Q98 594 171 761T368 1018 649 1108ZM641 1022Q517 1022 418 944T260 719 201 408Q201 66 483 66 610 66 708 143T865 371 924 702Q924 856 851 939T641 1022ZM1197 1241H1148Q1078 1301 987 1448 932 1391 862 1334T737 1241H683V1270Q751 1326 840 1418T968 1569H1032Q1055 1505 1104 1417T1197 1270V1241Z" glyph-name="ocircumflex" horiz-adv-x="1124" unicode="&#xf4;"/><glyph d="M649 1108Q829 1108 927 1000T1026 700Q1026 503 955 332T759 70 473-20Q289-20 194 89T98 403Q98 594 171 761T368 1018 649 1108ZM641 1022Q517 1022 418 944T260 719 201 408Q201 66 483 66 610 66 708 143T865 371 924 702Q924 856 851 939T641 1022ZM839 1249Q799 1249 762 1268T686 1313Q652 1336 622 1354T553 1372Q508 1372 479 1344T428 1243H354Q373 1351 425 1409T559 1468Q600 1468 632 1454T750 1382Q802 1346 844 1346 887 1346 915 1376T962 1477H1038Q1012 1359 964 1304T839 1249Z" glyph-name="otilde" horiz-adv-x="1124" unicode="&#xf5;"/><glyph d="M649 1108Q829 1108 927 1000T1026 700Q1026 503 955 332T759 70 473-20Q289-20 194 89T98 403Q98 594 171 761T368 1018 649 1108ZM641 1022Q517 1022 418 944T260 719 201 408Q201 66 483 66 610 66 708 143T865 371 924 702Q924 856 851 939T641 1022ZM1068 1366Q1068 1415 1088 1444T1145 1473Q1199 1473 1199 1409 1199 1361 1178 1332T1123 1303Q1068 1303 1068 1366ZM724 1366Q724 1415 744 1444T801 1473Q855 1473 855 1409 855 1361 834 1332T779 1303Q724 1303 724 1366Z" glyph-name="odieresis" horiz-adv-x="1124" unicode="&#xf6;"/><glyph d="M168 672V772H1071V672H168ZM522 373Q522 479 618 479 666 479 691 452T717 373Q717 316 688 291T618 266Q522 266 522 373ZM522 1071Q522 1178 618 1178 664 1178 690 1151T717 1071Q717 1014 688 990T618 965Q522 965 522 1071Z" glyph-name="divide" horiz-adv-x="1128" unicode="&#xf7;"/><glyph d="M164 127Q98 233 98 403 98 594 171 761T368 1018 649 1108Q799 1108 899 1026L1008 1159 1073 1106 956 963Q1026 858 1026 700 1026 503 955 332T759 70 473-20Q310-20 219 63L109-72 45-18 164 127ZM924 702Q924 803 889 881L281 139Q348 66 483 66 610 66 708 143T865 371 924 702ZM641 1022Q517 1022 418 944T260 719 201 408Q201 283 233 211L838 950Q764 1022 641 1022Z" glyph-name="oslash" horiz-adv-x="1124" unicode="&#xf8;"/><glyph d="M381 1087 229 389Q207 283 207 231 207 157 254 114T393 70Q503 70 600 135T764 322 864 602L969 1087H1067L836 0H756L784 205H778Q611-16 375-16 244-16 177 46T109 227Q109 287 131 397L281 1087H381ZM774 1241H708Q658 1293 594 1385T495 1548V1569H610Q656 1440 774 1266V1241Z" glyph-name="ugrave" horiz-adv-x="1143" unicode="&#xf9;"/><glyph d="M381 1087 229 389Q207 283 207 231 207 157 254 114T393 70Q503 70 600 135T764 322 864 602L969 1087H1067L836 0H756L784 205H778Q611-16 375-16 244-16 177 46T109 227Q109 287 131 397L281 1087H381ZM627 1262Q693 1313 777 1404T907 1569H1044V1546Q993 1480 887 1388T694 1241H627V1262Z" glyph-name="uacute" horiz-adv-x="1143" unicode="&#xfa;"/><glyph d="M381 1087 229 389Q207 283 207 231 207 157 254 114T393 70Q503 70 600 135T764 322 864 602L969 1087H1067L836 0H756L784 205H778Q611-16 375-16 244-16 177 46T109 227Q109 287 131 397L281 1087H381ZM1213 1241H1164Q1094 1301 1003 1448 948 1391 878 1334T753 1241H699V1270Q767 1326 856 1418T984 1569H1048Q1071 1505 1120 1417T1213 1270V1241Z" glyph-name="ucircumflex" horiz-adv-x="1143" unicode="&#xfb;"/><glyph d="M381 1087 229 389Q207 283 207 231 207 157 254 114T393 70Q503 70 600 135T764 322 864 602L969 1087H1067L836 0H756L784 205H778Q611-16 375-16 244-16 177 46T109 227Q109 287 131 397L281 1087H381ZM1083 1366Q1083 1415 1103 1444T1160 1473Q1214 1473 1214 1409 1214 1361 1193 1332T1138 1303Q1083 1303 1083 1366ZM739 1366Q739 1415 759 1444T816 1473Q870 1473 870 1409 870 1361 849 1332T794 1303Q739 1303 739 1366Z" glyph-name="udieresis" horiz-adv-x="1143" unicode="&#xfc;"/><glyph d="M123 1087H223L305 539Q356 188 360 90H371Q414 195 557 457L905 1087H1008L295-203Q223-330 173-381T59-462-88-492Q-156-492-217-471V-379Q-146-406-80-406 0-406 67-357T197-192 297-8L123 1087ZM761 1262Q827 1313 911 1404T1041 1569H1178V1546Q1127 1480 1021 1388T828 1241H761V1262Z" glyph-name="yacute" horiz-adv-x="920" unicode="&#xfd;"/><glyph d="M498-16Q268-16 219 203H215Q202 131 66-492H-33L401 1556H500Q386 1021 336 805H342Q435 961 541 1034T772 1108Q905 1108 978 1016T1051 733Q1051 538 979 362T782 85 498-16ZM748 1018Q662 1018 576 961T413 791 302 553 266 346Q266 221 327 146T496 70Q620 70 721 154T885 397 948 723Q948 1018 748 1018Z" glyph-name="thorn" horiz-adv-x="1163" unicode="&#xfe;"/><glyph d="M123 1087H223L305 539Q356 188 360 90H371Q414 195 557 457L905 1087H1008L295-203Q223-330 173-381T59-462-88-492Q-156-492-217-471V-379Q-146-406-80-406 0-406 67-357T197-192 297-8L123 1087ZM698 1366Q698 1415 718 1444T775 1473Q829 1473 829 1409 829 1361 808 1332T753 1303Q698 1303 698 1366ZM354 1366Q354 1415 374 1444T431 1473Q485 1473 485 1409 485 1361 464 1332T409 1303Q354 1303 354 1366Z" glyph-name="ydieresis" horiz-adv-x="920" unicode="&#xff;"/><glyph d="M66 502 84 592H891L874 502H66Z" glyph-name="endash" horiz-adv-x="983" unicode="&#x2013;"/><glyph d="M68 502 86 592H1874L1858 502H68Z" glyph-name="emdash" horiz-adv-x="1966" unicode="&#x2014;"/><glyph d="M133 961 129 983Q170 1083 245 1214T406 1462H479Q413 1356 350 1220T246 961H133Z" glyph-name="quoteleft" horiz-adv-x="299" unicode="&#x2018;"/><glyph d="M475 1462 479 1440Q436 1335 362 1205T203 961H129Q195 1067 258 1203T362 1462H475Z" glyph-name="quoteright" horiz-adv-x="299" unicode="&#x2019;"/><glyph d="M246 238 250 215Q210 118 135-15T-27-264H-100Q-32-154 31-16T133 238H246Z" glyph-name="quotesinglbase" horiz-adv-x="451" unicode="&#x201a;"/><glyph d="M133 961 129 983Q170 1083 245 1214T406 1462H479Q413 1356 350 1220T246 961H133ZM467 961 463 983Q506 1087 583 1221T739 1462H813Q747 1356 684 1220T580 961H467Z" glyph-name="quotedblleft" horiz-adv-x="631" unicode="&#x201c;"/><glyph d="M809 1462 813 1440Q770 1335 696 1205T537 961H463Q529 1067 592 1203T696 1462H809ZM475 1462 479 1440Q436 1335 362 1205T203 961H129Q195 1067 258 1203T362 1462H475Z" glyph-name="quotedblright" horiz-adv-x="631" unicode="&#x201d;"/><glyph d="M561 238 565 215Q522 110 448-20T289-264H215Q281-156 344-22T449 238H561ZM227 238 231 215Q188 110 114-20T-45-264H-119Q-46-145 16-10T115 238H227Z" glyph-name="quotedblbase" horiz-adv-x="776" unicode="&#x201e;"/><glyph d="M248 682Q248 819 311 895T483 971Q559 971 599 932T639 813Q639 688 573 606T397 524Q248 524 248 682Z" glyph-name="bullet" horiz-adv-x="793" unicode="&#x2022;"/><glyph d="M451 932 508 883 190 547 403 162 340 123 86 541 88 567 451 932Z" glyph-name="guilsinglleft" horiz-adv-x="537" unicode="&#x2039;"/><glyph d="M94 123 37 172 354 508 141 893 205 932 459 514 457 487 94 123Z" glyph-name="guilsinglright" horiz-adv-x="537" unicode="&#x203a;"/></font>
</defs>
</svg>
