<svg xmlns="http://www.w3.org/2000/svg"><defs><font horiz-adv-x="1279"><font-face alphabetic="0" ascent="2189" descent="-600" panose-1="2 11 9 6 3 8 4 2 2 4" units-per-em="2048"/><glyph glyph-name="space" horiz-adv-x="532" unicode="&#x20;"/><glyph d="M453 516H125L281 1462H707L453 516ZM12 127Q12 234 77 297T256 360Q343 360 389 320T436 205Q436 95 373 35T199-25Q111-25 62 13T12 127Z" glyph-name="exclam" horiz-adv-x="623" unicode="&#x21;"/><glyph d="M596 1462 438 934H182L254 1462H596ZM1038 1462 881 934H623L696 1462H1038Z" glyph-name="quotedbl" horiz-adv-x="930" unicode="&#x26;&#x71;&#x75;&#x6f;&#x74;&#x3b;"/><glyph d="M1067 831 1010 631H1253L1233 393H940L829 0H559L672 393H504L391 0H121L233 393H14L35 631H301L358 831H123L143 1073H428L539 1462H809L698 1073H866L977 1462H1247L1137 1073H1358L1337 831H1067ZM571 631H739L797 831H629L571 631Z" glyph-name="numbersign" horiz-adv-x="1323" unicode="&#x23;"/><glyph d="M1067 481Q1067 303 934 191T573 66L535-121H367L408 70Q187 86 61 162V473Q187 414 289 387T492 360Q666 360 666 465 666 505 634 537T494 621Q355 683 280 781T205 1008Q205 1184 338 1296T696 1423L725 1556H893L862 1419Q1023 1404 1176 1329L1036 1059Q878 1130 741 1130 675 1130 638 1102T600 1034Q600 981 639 945T797 850Q937 782 1002 695T1067 481Z" glyph-name="dollar" horiz-adv-x="1188" unicode="&#x24;"/><glyph d="M1630 1462 549 0H252L1341 1462H1630ZM498 1241Q448 1241 410 1131T371 891Q371 807 424 807 476 807 513 917T551 1157Q551 1200 539 1220T498 1241ZM842 1161Q842 996 786 858T628 643 397 565Q238 565 159 648T80 887Q80 1060 134 1196T288 1408 526 1483Q673 1483 757 1398T842 1161ZM1475 655Q1425 655 1387 545T1348 305Q1348 221 1401 221 1453 221 1490 331T1528 571Q1528 615 1516 635T1475 655ZM1819 575Q1819 411 1763 273T1605 58 1374-20Q1215-20 1136 63T1057 301Q1057 474 1111 610T1265 822 1503 897Q1650 897 1734 812T1819 575Z" glyph-name="percent" horiz-adv-x="1878" unicode="&#x25;"/><glyph d="M8 385Q8 544 95 649T367 815Q330 861 307 933T283 1065Q283 1262 409 1373T764 1485Q953 1485 1066 1397T1180 1161Q1180 1031 1100 928T838 731L967 545Q1003 581 1042 659T1106 821H1489Q1443 660 1361 516T1171 262L1362 0H920L877 61Q722-20 528-20 284-20 146 86T8 385ZM745 1221Q696 1221 666 1187T635 1092Q635 1016 686 948 758 979 792 1027T827 1135Q827 1170 805 1195T745 1221ZM571 287Q648 287 709 313L516 592Q399 540 399 424 399 362 446 325T571 287Z" glyph-name="ampersand" horiz-adv-x="1501" unicode="&#x26;&#x61;&#x6d;&#x70;&#x3b;"/><glyph d="M596 1462 438 934H182L254 1462H596Z" glyph-name="quotesingle" horiz-adv-x="487" unicode="&#x26;&#x61;&#x70;&#x6f;&#x73;&#x3b;"/><glyph d="M68 326Q68 656 192 945T580 1503H903Q643 1222 519 927T395 309Q395 159 427-17T512-324H219Q152-204 110-25T68 326Z" glyph-name="parenleft" horiz-adv-x="766" unicode="&#x28;"/><glyph d="M694 854Q694 513 571 226T193-324H-133Q123-47 245 247T367 870Q367 1020 335 1192T248 1503H543Q614 1379 654 1205T694 854Z" glyph-name="parenright" horiz-adv-x="766" unicode="&#x29;"/><glyph d="M909 1509 793 1178 1161 1208 1139 907 829 948 977 637 692 551 612 854 446 610 197 795 451 1024 152 1108 252 1386 571 1221 602 1571 909 1509Z" glyph-name="asterisk" horiz-adv-x="1110" unicode="&#x2a;"/><glyph d="M455 586H102V858H455V1210H725V858H1077V586H725V238H455V586Z" glyph-name="plus" horiz-adv-x="1159" unicode="&#x2b;"/><glyph d="M432 238 440 215Q324-47 184-264H-104Q-51-143 43 123L84 238H432Z" glyph-name="comma" horiz-adv-x="627" unicode="&#x2c;"/><glyph d="M23 393 86 705H639L575 393H23Z" glyph-name="hyphen" horiz-adv-x="674" unicode="&#x2d;"/><glyph d="M0 127Q0 236 65 298T244 360Q328 360 376 320T424 205Q424 87 364 31T174-25Q96-25 48 12T0 127Z" glyph-name="period" horiz-adv-x="627" unicode="&#x2e;"/><glyph d="M1092 1483 254-20H-90L748 1483H1092Z" glyph-name="slash" horiz-adv-x="956" unicode="&#x2f;"/><glyph d="M1157 983Q1157 685 1072 454T837 101 489-20Q279-20 171 106T63 465Q63 760 148 998T383 1361 731 1485Q866 1485 961 1423T1107 1248 1157 983ZM686 1169Q631 1169 576 1058T487 776 453 457Q453 373 468 334T528 295Q586 295 639 389T730 655 768 991Q768 1076 750 1122T686 1169Z" glyph-name="zero" horiz-adv-x="1188" unicode="&#x30;"/><glyph d="M774 0H385L559 799Q587 931 635 1055 557 987 504 952L301 827 150 1079 770 1462H1081L774 0Z" glyph-name="one" horiz-adv-x="1188" unicode="&#x31;"/><glyph d="M948 0H-57L-4 256 479 692Q727 913 727 1053 727 1102 701 1126T635 1151Q515 1151 354 1004L168 1262Q402 1483 709 1483 892 1483 1004 1384T1116 1114Q1116 962 1029 829T731 514L526 338V326H1016L948 0Z" glyph-name="two" horiz-adv-x="1188" unicode="&#x32;"/><glyph d="M1126 1137Q1126 989 1037 892T784 762V754Q913 729 986 643T1059 430Q1059 214 881 97T399-20Q283-20 182 0T14 59V391Q181 291 391 291 529 291 597 337T666 471Q666 525 639 552T553 591 387 604H303L356 895H434Q581 895 663 941T745 1069Q745 1115 709 1143T610 1171Q493 1171 340 1087L182 1335Q308 1416 425 1449T684 1483Q885 1483 1005 1390T1126 1137Z" glyph-name="three" horiz-adv-x="1188" unicode="&#x33;"/><glyph d="M1065 283H915L856 0H479L539 283H-10L41 539 803 1462H1163L977 578H1126L1065 283ZM600 578 649 772Q678 879 709 983H700Q649 886 586 811L391 578H600Z" glyph-name="four" horiz-adv-x="1188" unicode="&#x34;"/><glyph d="M655 958Q836 958 948 841T1061 524Q1061 263 900 122T434-20Q305-20 190 2T20 63V387Q99 342 201 317T385 291Q662 291 662 483 662 559 612 606T475 653Q422 653 364 643T272 621L150 713 365 1462H1178L1110 1139H639L580 954Q615 958 655 958Z" glyph-name="five" horiz-adv-x="1188" unicode="&#x35;"/><glyph d="M971 1483Q1073 1483 1204 1452L1141 1149Q1046 1174 958 1174 813 1174 721 1140T570 1032 463 807H471Q577 977 778 977 938 977 1022 874T1106 575Q1106 400 1038 264T841 54 543-20Q318-20 198 104T78 471Q78 576 104 725 189 1117 402 1300T971 1483ZM561 287Q627 287 670 363T713 545Q713 674 621 674 553 674 508 601T463 420Q463 354 489 321T561 287Z" glyph-name="six" horiz-adv-x="1188" unicode="&#x36;"/><glyph d="M35 0 752 1135H178L248 1462H1278L1227 1231 483 0H35Z" glyph-name="seven" horiz-adv-x="1188" unicode="&#x37;"/><glyph d="M725 1485Q925 1485 1041 1393T1157 1151Q1157 1023 1080 923T877 782Q969 711 1017 624T1065 420Q1065 214 924 97T537-20Q312-20 181 79T49 338Q49 639 381 756 225 877 225 1065 225 1186 285 1281T459 1431 725 1485ZM584 608Q414 518 414 385 414 331 450 297T547 262Q617 262 659 304T702 414Q702 529 584 608ZM707 1202Q659 1202 624 1163T588 1065Q588 1027 611 988T674 930Q732 952 766 1001T801 1104Q801 1153 773 1177T707 1202Z" glyph-name="eight" horiz-adv-x="1188" unicode="&#x38;"/><glyph d="M1137 952Q1137 659 1034 433T749 93 317-20Q202-20 106 10V324Q198 287 309 287 496 287 600 374T745 655H737Q678 560 605 521T436 481Q285 481 197 591T109 887Q109 1063 174 1197T364 1407 662 1483Q892 1483 1014 1346T1137 952ZM672 1176Q599 1176 551 1105T502 932Q502 788 594 788 668 788 719 858T770 1030Q770 1096 743 1136T672 1176Z" glyph-name="nine" horiz-adv-x="1188" unicode="&#x39;"/><glyph d="M0 127Q0 236 65 298T244 360Q328 360 376 320T424 205Q424 87 364 31T174-25Q96-25 48 12T0 127ZM195 915Q195 1025 260 1086T436 1147Q518 1147 568 1110T618 993Q618 874 559 818T369 762Q290 762 243 799T195 915Z" glyph-name="colon" horiz-adv-x="627" unicode="&#x3a;"/><glyph d="M420 238 428 215Q312-47 172-264H-117Q-52-117 31 123L72 238H420ZM195 915Q195 1025 260 1086T436 1147Q518 1147 568 1110T618 993Q618 874 559 818T369 762Q290 762 243 799T195 915Z" glyph-name="semicolon" horiz-adv-x="627" unicode="&#x3b;"/><glyph d="M1061 176 88 627V799L1061 1307V1008L485 725 1061 473V176Z" glyph-name="less" horiz-adv-x="1159" unicode="&#x26;&#x6c;&#x74;&#x3b;"/><glyph d="M102 774V1040H1077V774H102ZM102 399V670H1077V399H102Z" glyph-name="equal" horiz-adv-x="1159" unicode="&#x3d;"/><glyph d="M109 473 684 725 109 1008V1307L1081 799V627L109 176V473Z" glyph-name="greater" horiz-adv-x="1159" unicode="&#x26;&#x67;&#x74;&#x3b;"/><glyph d="M256 516 268 580Q283 660 310 718T381 822 522 932Q611 990 647 1027T684 1104Q684 1174 594 1174 468 1174 281 1065L162 1348Q393 1483 623 1483 824 1483 942 1393T1061 1145Q1061 1056 1034 989T955 869 784 743Q684 683 642 643T586 559L571 516H256ZM176 127Q176 234 241 297T420 360Q507 360 553 320T600 205Q600 95 537 35T362-25Q275-25 226 14T176 127Z" glyph-name="question" horiz-adv-x="999" unicode="&#x3f;"/><glyph d="M1774 827Q1774 657 1705 513T1514 288 1247 207Q1077 207 1028 336H1018Q970 271 907 239T750 207Q633 207 559 290T485 512Q485 668 559 806T755 1017 1032 1090Q1187 1090 1368 1020L1268 606Q1245 512 1245 469 1245 428 1284 428 1348 428 1400 476T1481 615 1511 821Q1511 1034 1378 1143T995 1253Q808 1253 659 1162T427 904 344 524Q344 379 399 270T552 102 776 43Q879 43 1010 67T1255 137V-88Q1165-131 1032-158T780-186Q571-186 413-103T168 137 82 500Q82 788 199 1011T534 1358 1020 1483Q1375 1483 1574 1309T1774 827ZM1012 868Q939 868 884 821T796 694 764 532Q764 428 842 428 903 428 941 479T1016 668L1063 858Q1040 868 1012 868Z" glyph-name="at" horiz-adv-x="1837" unicode="&#x40;"/><glyph d="M858 274H410L285 0H-121L623 1462H1126L1249 0H868L858 274ZM553 586H846L829 1010 827 1096Q827 1171 831 1227 807 1141 770 1061L553 586Z" glyph-name="A" horiz-adv-x="1384" unicode="&#x41;"/><glyph d="M342 1462H829Q1046 1462 1158 1380T1270 1143Q1270 855 973 766V758Q1061 729 1113 657T1165 479Q1165 250 1013 125T580 0H33L342 1462ZM614 901H686Q774 901 819 939T864 1061Q864 1163 737 1163H674L614 901ZM555 612 489 305H571Q657 305 714 353T772 475Q772 544 739 578T623 612H555Z" glyph-name="B" horiz-adv-x="1298" unicode="&#x42;"/><glyph d="M881 1159Q773 1159 686 1081T550 866 500 569Q500 435 556 369T717 303Q800 303 885 323T1085 393V70Q882-20 645-20 385-20 245 128T104 549Q104 815 205 1037T481 1372 881 1485Q1146 1485 1362 1354L1214 1049Q1121 1104 1043 1131T881 1159Z" glyph-name="C" horiz-adv-x="1290" unicode="&#x43;"/><glyph d="M1337 909Q1337 629 1238 424T951 109 504 0H33L342 1462H758Q1034 1462 1185 1318T1337 909ZM563 324Q673 324 759 394T894 593 942 889Q942 1014 888 1078T737 1143H666L494 324H563Z" glyph-name="D" horiz-adv-x="1401" unicode="&#x44;"/><glyph d="M901 0H33L342 1462H1210L1145 1145H668L621 915H1065L993 598H549L492 322H969L901 0Z" glyph-name="E" horiz-adv-x="1151" unicode="&#x45;"/><glyph d="M424 0H33L342 1462H1204L1137 1145H666L608 866H1044L975 547H537L424 0Z" glyph-name="F" horiz-adv-x="1165" unicode="&#x46;"/><glyph d="M731 856H1341L1174 61Q924-20 653-20 392-20 248 132T104 563Q104 830 214 1045T515 1372 961 1485Q1227 1485 1409 1378L1262 1069Q1109 1159 956 1159 824 1159 723 1087T561 872 500 569Q500 305 709 305 772 305 842 319L893 551H664L731 856Z" glyph-name="G" horiz-adv-x="1430" unicode="&#x47;"/><glyph d="M1163 0H772L897 596H551L424 0H33L342 1462H733L621 920H969L1081 1462H1473L1163 0Z" glyph-name="H" horiz-adv-x="1462" unicode="&#x48;"/><glyph d="M31 0 340 1462H737L428 0H31Z" glyph-name="I" horiz-adv-x="727" unicode="&#x49;"/><glyph d="M-115-461Q-221-461-328-432V-113Q-229-137-154-137-47-137 8-78T92 117L381 1462H772L473 68Q430-132 360-244T178-409-115-461Z" glyph-name="J" horiz-adv-x="764" unicode="&#x4a;"/><glyph d="M1241 0H803L629 578 532 522 424 0H33L342 1462H733L598 838 636 897Q724 1040 766 1092L1063 1462H1522L971 788 1241 0Z" glyph-name="K" horiz-adv-x="1370" unicode="&#x4b;"/><glyph d="M33 0 342 1462H733L492 319H969L901 0H33Z" glyph-name="L" horiz-adv-x="1079" unicode="&#x4c;"/><glyph d="M588 0V1049H580Q513 632 494 537L381 0H33L342 1462H860V424H868L1346 1462H1872L1559 0H1208L1325 549Q1375 777 1433 985L1448 1049H1440L958 0H588Z" glyph-name="M" horiz-adv-x="1862" unicode="&#x4d;"/><glyph d="M1319 0H864L575 1028H567Q538 737 510 610L381 0H33L342 1462H797L1083 479H1092Q1121 715 1149 850L1280 1462H1628L1319 0Z" glyph-name="N" horiz-adv-x="1618" unicode="&#x4e;"/><glyph d="M897 1485Q1157 1485 1301 1337T1446 922Q1446 656 1347 436T1072 98 666-20Q397-20 251 129T104 543Q104 808 207 1030T487 1368 897 1485ZM1051 918Q1051 1032 1003 1096T864 1161Q765 1161 682 1077T550 846 500 545Q500 303 700 303 795 303 876 386T1004 610 1051 918Z" glyph-name="O" horiz-adv-x="1509" unicode="&#x4f;"/><glyph d="M1251 1024Q1251 772 1080 629T610 485H524L424 0H33L342 1462H715Q974 1462 1112 1349T1251 1024ZM594 805H657Q748 805 804 863T860 1012Q860 1071 824 1107T725 1143H666L594 805Z" glyph-name="P" horiz-adv-x="1276" unicode="&#x50;"/><glyph d="M903 1485Q1161 1485 1303 1336T1446 922Q1446 642 1332 413T1022 74L1260-348H821L659-20H647Q389-20 247 129T104 543Q104 808 206 1029T488 1367 903 1485ZM870 1157Q767 1157 682 1074T548 848 500 539Q500 424 547 367T682 309Q784 309 868 390T1002 614 1051 926Q1051 1040 1004 1098T870 1157Z" glyph-name="Q" horiz-adv-x="1509" unicode="&#x51;"/><glyph d="M537 532 424 0H33L342 1462H729Q981 1462 1115 1362T1249 1061Q1249 905 1178 789T967 612L1191 96 1231 0H805L610 532H537ZM600 829H651Q746 829 802 883T858 1036Q858 1098 824 1130T723 1163H670L600 829Z" glyph-name="R" horiz-adv-x="1331" unicode="&#x52;"/><glyph d="M977 449Q977 227 830 104T420-20Q310-20 212 4T43 76V426Q127 373 235 337T432 301Q506 301 544 332T582 420Q582 447 570 470T536 517 418 621Q301 715 248 813T195 1028Q195 1159 260 1263T445 1425 713 1483Q952 1483 1143 1376L1008 1079Q837 1167 717 1167 653 1167 619 1139T584 1057Q584 1008 617 966T745 852Q863 765 920 669T977 449Z" glyph-name="S" horiz-adv-x="1122" unicode="&#x53;"/><glyph d="M627 0H236L473 1139H156L225 1462H1253L1182 1139H864L627 0Z" glyph-name="T" horiz-adv-x="1130" unicode="&#x54;"/><glyph d="M1450 1462 1251 530Q1192 249 1026 115T575-20Q441-20 339 35T181 189 125 410Q125 474 137 539L336 1462H727L532 549Q518 481 518 434 518 307 639 307 733 307 786 371T868 569L1059 1462H1450Z" glyph-name="U" horiz-adv-x="1436" unicode="&#x55;"/><glyph d="M1001 1462H1415L690 0H254L150 1462H532L559 661V610Q559 466 543 354H551Q565 418 595 511T651 657L1001 1462Z" glyph-name="V" horiz-adv-x="1264" unicode="&#x56;"/><glyph d="M487 354 527 458 621 690 956 1462H1292V670Q1292 514 1266 354 1276 382 1399 700L1702 1462H2089L1454 0H993V620Q993 775 1006 944 973 811 888 595L635 0H201L152 1462H522L512 729Q506 462 487 354Z" glyph-name="W" horiz-adv-x="1915" unicode="&#x57;"/><glyph d="M1235 0H803L657 498 319 0H-125L438 776 215 1462H631L754 993 1063 1462H1511L973 737 1235 0Z" glyph-name="X" horiz-adv-x="1358" unicode="&#x58;"/><glyph d="M657 920 969 1462H1405L793 567 672 0H281L401 567 164 1462H567L657 920Z" glyph-name="Y" horiz-adv-x="1237" unicode="&#x59;"/><glyph d="M942 0H-92L-45 242 645 1143H166L233 1462H1219L1167 1217 467 319H1010L942 0Z" glyph-name="Z" horiz-adv-x="1104" unicode="&#x5a;"/><glyph d="M477-344H-53L340 1503H870L815 1249H600L315-90H530L477-344Z" glyph-name="bracketleft" horiz-adv-x="737" unicode="&#x5b;"/><glyph d="M530 1483 778-20H459L221 1483H530Z" glyph-name="backslash" horiz-adv-x="956" unicode="&#x5c;"/><glyph d="M-80-90H133L418 1249H203L258 1503H786L393-344H-133L-80-90Z" glyph-name="bracketright" horiz-adv-x="737" unicode="&#x5d;"/><glyph d="M-6 502 625 1462H797L1081 502H807L651 1071 291 502H-6Z" glyph-name="asciicircum" horiz-adv-x="1096" unicode="&#x5e;"/><glyph d="M745-379H-184L-127-133H803L745-379Z" glyph-name="underscore" horiz-adv-x="922" unicode="&#x5f;"/><glyph d="M975 1241H739Q657 1316 587 1400T485 1548V1569H881Q910 1412 975 1266V1241Z" glyph-name="grave" horiz-adv-x="1135" unicode="&#x60;"/><glyph d="M565 291Q615 291 660 349T733 506 760 698Q760 763 740 802T678 842Q602 842 541 716T479 434Q479 291 565 291ZM981 0H672L682 123H674Q618 45 553 13T406-20Q248-20 166 91T84 412Q84 591 157 777T341 1058 588 1153Q672 1153 736 1116T850 993H858L911 1133H1221L981 0Z" glyph-name="a" horiz-adv-x="1243" unicode="&#x61;"/><glyph d="M657-20Q574-20 512 12T387 125H379L330 0H23L352 1556H739L690 1325Q652 1150 600 1024H608Q656 1083 685 1105T752 1140 838 1153Q993 1153 1076 1042T1159 721Q1159 543 1089 359T906 78 657-20ZM678 842Q628 842 583 785T512 631 485 434Q485 369 504 330T563 291Q612 291 659 350T735 506 764 698Q764 842 678 842Z" glyph-name="b" horiz-adv-x="1243" unicode="&#x62;"/><glyph d="M506-20Q307-20 196 100T84 442Q84 643 160 806T375 1061 690 1153Q885 1153 1057 1073L934 786Q801 846 709 846 647 846 594 798T507 655 473 467Q473 376 503 334T598 291Q670 291 737 314T881 377V70Q801 26 713 3T506-20Z" glyph-name="c" horiz-adv-x="1032" unicode="&#x63;"/><glyph d="M586 1153Q661 1153 712 1123T823 1001H831L833 1038Q840 1176 858 1255L920 1556H1311L981 0H672L682 123H674Q617 44 554 12T406-20Q248-20 166 91T84 412Q84 590 155 775T339 1056 586 1153ZM565 291Q615 291 660 349T733 506 760 698Q760 842 680 842 631 842 584 783T508 628 479 434Q479 291 565 291Z" glyph-name="d" horiz-adv-x="1237" unicode="&#x64;"/><glyph d="M532-20Q320-20 202 98T84 428Q84 639 167 808T396 1065 733 1153Q923 1153 1032 1067T1141 838Q1141 637 985 530T532 422H473V406Q473 258 637 258 716 258 792 281T965 356V82Q853 25 756 3T532-20ZM690 891Q629 891 576 822T512 664H541Q650 664 712 705T774 815Q774 847 754 869T690 891Z" glyph-name="e" horiz-adv-x="1186" unicode="&#x65;"/><glyph d="M-2-492Q-112-492-209-465V-162Q-146-180-92-180-18-180 20-150T72-55L262 842H96L139 1032 328 1128 344 1202Q387 1394 490 1480T766 1567Q846 1567 921 1551T1049 1509L950 1245Q886 1276 821 1276 786 1276 762 1258T729 1204L713 1133H924L858 842H649L444-117Q401-309 291-400T-2-492Z" glyph-name="f" horiz-adv-x="840" unicode="&#x66;"/><glyph d="M1235 1133 1194 926 1034 874Q1044 834 1044 780 1044 589 914 472T575 354Q499 354 451 367 431 356 417 345T403 315Q403 272 514 256L651 238Q825 213 901 147T977-43Q977-258 809-375T330-492Q118-492-7-417T-133-207Q-133-109-65-38T147 80Q110 103 87 140T63 219Q63 290 114 345T266 446Q135 549 135 727 135 923 271 1038T639 1153Q690 1153 746 1147T836 1133H1235ZM197-152Q197-238 367-238 492-238 557-209T623-127Q623-91 590-73T475-45L360-33Q282-44 240-74T197-152ZM500 692Q500 598 567 598 619 598 652 666T686 825Q686 920 625 920 587 920 559 887T516 799 500 692Z" glyph-name="g" horiz-adv-x="1145" unicode="&#x67;"/><glyph d="M639 0 768 618Q786 696 786 760 786 803 764 824T711 846Q586 846 526 553L410 0H23L352 1556H739L686 1307Q651 1149 598 1024H606Q707 1153 879 1153 1020 1153 1099 1068T1178 831Q1178 725 1153 602L1026 0H639Z" glyph-name="h" horiz-adv-x="1274" unicode="&#x68;"/><glyph d="M410 0H23L262 1133H651L410 0ZM309 1382Q309 1485 368 1538T535 1591Q626 1591 675 1555T725 1450Q725 1350 667 1296T500 1241Q309 1241 309 1382Z" glyph-name="i" horiz-adv-x="666" unicode="&#x69;"/><glyph d="M-57-492Q-167-492-264-465V-162Q-208-180-152-180-10-180 23-33L270 1133H657L397-94Q357-287 240-389T-57-492ZM317 1382Q317 1485 376 1538T543 1591Q634 1591 683 1555T733 1450Q733 1356 678 1299T508 1241Q317 1241 317 1382Z" glyph-name="j" horiz-adv-x="666" unicode="&#x6a;"/><glyph d="M348 1556H735L596 893Q579 816 528 670H537Q621 797 690 870L932 1133H1374L883 621 1157 0H719L580 391 479 338 410 0H23L348 1556Z" glyph-name="k" horiz-adv-x="1264" unicode="&#x6b;"/><glyph d="M410 0H23L352 1556H739L410 0Z" glyph-name="l" horiz-adv-x="666" unicode="&#x6c;"/><glyph d="M645 0 776 631Q791 721 791 752 791 846 719 846 651 846 606 772T528 551L410 0H23L262 1133H571L555 946H563Q624 1060 700 1106T891 1153Q1008 1153 1071 1100T1161 946H1169Q1234 1052 1318 1102T1513 1153Q1654 1153 1727 1069T1800 819Q1800 722 1778 614L1653 0H1266L1395 631Q1409 687 1409 764 1409 804 1390 825T1339 846Q1265 846 1220 770T1143 543L1032 0H645Z" glyph-name="m" horiz-adv-x="1896" unicode="&#x6d;"/><glyph d="M786 760Q786 803 764 824T711 846Q654 846 606 775T526 553L410 0H23L262 1133H571L559 975H567Q622 1070 696 1111T879 1153Q1020 1153 1099 1068T1178 831Q1178 725 1153 602L1026 0H639L768 618Q786 696 786 760Z" glyph-name="n" horiz-adv-x="1274" unicode="&#x6e;"/><glyph d="M520-20Q311-20 198 93T84 416Q84 626 163 795T387 1059 723 1153Q932 1153 1045 1040T1159 717Q1159 507 1080 338T856 74 520-20ZM678 862Q596 862 538 723T479 403Q479 270 563 270 644 270 704 409T764 729Q764 795 741 828T678 862Z" glyph-name="o" horiz-adv-x="1243" unicode="&#x6f;"/><glyph d="M651-20Q508-20 420 125H412Q400-41 356-246L305-492H-82L262 1133H571L559 1006H567Q663 1153 825 1153 981 1153 1070 1042T1159 735Q1159 532 1089 353T904 77 651-20ZM678 842Q628 842 583 785T512 631 485 434Q485 369 508 330T573 291Q621 291 665 348T736 501 764 698Q764 842 678 842Z" glyph-name="p" horiz-adv-x="1243" unicode="&#x70;"/><glyph d="M586 1153Q675 1153 731 1120T850 993H858L911 1133H1221L877-492H485L553-199Q578-83 643 111H635Q580 37 521 9T387-20Q298-20 229 30T122 178 84 408Q84 589 155 774T338 1056 586 1153ZM565 291Q615 291 660 349T733 506 760 698Q760 842 680 842 631 842 584 783T508 628 479 434Q479 291 565 291Z" glyph-name="q" horiz-adv-x="1243" unicode="&#x71;"/><glyph d="M901 1153Q957 1153 981 1145L897 762Q843 784 774 784 671 784 610 714T516 498L410 0H23L262 1133H571L553 944H561Q626 1056 702 1104T901 1153Z" glyph-name="r" horiz-adv-x="895" unicode="&#x72;"/><glyph d="M891 393Q891 194 761 87T387-20Q165-20 31 43V354Q123 304 202 284T362 264Q430 264 464 282T498 334Q498 369 472 394T342 479Q236 537 188 612T139 795Q139 967 260 1060T604 1153Q716 1153 808 1127T987 1047L866 795Q800 838 730 863T608 889Q532 889 532 821 532 792 563 770T666 713Q891 601 891 393Z" glyph-name="s" horiz-adv-x="1028" unicode="&#x73;"/><glyph d="M567 291Q633 291 750 338V47Q614-20 410-20 262-20 186 43T109 252Q109 328 133 440L217 842H63L104 1032 322 1120 459 1360H717L668 1133H956L893 842H604L520 459Q504 382 504 354 504 291 567 291Z" glyph-name="t" horiz-adv-x="936" unicode="&#x74;"/><glyph d="M487 375Q487 331 509 310T563 289Q622 289 670 367T748 582L864 1133H1251L1012 0H702L715 158H707Q653 65 579 23T395-20Q254-20 175 65T96 301Q96 407 121 530L248 1133H635L506 516Q487 434 487 375Z" glyph-name="u" horiz-adv-x="1274" unicode="&#x75;"/><glyph d="M233 0 88 1133H473L500 530Q500 457 492 412H500Q501 426 518 475T554 565 819 1133H1233L621 0H233Z" glyph-name="v" horiz-adv-x="1114" unicode="&#x76;"/><glyph d="M840 0 860 449Q862 522 871 658T893 877H885Q825 644 764 487L575 0H168L102 1133H467V621Q467 439 459 362H467Q513 539 555 657L727 1133H1155L1135 657Q1126 528 1102 362H1110Q1117 384 1125 409T1174 549 1415 1133H1800L1262 0H840Z" glyph-name="w" horiz-adv-x="1686" unicode="&#x77;"/><glyph d="M545 328 334 0H-119L354 578 147 1133H569L645 819 831 1133H1290L825 557 1053 0H625L545 328Z" glyph-name="x" horiz-adv-x="1159" unicode="&#x78;"/><glyph d="M82 1133H471L514 571 516 509V422H524Q561 554 574 587T813 1133H1229L559-143Q463-328 336-410T25-492Q-67-492-129-475V-168Q-83-180-20-180 67-180 122-144T221-29L244 12 82 1133Z" glyph-name="y" horiz-adv-x="1114" unicode="&#x79;"/><glyph d="M803 0H-41L2 221 504 834H156L223 1133H1034L981 891 485 299H868L803 0Z" glyph-name="z" horiz-adv-x="993" unicode="&#x7a;"/><glyph d="M432 45Q432-43 545-43V-324H463Q280-324 191-256T102-47Q102 16 117 80L154 254Q160 278 160 297 160 372 118 403T-16 434L37 721Q156 721 212 759T289 893L344 1139Q372 1263 420 1329T550 1428 754 1462H883L821 1182Q740 1180 701 1153T645 1053L592 795Q572 699 507 644T313 573V565Q403 536 443 478T483 332Q483 315 473 258L438 94Q432 64 432 45Z" glyph-name="braceleft" horiz-adv-x="735" unicode="&#x7b;"/><glyph d="M442 1548H713V-465H442V1548Z" glyph-name="bar" horiz-adv-x="1159" unicode="&#x7c;"/><glyph d="M-49-324H-123V-43Q-50-40-14-30T40 4 70 86L123 344Q144 443 211 498T401 565V573Q231 628 231 807 231 819 242 881L276 1044Q283 1073 283 1094 283 1182 147 1182L201 1462H262Q430 1462 521 1392T612 1188Q612 1119 598 1059L561 885Q555 859 555 842 555 776 599 742T748 707L690 420Q569 420 508 380T426 246L371 0Q334-171 234-247T-49-324Z" glyph-name="braceright" horiz-adv-x="735" unicode="&#x7d;"/><glyph d="M336 645Q284 645 222 615T96 524V809Q203 918 358 918 419 918 468 907T621 854Q688 826 735 813T834 799Q885 799 949 831T1071 920V635Q964 526 809 526 747 526 696 538T547 590Q472 621 429 633T336 645Z" glyph-name="asciitilde" horiz-adv-x="1159" unicode="&#x7e;"/><glyph glyph-name="nbspace" horiz-adv-x="532" unicode="&#xa0;"/><glyph d="M145 608H473L317-338H-109L145 608ZM586 1001Q586 894 521 831T342 768Q255 768 209 808T162 924Q162 1033 226 1093T399 1153Q488 1153 537 1114T586 1001Z" glyph-name="exclamdown" horiz-adv-x="623" unicode="&#xa1;"/><glyph d="M602-20H373L424 188Q154 262 154 586 154 892 294 1096T666 1335L698 1483H928L895 1333Q1017 1314 1126 1257L1004 971Q925 1008 876 1019T778 1030Q715 1030 663 981T579 834 547 627Q547 548 578 514T668 479Q740 479 808 504T950 569V258Q805 180 643 168L602-20Z" glyph-name="cent" horiz-adv-x="1188" unicode="&#xa2;"/><glyph d="M850 1483Q939 1483 1027 1464T1223 1397L1079 1098Q1013 1129 965 1145T866 1161Q831 1161 810 1137T774 1044L750 930H1001L944 651H692L672 557Q656 483 603 424T469 330H1073L1001 0H-18L45 313Q121 334 165 362T234 431 276 555L297 651H109L166 930H354L377 1059Q403 1208 462 1302T612 1439 850 1483Z" glyph-name="sterling" horiz-adv-x="1188" unicode="&#xa3;"/><glyph d="M190 723Q190 815 236 907L106 1032 291 1217 418 1092Q514 1135 600 1135 696 1135 784 1087L909 1217 1098 1038 969 909Q1012 827 1012 723 1012 629 969 537L1092 414 909 231 784 354Q688 313 600 313 492 313 414 352L291 233 109 416 236 539Q190 629 190 723ZM451 723Q451 659 494 615T600 571Q665 571 710 615T756 723Q756 784 712 829T600 874Q536 874 494 830T451 723Z" glyph-name="currency" horiz-adv-x="1188" unicode="&#xa4;"/><glyph d="M639 975 932 1462H1325L836 729H1020L975 524H752L725 395H948L905 190H682L641 0H262L303 190H76L119 395H346L371 524H145L190 729H369L182 1462H567L639 975Z" glyph-name="yen" horiz-adv-x="1188" unicode="&#xa5;"/><glyph d="M444 1546H715V705H444V1546ZM444 395H715V-444H444V395Z" glyph-name="brokenbar" horiz-adv-x="1159" unicode="&#xa6;"/><glyph d="M158 776Q158 860 204 932T336 1057Q298 1095 277 1146T256 1249Q256 1409 372 1493T711 1577Q895 1577 1071 1475L971 1251Q880 1309 812 1330T678 1352Q618 1352 593 1330T567 1278Q567 1245 581 1225T627 1182 717 1133Q961 1020 961 821 961 722 923 650T793 526Q825 488 843 436T862 326Q862 156 735 66T377-25Q267-25 180 0T37 70V319Q122 267 210 233T395 199Q464 199 504 227T545 303Q545 341 514 373T410 446Q280 517 219 598T158 776ZM524 940Q487 921 465 886T442 817Q442 774 479 733T604 643Q678 694 678 770 678 824 642 865T524 940Z" glyph-name="section" horiz-adv-x="1036" unicode="&#xa7;"/><glyph d="M336 1384Q336 1571 537 1571 707 1571 707 1446 707 1257 506 1257 418 1257 377 1288T336 1384ZM823 1384Q823 1571 1024 1571 1192 1571 1192 1446 1192 1349 1143 1303T993 1257Q905 1257 864 1288T823 1384Z" glyph-name="dieresis" horiz-adv-x="1135" unicode="&#xa8;"/><glyph d="M913 971Q833 971 787 910T741 731Q741 603 785 546T920 489Q1058 489 1178 557V326Q1052 262 905 262 692 262 577 387T461 735Q461 955 574 1076T895 1198Q1061 1198 1227 1116L1135 911Q1021 971 913 971ZM113 731Q113 933 214 1109T490 1384 864 1483Q1064 1483 1239 1383T1515 1108 1616 731Q1616 534 1519 361T1247 84 864-20Q658-20 484 82T212 359 113 731ZM276 731Q276 573 354 437T569 222 864 143Q1021 143 1157 220T1372 434 1452 731Q1452 889 1374 1025T1159 1240 864 1319Q706 1319 569 1240T354 1024 276 731Z" glyph-name="copyright" horiz-adv-x="1688" unicode="&#xa9;"/><glyph d="M483 1475Q547 1475 594 1455T696 1376H705L741 1462H940L770 741H575L584 827H575Q486 729 352 729 292 729 244 760T168 852 139 1001Q139 1121 184 1233T307 1410 483 1475ZM481 911Q527 911 560 949T611 1049 629 1178Q629 1231 610 1261T557 1292Q518 1292 485 1252T432 1144 412 1012Q412 964 431 938T481 911Z" glyph-name="ordfeminine" horiz-adv-x="827" unicode="&#xaa;"/><glyph d="M61 563 469 1081 733 877 467 543 578 213 244 76 61 553V563ZM608 592 1032 1087 1292 877 1014 571 1137 213 803 76 608 582V592Z" glyph-name="guillemotleft" horiz-adv-x="1276" unicode="&#xab;"/><glyph d="M1057 858V238H786V586H82V858H1057Z" glyph-name="logicalnot" horiz-adv-x="1159" unicode="&#xac;"/><glyph d="M23 393 86 705H639L575 393H23Z" glyph-name="uni00AD" horiz-adv-x="674" unicode="&#xad;"/><glyph d="M1245 918Q1245 827 1201 765T1061 668L1272 313H987L827 633H815V313H535V1188H825Q1039 1188 1142 1118T1245 918ZM815 809H825Q903 809 933 831T963 907Q963 961 928 977T823 993H815V809ZM113 731Q113 933 214 1109T490 1384 864 1483Q1064 1483 1239 1383T1515 1108 1616 731Q1616 534 1519 361T1247 84 864-20Q658-20 484 82T212 359 113 731ZM276 731Q276 573 354 437T569 222 864 143Q1021 143 1157 220T1372 434 1452 731Q1452 889 1374 1025T1159 1240 864 1319Q706 1319 569 1240T354 1024 276 731Z" glyph-name="registered" horiz-adv-x="1688" unicode="&#xae;"/><glyph d="M1112 1554H183L240 1800H1170L1112 1554Z" glyph-name="overscore" horiz-adv-x="922" unicode="&#xaf;"/><glyph d="M166 1114Q166 1211 215 1296T350 1432 535 1483Q633 1483 719 1433T854 1297 903 1114Q903 1016 854 931T718 798 535 750Q436 750 350 799T215 932 166 1114ZM403 1114Q403 1063 442 1025T535 987Q587 987 626 1025T666 1114Q666 1167 628 1207T535 1247Q480 1247 442 1208T403 1114Z" glyph-name="degree" horiz-adv-x="864" unicode="&#xb0;"/><glyph d="M455 694H102V965H455V1317H725V965H1077V694H725V344H455V694ZM102 0V270H1077V0H102Z" glyph-name="plusminus" horiz-adv-x="1159" unicode="&#xb1;"/><glyph d="M727 584H23L66 788 342 999Q450 1082 486 1123T522 1198Q522 1249 459 1249 424 1249 374 1231T270 1169L152 1360Q236 1425 324 1454T541 1483Q675 1483 759 1422T844 1266Q844 1196 813 1137T711 1016 459 840H778L727 584Z" glyph-name="twosuperior" horiz-adv-x="848" unicode="&#xb2;"/><glyph d="M821 1272Q821 1181 766 1126T590 1042V1034Q682 1011 719 965T756 852Q756 725 652 647T377 569Q271 569 200 585T66 639V864Q129 821 197 802T322 782Q473 782 473 862 473 930 360 930H240L283 1124H379Q450 1124 493 1145T537 1212Q537 1240 515 1255T461 1270Q382 1270 276 1204L176 1386Q259 1438 337 1459T518 1481Q655 1481 738 1424T821 1272Z" glyph-name="threesuperior" horiz-adv-x="848" unicode="&#xb3;"/><glyph d="M453 1264Q576 1366 735 1569H1174V1554Q1129 1500 983 1397T737 1241H453V1264Z" glyph-name="acute" horiz-adv-x="1135" unicode="&#xb4;"/><glyph d="M545-20Q443-20 414 57H406Q396-77 358-246L305-492H-82L262 1133H649L520 516Q502 438 502 375 502 331 524 310T578 289Q630 289 660 315T714 402 762 582L879 1133H1266L1026 0H737L743 123H735Q667-20 545-20Z" glyph-name="mu" horiz-adv-x="1288" unicode="&#xb5;"/><glyph d="M1186-260H995V1327H838V-260H647V559Q593 541 522 541 306 541 204 666T102 1042Q102 1298 209 1427T553 1556H1186V-260Z" glyph-name="paragraph" horiz-adv-x="1317" unicode="&#xb6;"/><glyph d="M115 684Q115 790 180 852T358 915Q440 915 489 875T539 760Q539 643 474 587T295 530Q209 530 162 570T115 684Z" glyph-name="middot" horiz-adv-x="627" unicode="&#xb7;"/><glyph d="M287-236Q287-357 205-424T-29-492Q-144-492-221-463V-258Q-191-267-143-276T-70-285Q-2-285-2-236-2-163-147-135L-72 0H133L109-41Q287-78 287-236Z" glyph-name="cedilla" horiz-adv-x="383" unicode="&#xb8;"/><glyph d="M541 1462H793L606 584H289L371 948Q392 1050 426 1155L352 1096 233 1018 115 1202 541 1462Z" glyph-name="onesuperior" horiz-adv-x="848" unicode="&#xb9;"/><glyph d="M602 1182Q602 1227 591 1250T547 1274Q487 1274 450 1201T412 1016Q412 932 467 932 526 932 564 1002T602 1182ZM874 1182Q874 1048 823 945T674 785 442 727Q298 727 219 802T139 1004Q139 1217 255 1348T573 1479Q716 1479 795 1400T874 1182Z" glyph-name="ordmasculine" horiz-adv-x="817" unicode="&#xba;"/><glyph d="M1214 561 807 43 543 248 809 582 698 911 1032 1049 1214 571V561ZM668 532 244 35-14 248 262 553 141 911 473 1049 668 543V532Z" glyph-name="guillemotright" horiz-adv-x="1276" unicode="&#xbb;"/><glyph d="M1720 122H1607L1581-1H1292L1319 122H921L952 300 1442 877H1767L1648 320H1761L1720 122ZM1360 320Q1422 559 1433 594T1448 638Q1435 620 1413 590T1198 320H1360ZM1575 1462 492 0H195L1284 1462H1575ZM761 1462H1013L826 584H509L591 948Q612 1050 646 1155L572 1096 453 1018 335 1202 761 1462Z" glyph-name="onequarter" horiz-adv-x="1991" unicode="&#xbc;"/><glyph d="M1706-1H1002L1045 203 1321 414Q1429 497 1465 538T1501 613Q1501 664 1438 664 1403 664 1353 646T1249 584L1131 775Q1215 840 1303 869T1520 898Q1654 898 1738 837T1823 681Q1823 611 1792 552T1690 431 1438 255H1757L1706-1ZM786 1462H1038L851 584H534L616 948Q637 1050 671 1155L597 1096 478 1018 360 1202 786 1462ZM1599 1462 516 0H219L1308 1462H1599Z" glyph-name="onehalf" horiz-adv-x="1991" unicode="&#xbd;"/><glyph d="M1767 122H1654L1628-1H1339L1366 122H968L999 300 1489 877H1814L1695 320H1808L1767 122ZM1407 320Q1469 559 1480 594T1495 638Q1482 620 1460 590T1245 320H1407ZM950 1272Q950 1181 895 1126T719 1042V1034Q811 1011 848 965T885 852Q885 725 781 647T506 569Q400 569 329 585T195 639V864Q258 821 326 802T451 782Q602 782 602 862 602 930 489 930H369L412 1124H508Q579 1124 622 1145T666 1212Q666 1240 644 1255T590 1270Q511 1270 405 1204L305 1386Q388 1438 466 1459T647 1481Q784 1481 867 1424T950 1272ZM1743 1462 660 0H363L1452 1462H1743Z" glyph-name="threequarters" horiz-adv-x="1991" unicode="&#xbe;"/><glyph d="M721 612 709 549Q694 467 666 409T594 305 455 197Q366 139 330 102T293 25Q293-12 315-28T383-45Q507-45 696 63L815-219Q588-354 354-354 153-354 35-264T-84-16Q-84 73-57 139T21 258 193 385Q293 445 335 486T391 569L406 612H721ZM801 1001Q801 894 736 831T557 768Q470 768 424 808T377 924Q377 1033 441 1093T614 1153Q703 1153 752 1114T801 1001Z" glyph-name="questiondown" horiz-adv-x="999" unicode="&#xbf;"/><glyph d="M858 274H410L285 0H-121L623 1462H1126L1249 0H868L858 274ZM553 586H846L829 1010 827 1096Q827 1171 831 1227 807 1141 770 1061L553 586ZM1041 1579H805Q723 1654 653 1738T551 1886V1907H947Q976 1750 1041 1604V1579Z" glyph-name="Agrave" horiz-adv-x="1384" unicode="&#xc0;"/><glyph d="M858 274H410L285 0H-121L623 1462H1126L1249 0H868L858 274ZM553 586H846L829 1010 827 1096Q827 1171 831 1227 807 1141 770 1061L553 586ZM709 1602Q832 1704 991 1907H1430V1892Q1385 1838 1239 1735T993 1579H709V1602Z" glyph-name="Aacute" horiz-adv-x="1384" unicode="&#xc1;"/><glyph d="M858 274H410L285 0H-121L623 1462H1126L1249 0H868L858 274ZM553 586H846L829 1010 827 1096Q827 1171 831 1227 807 1141 770 1061L553 586ZM1335 1579H1069Q1023 1620 913 1753 773 1643 673 1579H399V1602Q478 1674 569 1764T708 1907H1155Q1181 1848 1233 1758T1335 1602V1579Z" glyph-name="Acircumflex" horiz-adv-x="1384" unicode="&#xc2;"/><glyph d="M858 274H410L285 0H-121L623 1462H1126L1249 0H868L858 274ZM553 586H846L829 1010 827 1096Q827 1171 831 1227 807 1141 770 1061L553 586ZM1043 1577Q1010 1577 978 1585T917 1607 871 1630Q798 1675 744 1675 713 1675 684 1648T647 1575H459Q491 1747 567 1832T772 1917Q806 1917 831 1911T926 1868Q957 1851 992 1835T1059 1819Q1137 1819 1174 1919H1364Q1330 1747 1252 1662T1043 1577Z" glyph-name="Atilde" horiz-adv-x="1384" unicode="&#xc3;"/><glyph d="M858 274H410L285 0H-121L623 1462H1126L1249 0H868L858 274ZM553 586H846L829 1010 827 1096Q827 1171 831 1227 807 1141 770 1061L553 586ZM502 1722Q502 1909 703 1909 873 1909 873 1784 873 1595 672 1595 584 1595 543 1626T502 1722ZM989 1722Q989 1909 1190 1909 1358 1909 1358 1784 1358 1687 1309 1641T1159 1595Q1071 1595 1030 1626T989 1722Z" glyph-name="Adieresis" horiz-adv-x="1384" unicode="&#xc4;"/><glyph d="M858 274H410L285 0H-121L623 1462H1126L1249 0H868L858 274ZM553 586H846L829 1010 827 1096Q827 1171 831 1227 807 1141 770 1061L553 586ZM1145 1552Q1145 1439 1071 1369T877 1298Q756 1298 682 1366T608 1550Q608 1664 681 1734T877 1804Q995 1804 1070 1734T1145 1552ZM965 1550Q965 1588 939 1612T877 1636Q841 1636 815 1612T788 1550Q788 1513 811 1490T877 1466Q916 1466 940 1491T965 1550Z" glyph-name="Aring" horiz-adv-x="1384" unicode="&#xc5;"/><glyph d="M1688 0H819L877 274H459L289 0H-125L784 1462H1997L1931 1145H1454L1407 915H1851L1780 598H1335L1278 322H1755L1688 0ZM948 602 1061 1145H993L662 602H948Z" glyph-name="AE" horiz-adv-x="1937" unicode="&#xc6;"/><glyph d="M881 1159Q773 1159 686 1081T550 866 500 569Q500 435 556 369T717 303Q800 303 885 323T1085 393V70Q882-20 645-20 385-20 245 128T104 549Q104 815 205 1037T481 1372 881 1485Q1146 1485 1362 1354L1214 1049Q1121 1104 1043 1131T881 1159ZM813-236Q813-357 731-424T497-492Q382-492 305-463V-258Q335-267 383-276T456-285Q524-285 524-236 524-163 379-135L454 0H659L635-41Q813-78 813-236Z" glyph-name="Ccedilla" horiz-adv-x="1290" unicode="&#xc7;"/><glyph d="M901 0H33L342 1462H1210L1145 1145H668L621 915H1065L993 598H549L492 322H969L901 0ZM933 1579H697Q615 1654 545 1738T443 1886V1907H839Q868 1750 933 1604V1579Z" glyph-name="Egrave" horiz-adv-x="1151" unicode="&#xc8;"/><glyph d="M901 0H33L342 1462H1210L1145 1145H668L621 915H1065L993 598H549L492 322H969L901 0ZM578 1602Q701 1704 860 1907H1299V1892Q1254 1838 1108 1735T862 1579H578V1602Z" glyph-name="Eacute" horiz-adv-x="1151" unicode="&#xc9;"/><glyph d="M901 0H33L342 1462H1210L1145 1145H668L621 915H1065L993 598H549L492 322H969L901 0ZM1239 1579H973Q927 1620 817 1753 677 1643 577 1579H303V1602Q382 1674 473 1764T612 1907H1059Q1085 1848 1137 1758T1239 1602V1579Z" glyph-name="Ecircumflex" horiz-adv-x="1151" unicode="&#xca;"/><glyph d="M901 0H33L342 1462H1210L1145 1145H668L621 915H1065L993 598H549L492 322H969L901 0ZM383 1722Q383 1909 584 1909 754 1909 754 1784 754 1595 553 1595 465 1595 424 1626T383 1722ZM870 1722Q870 1909 1071 1909 1239 1909 1239 1784 1239 1687 1190 1641T1040 1595Q952 1595 911 1626T870 1722Z" glyph-name="Edieresis" horiz-adv-x="1151" unicode="&#xcb;"/><glyph d="M31 0 340 1462H737L428 0H31ZM749 1579H513Q431 1654 361 1738T259 1886V1907H655Q684 1750 749 1604V1579Z" glyph-name="Igrave" horiz-adv-x="727" unicode="&#xcc;"/><glyph d="M31 0 340 1462H737L428 0H31ZM345 1602Q468 1704 627 1907H1066V1892Q1021 1838 875 1735T629 1579H345V1602Z" glyph-name="Iacute" horiz-adv-x="727" unicode="&#xcd;"/><glyph d="M31 0 340 1462H737L428 0H31ZM1015 1579H749Q703 1620 593 1753 453 1643 353 1579H79V1602Q158 1674 249 1764T388 1907H835Q861 1848 913 1758T1015 1602V1579Z" glyph-name="Icircumflex" horiz-adv-x="727" unicode="&#xce;"/><glyph d="M31 0 340 1462H737L428 0H31ZM159 1722Q159 1909 360 1909 530 1909 530 1784 530 1595 329 1595 241 1595 200 1626T159 1722ZM646 1722Q646 1909 847 1909 1015 1909 1015 1784 1015 1687 966 1641T816 1595Q728 1595 687 1626T646 1722Z" glyph-name="Idieresis" horiz-adv-x="727" unicode="&#xcf;"/><glyph d="M80 883H219L342 1462H772Q1043 1462 1190 1319T1337 909Q1337 475 1124 238T526 0H33L152 563H10L80 883ZM563 324Q674 324 761 395T895 599 942 901Q942 1017 888 1080T737 1143H666L610 883H788L719 563H543L494 324H563Z" glyph-name="Eth" horiz-adv-x="1401" unicode="&#xd0;"/><glyph d="M1319 0H864L575 1028H567Q538 737 510 610L381 0H33L342 1462H797L1083 479H1092Q1121 715 1149 850L1280 1462H1628L1319 0ZM1137 1577Q1104 1577 1072 1585T1011 1607 965 1630Q892 1675 838 1675 807 1675 778 1648T741 1575H553Q585 1747 661 1832T866 1917Q900 1917 925 1911T1020 1868Q1051 1851 1086 1835T1153 1819Q1231 1819 1268 1919H1458Q1424 1747 1346 1662T1137 1577Z" glyph-name="Ntilde" horiz-adv-x="1618" unicode="&#xd1;"/><glyph d="M897 1485Q1157 1485 1301 1337T1446 922Q1446 656 1347 436T1072 98 666-20Q397-20 251 129T104 543Q104 808 207 1030T487 1368 897 1485ZM1051 918Q1051 1032 1003 1096T864 1161Q765 1161 682 1077T550 846 500 545Q500 303 700 303 795 303 876 386T1004 610 1051 918ZM1102 1579H866Q784 1654 714 1738T612 1886V1907H1008Q1037 1750 1102 1604V1579Z" glyph-name="Ograve" horiz-adv-x="1509" unicode="&#xd2;"/><glyph d="M897 1485Q1157 1485 1301 1337T1446 922Q1446 656 1347 436T1072 98 666-20Q397-20 251 129T104 543Q104 808 207 1030T487 1368 897 1485ZM1051 918Q1051 1032 1003 1096T864 1161Q765 1161 682 1077T550 846 500 545Q500 303 700 303 795 303 876 386T1004 610 1051 918ZM717 1602Q840 1704 999 1907H1438V1892Q1393 1838 1247 1735T1001 1579H717V1602Z" glyph-name="Oacute" horiz-adv-x="1509" unicode="&#xd3;"/><glyph d="M897 1485Q1157 1485 1301 1337T1446 922Q1446 656 1347 436T1072 98 666-20Q397-20 251 129T104 543Q104 808 207 1030T487 1368 897 1485ZM1051 918Q1051 1032 1003 1096T864 1161Q765 1161 682 1077T550 846 500 545Q500 303 700 303 795 303 876 386T1004 610 1051 918ZM1368 1579H1102Q1056 1620 946 1753 806 1643 706 1579H432V1602Q511 1674 602 1764T741 1907H1188Q1214 1848 1266 1758T1368 1602V1579Z" glyph-name="Ocircumflex" horiz-adv-x="1509" unicode="&#xd4;"/><glyph d="M897 1485Q1157 1485 1301 1337T1446 922Q1446 656 1347 436T1072 98 666-20Q397-20 251 129T104 543Q104 808 207 1030T487 1368 897 1485ZM1051 918Q1051 1032 1003 1096T864 1161Q765 1161 682 1077T550 846 500 545Q500 303 700 303 795 303 876 386T1004 610 1051 918ZM1073 1577Q1040 1577 1008 1585T947 1607 901 1630Q828 1675 774 1675 743 1675 714 1648T677 1575H489Q521 1747 597 1832T802 1917Q836 1917 861 1911T956 1868Q987 1851 1022 1835T1089 1819Q1167 1819 1204 1919H1394Q1360 1747 1282 1662T1073 1577Z" glyph-name="Otilde" horiz-adv-x="1509" unicode="&#xd5;"/><glyph d="M897 1485Q1157 1485 1301 1337T1446 922Q1446 656 1347 436T1072 98 666-20Q397-20 251 129T104 543Q104 808 207 1030T487 1368 897 1485ZM1051 918Q1051 1032 1003 1096T864 1161Q765 1161 682 1077T550 846 500 545Q500 303 700 303 795 303 876 386T1004 610 1051 918ZM512 1722Q512 1909 713 1909 883 1909 883 1784 883 1595 682 1595 594 1595 553 1626T512 1722ZM999 1722Q999 1909 1200 1909 1368 1909 1368 1784 1368 1687 1319 1641T1169 1595Q1081 1595 1040 1626T999 1722Z" glyph-name="Odieresis" horiz-adv-x="1509" unicode="&#xd6;"/><glyph d="M387 723 102 1010 289 1200 578 915 870 1200 1061 1016 768 723 1055 432 870 244 578 532 289 246 104 434 387 723Z" glyph-name="multiply" horiz-adv-x="1159" unicode="&#xd7;"/><glyph d="M879 1485Q1061 1485 1194 1413L1286 1528 1442 1409 1343 1284Q1446 1141 1446 922 1446 664 1348 442T1077 100 684-20Q492-20 360 49L254-86 94 31 211 176Q104 317 104 543 104 805 205 1027T480 1367 879 1485ZM500 539 967 1128Q922 1161 852 1161 758 1161 677 1079T548 855 500 549V539ZM700 303Q795 303 876 384T1004 607 1051 915L586 332Q632 303 700 303Z" glyph-name="Oslash" horiz-adv-x="1509" unicode="&#xd8;"/><glyph d="M1450 1462 1251 530Q1192 249 1026 115T575-20Q441-20 339 35T181 189 125 410Q125 474 137 539L336 1462H727L532 549Q518 481 518 434 518 307 639 307 733 307 786 371T868 569L1059 1462H1450ZM1045 1579H809Q727 1654 657 1738T555 1886V1907H951Q980 1750 1045 1604V1579Z" glyph-name="Ugrave" horiz-adv-x="1436" unicode="&#xd9;"/><glyph d="M1450 1462 1251 530Q1192 249 1026 115T575-20Q441-20 339 35T181 189 125 410Q125 474 137 539L336 1462H727L532 549Q518 481 518 434 518 307 639 307 733 307 786 371T868 569L1059 1462H1450ZM725 1602Q848 1704 1007 1907H1446V1892Q1401 1838 1255 1735T1009 1579H725V1602Z" glyph-name="Uacute" horiz-adv-x="1436" unicode="&#xda;"/><glyph d="M1450 1462 1251 530Q1192 249 1026 115T575-20Q441-20 339 35T181 189 125 410Q125 474 137 539L336 1462H727L532 549Q518 481 518 434 518 307 639 307 733 307 786 371T868 569L1059 1462H1450ZM1376 1579H1110Q1064 1620 954 1753 814 1643 714 1579H440V1602Q519 1674 610 1764T749 1907H1196Q1222 1848 1274 1758T1376 1602V1579Z" glyph-name="Ucircumflex" horiz-adv-x="1436" unicode="&#xdb;"/><glyph d="M1450 1462 1251 530Q1192 249 1026 115T575-20Q441-20 339 35T181 189 125 410Q125 474 137 539L336 1462H727L532 549Q518 481 518 434 518 307 639 307 733 307 786 371T868 569L1059 1462H1450ZM533 1722Q533 1909 734 1909 904 1909 904 1784 904 1595 703 1595 615 1595 574 1626T533 1722ZM1020 1722Q1020 1909 1221 1909 1389 1909 1389 1784 1389 1687 1340 1641T1190 1595Q1102 1595 1061 1626T1020 1722Z" glyph-name="Udieresis" horiz-adv-x="1436" unicode="&#xdc;"/><glyph d="M657 920 969 1462H1405L793 567 672 0H281L401 567 164 1462H567L657 920ZM615 1602Q738 1704 897 1907H1336V1892Q1291 1838 1145 1735T899 1579H615V1602Z" glyph-name="Yacute" horiz-adv-x="1237" unicode="&#xdd;"/><glyph d="M342 1462H733L688 1251Q939 1251 1073 1137T1208 811Q1208 561 1038 418T567 274H481L424 0H33L342 1462ZM551 594H614Q708 594 762 643T817 799Q817 857 776 894T668 932H623L551 594Z" glyph-name="Thorn" horiz-adv-x="1276" unicode="&#xde;"/><glyph d="M-53-492Q-163-492-260-465V-162Q-197-180-143-180-69-180-32-150T20-55L264 1096Q317 1345 465 1456T883 1567Q1126 1567 1262 1468T1399 1194Q1399 1076 1348 996T1186 864Q1069 808 1069 762 1069 733 1089 712T1177 655Q1272 604 1317 537T1362 373Q1362 256 1304 168T1134 30 862-20Q701-20 588 25V324Q647 295 724 279T858 262Q917 262 945 284T973 334Q973 366 954 387T840 471Q752 527 713 582T674 713Q674 805 716 863T881 989Q952 1029 981 1065T1010 1145Q1010 1203 969 1233T852 1264Q774 1264 720 1214T645 1067L393-117Q350-309 240-400T-53-492Z" glyph-name="germandbls" horiz-adv-x="1460" unicode="&#xdf;"/><glyph d="M565 291Q615 291 660 349T733 506 760 698Q760 763 740 802T678 842Q602 842 541 716T479 434Q479 291 565 291ZM981 0H672L682 123H674Q618 45 553 13T406-20Q248-20 166 91T84 412Q84 591 157 777T341 1058 588 1153Q672 1153 736 1116T850 993H858L911 1133H1221L981 0ZM1146 1241H910Q828 1316 758 1400T656 1548V1569H1052Q1081 1412 1146 1266V1241Z" glyph-name="agrave" horiz-adv-x="1243" unicode="&#xe0;"/><glyph d="M565 291Q615 291 660 349T733 506 760 698Q760 763 740 802T678 842Q602 842 541 716T479 434Q479 291 565 291ZM981 0H672L682 123H674Q618 45 553 13T406-20Q248-20 166 91T84 412Q84 591 157 777T341 1058 588 1153Q672 1153 736 1116T850 993H858L911 1133H1221L981 0ZM531 1264Q654 1366 813 1569H1252V1554Q1207 1500 1061 1397T815 1241H531V1264Z" glyph-name="aacute" horiz-adv-x="1243" unicode="&#xe1;"/><glyph d="M565 291Q615 291 660 349T733 506 760 698Q760 763 740 802T678 842Q602 842 541 716T479 434Q479 291 565 291ZM981 0H672L682 123H674Q618 45 553 13T406-20Q248-20 166 91T84 412Q84 591 157 777T341 1058 588 1153Q672 1153 736 1116T850 993H858L911 1133H1221L981 0ZM1198 1494H932Q886 1535 776 1668 636 1558 536 1494H262V1517Q341 1589 432 1679T571 1822H1018Q1044 1763 1096 1673T1198 1517V1494Z" glyph-name="acircumflex" horiz-adv-x="1243" unicode="&#xe2;"/><glyph d="M565 291Q615 291 660 349T733 506 760 698Q760 763 740 802T678 842Q602 842 541 716T479 434Q479 291 565 291ZM981 0H672L682 123H674Q618 45 553 13T406-20Q248-20 166 91T84 412Q84 591 157 777T341 1058 588 1153Q672 1153 736 1116T850 993H858L911 1133H1221L981 0ZM885 1239Q852 1239 820 1247T759 1269 713 1292Q640 1337 586 1337 555 1337 526 1310T489 1237H301Q333 1409 409 1494T614 1579Q648 1579 673 1573T768 1530Q799 1513 834 1497T901 1481Q979 1481 1016 1581H1206Q1172 1409 1094 1324T885 1239Z" glyph-name="atilde" horiz-adv-x="1243" unicode="&#xe3;"/><glyph d="M565 291Q615 291 660 349T733 506 760 698Q760 763 740 802T678 842Q602 842 541 716T479 434Q479 291 565 291ZM981 0H672L682 123H674Q618 45 553 13T406-20Q248-20 166 91T84 412Q84 591 157 777T341 1058 588 1153Q672 1153 736 1116T850 993H858L911 1133H1221L981 0ZM587 1384Q587 1571 788 1571 958 1571 958 1446 958 1257 757 1257 669 1257 628 1288T587 1384ZM1074 1384Q1074 1571 1275 1571 1443 1571 1443 1446 1443 1349 1394 1303T1244 1257Q1156 1257 1115 1288T1074 1384Z" glyph-name="adieresis" horiz-adv-x="1243" unicode="&#xe4;"/><glyph d="M565 291Q615 291 660 349T733 506 760 698Q760 763 740 802T678 842Q602 842 541 716T479 434Q479 291 565 291ZM981 0H672L682 123H674Q618 45 553 13T406-20Q248-20 166 91T84 412Q84 591 157 777T341 1058 588 1153Q672 1153 736 1116T850 993H858L911 1133H1221L981 0ZM1281 1491Q1281 1378 1207 1308T1013 1237Q892 1237 818 1305T744 1489Q744 1603 817 1673T1013 1743Q1131 1743 1206 1673T1281 1491ZM1101 1489Q1101 1527 1075 1551T1013 1575Q977 1575 951 1551T924 1489Q924 1452 947 1429T1013 1405Q1052 1405 1076 1430T1101 1489Z" glyph-name="aring" horiz-adv-x="1243" unicode="&#xe5;"/><glyph d="M1192-20Q1013-20 930 92L899 0H672L682 123H674Q618 45 553 13T406-20Q248-20 166 91T84 412Q84 591 157 777T341 1058 588 1153Q680 1153 740 1115T850 993H858L911 1133H1118V1038Q1176 1094 1250 1123T1397 1153Q1554 1153 1648 1067T1743 838Q1743 637 1586 530T1135 422H1075V406Q1075 258 1239 258 1318 258 1394 281T1567 356V82Q1468 24 1385 2T1192-20ZM565 291Q641 291 699 414T758 698Q758 763 735 802T670 842Q621 842 577 785T506 630 479 434Q479 291 565 291ZM1292 891Q1231 891 1178 822T1114 664H1143Q1252 664 1314 705T1376 815Q1376 847 1356 869T1292 891Z" glyph-name="ae" horiz-adv-x="1788" unicode="&#xe6;"/><glyph d="M506-20Q307-20 196 100T84 442Q84 643 160 806T375 1061 690 1153Q885 1153 1057 1073L934 786Q801 846 709 846 647 846 594 798T507 655 473 467Q473 376 503 334T598 291Q670 291 737 314T881 377V70Q801 26 713 3T506-20ZM684-236Q684-357 602-424T368-492Q253-492 176-463V-258Q206-267 254-276T327-285Q395-285 395-236 395-163 250-135L325 0H530L506-41Q684-78 684-236Z" glyph-name="ccedilla" horiz-adv-x="1032" unicode="&#xe7;"/><glyph d="M532-20Q320-20 202 98T84 428Q84 639 167 808T396 1065 733 1153Q923 1153 1032 1067T1141 838Q1141 637 985 530T532 422H473V406Q473 258 637 258 716 258 792 281T965 356V82Q853 25 756 3T532-20ZM690 891Q629 891 576 822T512 664H541Q650 664 712 705T774 815Q774 847 754 869T690 891ZM1175 1241H939Q857 1316 787 1400T685 1548V1569H1081Q1110 1412 1175 1266V1241Z" glyph-name="egrave" horiz-adv-x="1186" unicode="&#xe8;"/><glyph d="M532-20Q320-20 202 98T84 428Q84 639 167 808T396 1065 733 1153Q923 1153 1032 1067T1141 838Q1141 637 985 530T532 422H473V406Q473 258 637 258 716 258 792 281T965 356V82Q853 25 756 3T532-20ZM690 891Q629 891 576 822T512 664H541Q650 664 712 705T774 815Q774 847 754 869T690 891ZM523 1264Q646 1366 805 1569H1244V1554Q1199 1500 1053 1397T807 1241H523V1264Z" glyph-name="eacute" horiz-adv-x="1186" unicode="&#xe9;"/><glyph d="M532-20Q320-20 202 98T84 428Q84 639 167 808T396 1065 733 1153Q923 1153 1032 1067T1141 838Q1141 637 985 530T532 422H473V406Q473 258 637 258 716 258 792 281T965 356V82Q853 25 756 3T532-20ZM690 891Q629 891 576 822T512 664H541Q650 664 712 705T774 815Q774 847 754 869T690 891ZM1213 1241H947Q901 1282 791 1415 651 1305 551 1241H277V1264Q356 1336 447 1426T586 1569H1033Q1059 1510 1111 1420T1213 1264V1241Z" glyph-name="ecircumflex" horiz-adv-x="1186" unicode="&#xea;"/><glyph d="M532-20Q320-20 202 98T84 428Q84 639 167 808T396 1065 733 1153Q923 1153 1032 1067T1141 838Q1141 637 985 530T532 422H473V406Q473 258 637 258 716 258 792 281T965 356V82Q853 25 756 3T532-20ZM690 891Q629 891 576 822T512 664H541Q650 664 712 705T774 815Q774 847 754 869T690 891ZM336 1384Q336 1571 537 1571 707 1571 707 1446 707 1257 506 1257 418 1257 377 1288T336 1384ZM823 1384Q823 1571 1024 1571 1192 1571 1192 1446 1192 1349 1143 1303T993 1257Q905 1257 864 1288T823 1384Z" glyph-name="edieresis" horiz-adv-x="1186" unicode="&#xeb;"/><glyph d="M410 0H23L262 1133H651L410 0ZM657 1241H421Q339 1316 269 1400T167 1548V1569H563Q592 1412 657 1266V1241Z" glyph-name="igrave" horiz-adv-x="666" unicode="&#xec;"/><glyph d="M410 0H23L262 1133H651L410 0ZM294 1264Q417 1366 576 1569H1015V1554Q970 1500 824 1397T578 1241H294V1264Z" glyph-name="iacute" horiz-adv-x="666" unicode="&#xed;"/><glyph d="M410 0H23L262 1133H651L410 0ZM929 1241H663Q617 1282 507 1415 367 1305 267 1241H-7V1264Q72 1336 163 1426T302 1569H749Q775 1510 827 1420T929 1264V1241Z" glyph-name="icircumflex" horiz-adv-x="666" unicode="&#xee;"/><glyph d="M410 0H23L262 1133H651L410 0ZM91 1384Q91 1571 292 1571 462 1571 462 1446 462 1257 261 1257 173 1257 132 1288T91 1384ZM578 1384Q578 1571 779 1571 947 1571 947 1446 947 1349 898 1303T748 1257Q660 1257 619 1288T578 1384Z" glyph-name="idieresis" horiz-adv-x="666" unicode="&#xef;"/><glyph d="M580 1319Q551 1344 485 1393L600 1573Q736 1512 831 1436L1069 1546 1151 1380 967 1290Q1038 1202 1081 1041T1124 717Q1124 357 970 169T520-20Q319-20 202 99T84 426Q84 596 146 731T325 940 592 1014Q722 1014 795 926L805 930Q786 1072 715 1176L442 1049 360 1217 580 1319ZM555 260Q608 260 648 304T711 423 735 571Q735 647 717 690T651 733Q570 733 521 632T471 408Q471 260 555 260Z" glyph-name="eth" horiz-adv-x="1155" unicode="&#xf0;"/><glyph d="M786 760Q786 803 764 824T711 846Q654 846 606 775T526 553L410 0H23L262 1133H571L559 975H567Q622 1070 696 1111T879 1153Q1020 1153 1099 1068T1178 831Q1178 725 1153 602L1026 0H639L768 618Q786 696 786 760ZM903 1239Q870 1239 838 1247T777 1269 731 1292Q658 1337 604 1337 573 1337 544 1310T507 1237H319Q351 1409 427 1494T632 1579Q666 1579 691 1573T786 1530Q817 1513 852 1497T919 1481Q997 1481 1034 1581H1224Q1190 1409 1112 1324T903 1239Z" glyph-name="ntilde" horiz-adv-x="1274" unicode="&#xf1;"/><glyph d="M520-20Q311-20 198 93T84 416Q84 626 163 795T387 1059 723 1153Q932 1153 1045 1040T1159 717Q1159 507 1080 338T856 74 520-20ZM678 862Q596 862 538 723T479 403Q479 270 563 270 644 270 704 409T764 729Q764 795 741 828T678 862ZM1150 1241H914Q832 1316 762 1400T660 1548V1569H1056Q1085 1412 1150 1266V1241Z" glyph-name="ograve" horiz-adv-x="1243" unicode="&#xf2;"/><glyph d="M520-20Q311-20 198 93T84 416Q84 626 163 795T387 1059 723 1153Q932 1153 1045 1040T1159 717Q1159 507 1080 338T856 74 520-20ZM678 862Q596 862 538 723T479 403Q479 270 563 270 644 270 704 409T764 729Q764 795 741 828T678 862ZM533 1264Q656 1366 815 1569H1254V1554Q1209 1500 1063 1397T817 1241H533V1264Z" glyph-name="oacute" horiz-adv-x="1243" unicode="&#xf3;"/><glyph d="M520-20Q311-20 198 93T84 416Q84 626 163 795T387 1059 723 1153Q932 1153 1045 1040T1159 717Q1159 507 1080 338T856 74 520-20ZM678 862Q596 862 538 723T479 403Q479 270 563 270 644 270 704 409T764 729Q764 795 741 828T678 862ZM1439 1241H1173Q1127 1282 1017 1415 877 1305 777 1241H503V1264Q582 1336 673 1426T812 1569H1259Q1285 1510 1337 1420T1439 1264V1241Z" glyph-name="ocircumflex" horiz-adv-x="1243" unicode="&#xf4;"/><glyph d="M520-20Q311-20 198 93T84 416Q84 626 163 795T387 1059 723 1153Q932 1153 1045 1040T1159 717Q1159 507 1080 338T856 74 520-20ZM678 862Q596 862 538 723T479 403Q479 270 563 270 644 270 704 409T764 729Q764 795 741 828T678 862ZM1117 1239Q1084 1239 1052 1247T991 1269 945 1292Q872 1337 818 1337 787 1337 758 1310T721 1237H533Q565 1409 641 1494T846 1579Q880 1579 905 1573T1000 1530Q1031 1513 1066 1497T1133 1481Q1211 1481 1248 1581H1438Q1404 1409 1326 1324T1117 1239Z" glyph-name="otilde" horiz-adv-x="1243" unicode="&#xf5;"/><glyph d="M520-20Q311-20 198 93T84 416Q84 626 163 795T387 1059 723 1153Q932 1153 1045 1040T1159 717Q1159 507 1080 338T856 74 520-20ZM678 862Q596 862 538 723T479 403Q479 270 563 270 644 270 704 409T764 729Q764 795 741 828T678 862ZM573 1384Q573 1571 774 1571 944 1571 944 1446 944 1257 743 1257 655 1257 614 1288T573 1384ZM1060 1384Q1060 1571 1261 1571 1429 1571 1429 1446 1429 1349 1380 1303T1230 1257Q1142 1257 1101 1288T1060 1384Z" glyph-name="odieresis" horiz-adv-x="1243" unicode="&#xf6;"/><glyph d="M102 586V858H1077V586H102ZM432 373Q432 456 473 500T590 545Q664 545 704 501T745 373Q745 292 704 247T590 201Q516 201 474 247T432 373ZM432 1071Q432 1154 473 1198T590 1243Q664 1243 704 1199T745 1071Q745 990 704 945T590 899Q516 899 474 945T432 1071Z" glyph-name="divide" horiz-adv-x="1159" unicode="&#xf7;"/><glyph d="M549-20Q422-20 311 29L193-111 66-2 178 129Q84 246 84 416 84 623 165 793T396 1058 743 1153Q879 1153 993 1096L1098 1217 1225 1108 1120 985Q1202 871 1202 717 1202 509 1121 340T892 75 549-20ZM702 877Q635 877 577 822T485 669 449 451L784 848Q749 877 702 877ZM590 260Q697 260 762 361T836 649L518 274Q547 260 590 260Z" glyph-name="oslash" horiz-adv-x="1286" unicode="&#xf8;"/><glyph d="M487 375Q487 331 509 310T563 289Q622 289 670 367T748 582L864 1133H1251L1012 0H702L715 158H707Q653 65 579 23T395-20Q254-20 175 65T96 301Q96 407 121 530L248 1133H635L506 516Q487 434 487 375ZM1158 1241H922Q840 1316 770 1400T668 1548V1569H1064Q1093 1412 1158 1266V1241Z" glyph-name="ugrave" horiz-adv-x="1274" unicode="&#xf9;"/><glyph d="M487 375Q487 331 509 310T563 289Q622 289 670 367T748 582L864 1133H1251L1012 0H702L715 158H707Q653 65 579 23T395-20Q254-20 175 65T96 301Q96 407 121 530L248 1133H635L506 516Q487 434 487 375ZM584 1264Q707 1366 866 1569H1305V1554Q1260 1500 1114 1397T868 1241H584V1264Z" glyph-name="uacute" horiz-adv-x="1274" unicode="&#xfa;"/><glyph d="M487 375Q487 331 509 310T563 289Q622 289 670 367T748 582L864 1133H1251L1012 0H702L715 158H707Q653 65 579 23T395-20Q254-20 175 65T96 301Q96 407 121 530L248 1133H635L506 516Q487 434 487 375ZM1221 1241H955Q909 1282 799 1415 659 1305 559 1241H285V1264Q364 1336 455 1426T594 1569H1041Q1067 1510 1119 1420T1221 1264V1241Z" glyph-name="ucircumflex" horiz-adv-x="1274" unicode="&#xfb;"/><glyph d="M487 375Q487 331 509 310T563 289Q622 289 670 367T748 582L864 1133H1251L1012 0H702L715 158H707Q653 65 579 23T395-20Q254-20 175 65T96 301Q96 407 121 530L248 1133H635L506 516Q487 434 487 375ZM371 1384Q371 1571 572 1571 742 1571 742 1446 742 1257 541 1257 453 1257 412 1288T371 1384ZM858 1384Q858 1571 1059 1571 1227 1571 1227 1446 1227 1349 1178 1303T1028 1257Q940 1257 899 1288T858 1384Z" glyph-name="udieresis" horiz-adv-x="1274" unicode="&#xfc;"/><glyph d="M82 1133H471L514 571 516 509V422H524Q561 554 574 587T813 1133H1229L559-143Q463-328 336-410T25-492Q-67-492-129-475V-168Q-83-180-20-180 67-180 122-144T221-29L244 12 82 1133ZM492 1264Q615 1366 774 1569H1213V1554Q1168 1500 1022 1397T776 1241H492V1264Z" glyph-name="yacute" horiz-adv-x="1114" unicode="&#xfd;"/><glyph d="M678 842Q628 842 583 785T512 631 485 434Q485 369 508 330T573 291Q621 291 665 348T736 501 764 698Q764 842 678 842ZM836 1153Q987 1153 1073 1041T1159 735Q1159 532 1089 353T904 77 651-20Q508-20 420 125H412Q400-41 356-246L305-492H-82L352 1556H739L690 1325Q652 1150 600 1024H608Q652 1083 704 1118T836 1153Z" glyph-name="thorn" horiz-adv-x="1243" unicode="&#xfe;"/><glyph d="M82 1133H471L514 571 516 509V422H524Q561 554 574 587T813 1133H1229L559-143Q463-328 336-410T25-492Q-67-492-129-475V-168Q-83-180-20-180 67-180 122-144T221-29L244 12 82 1133ZM515 1384Q515 1571 716 1571 886 1571 886 1446 886 1257 685 1257 597 1257 556 1288T515 1384ZM1002 1384Q1002 1571 1203 1571 1371 1571 1371 1446 1371 1349 1322 1303T1172 1257Q1084 1257 1043 1288T1002 1384Z" glyph-name="ydieresis" horiz-adv-x="1114" unicode="&#xff;"/><glyph d="M33 416 90 690H961L901 416H33Z" glyph-name="endash" horiz-adv-x="983" unicode="&#x2013;"/><glyph d="M33 416 90 690H1944L1884 416H33Z" glyph-name="emdash" horiz-adv-x="1966" unicode="&#x2014;"/><glyph d="M119 961 109 983Q213 1218 367 1462H655Q629 1400 602 1331T467 961H119Z" glyph-name="quoteleft" horiz-adv-x="500" unicode="&#x2018;"/><glyph d="M631 1462 639 1440Q547 1228 383 961H94Q128 1042 161 1128T283 1462H631Z" glyph-name="quoteright" horiz-adv-x="500" unicode="&#x2019;"/><glyph d="M432 238 440 215Q346-8 184-264H-104Q-79-205-54-141T84 238H432Z" glyph-name="quotesinglbase" horiz-adv-x="621" unicode="&#x201a;"/><glyph d="M614 961 606 983Q715 1229 862 1462H1151Q1102 1347 1051 1204L963 961H614ZM119 961 109 983Q213 1218 367 1462H655Q629 1400 602 1331T467 961H119Z" glyph-name="quotedblleft" horiz-adv-x="997" unicode="&#x201c;"/><glyph d="M631 1462 639 1440Q547 1228 383 961H94Q143 1078 194 1219L283 1462H631ZM1128 1462 1135 1440Q1096 1349 1025 1214T881 961H592Q633 1059 691 1219L780 1462H1128Z" glyph-name="quotedblright" horiz-adv-x="997" unicode="&#x201d;"/><glyph d="M432 238 440 215Q346-8 184-264H-104Q-79-205-54-141T84 238H432ZM934 238 942 215Q891 99 818-36T684-264H397Q458-116 544 123L586 238H934Z" glyph-name="quotedblbase" horiz-adv-x="1122" unicode="&#x201e;"/><glyph d="M86 688Q86 806 133 902T266 1052 467 1106Q615 1106 688 1029T762 805Q762 611 661 500T379 389Q242 389 164 469T86 688Z" glyph-name="bullet" horiz-adv-x="803" unicode="&#x2022;"/><glyph d="M61 563 469 1081 733 877 467 543 578 213 244 76 61 553V563Z" glyph-name="guilsinglleft" horiz-adv-x="719" unicode="&#x2039;"/><glyph d="M657 561 250 43-14 248 252 582 141 911 473 1049 657 571V561Z" glyph-name="guilsinglright" horiz-adv-x="719" unicode="&#x203a;"/></font>
</defs>
</svg>
